<svg xmlns="http://www.w3.org/2000/svg" width="180.772" height="193.669" viewBox="0 0 180.772 193.669">
  <g id="About_us_page-amico" data-name="About us page-amico" transform="translate(-30.592 -29.35)">
    <g id="freepik--Plants--inject-32" transform="translate(30.592 154.405)">
      <g id="freepik--plants--inject-32-2" data-name="freepik--plants--inject-32">
        <path id="Path_48072" data-name="Path 48072" d="M72.9,325.751s-.5-11.617-5.367-18.083-10.84-7.4-13.8-5.574c-2.161,1.324-1.872,5.261,1.867,7.818s10.945,9.111,12.072,13.383Z" transform="translate(-48.732 -301.271)" fill="#f8cfd8"/>
        <path id="Path_48073" data-name="Path 48073" d="M76.249,328.287a.3.3,0,0,1-.281-.317c.5-10.541-8.738-17.113-11.254-18.295a.3.3,0,0,1-.147-.4.308.308,0,0,1,.4-.147c2.58,1.223,12.114,8,11.6,18.856a.3.3,0,0,1-.317.285Z" transform="translate(-55.297 -305.5)" fill="#fff"/>
        <path id="Path_48074" data-name="Path 48074" d="M66.313,339.35a2.759,2.759,0,0,1-1.8-.7c-.566-.621-.52-1.573-.782-2.373a4.025,4.025,0,0,0-3.077-2.488,9.339,9.339,0,0,0-4.1.276c-2.713.667-5.321-1-8.039-.8a5.416,5.416,0,0,0-2.759.86,2.934,2.934,0,0,0-1.315,2.465,3.145,3.145,0,0,0,1.122,2.065,9.447,9.447,0,0,0,2.06,1.288l2.387,1.219a4.21,4.21,0,0,1,1.127.736,3.178,3.178,0,0,1,.832,2.543c-.184.92-.92,1.619-1.154,2.52a2.986,2.986,0,0,0,1.472,3.086,6.025,6.025,0,0,0,3.532.69c1.219-.069,2.424-.313,3.642-.336a4.291,4.291,0,0,1,2.373.52A4.4,4.4,0,0,1,63.5,353.34a6.439,6.439,0,0,0,.745,1.775,3.436,3.436,0,0,0,1.605,1.127,5.491,5.491,0,0,0,3.794,0,3.948,3.948,0,0,0,1.876-2.506,8.738,8.738,0,0,0,.529-3.219,20.562,20.562,0,0,0-1.872-8.159A4.9,4.9,0,0,0,67.55,339.6,7.935,7.935,0,0,0,66.313,339.35Z" transform="translate(-44.44 -318.54)" fill="#fcdae1"/>
        <path id="Path_48075" data-name="Path 48075" d="M72.275,354.341a.267.267,0,0,1-.253-.179c-2.838-8.135-16.262-15.213-21.155-16.027a.268.268,0,1,1,.087-.529c5,.828,18.695,8.062,21.615,16.377a.267.267,0,0,1-.166.345A.29.29,0,0,1,72.275,354.341Z" transform="translate(-47.79 -320.894)" fill="#fff"/>
        <path id="Path_48076" data-name="Path 48076" d="M71.153,360.946a.267.267,0,0,1-.161-.46,13.5,13.5,0,0,1,7.459-2.4h0a.271.271,0,0,1,0,.538,13.24,13.24,0,0,0-7.142,2.3A.275.275,0,0,1,71.153,360.946Z" transform="translate(-58.735 -331.959)" fill="#fff"/>
      </g>
    </g>
    <g id="freepik--Page--inject-32" transform="translate(54.243 29.35)">
      <path id="Path_48077" data-name="Path 48077" d="M96.855,194.144a2.23,2.23,0,0,1-.975-1.761V96.545a2.3,2.3,0,0,1,1.039-1.8l112.748-65.1a1.945,1.945,0,0,1,2.98,1.72v95.842a2.3,2.3,0,0,1-1.039,1.8L98.86,194.107a2.231,2.231,0,0,1-2.005.037Z" transform="translate(-95.874 -29.35)" fill="#455a64"/>
      <path id="Path_48078" data-name="Path 48078" d="M98.662,287.536h-.041a.363.363,0,0,1-.1.041h-.078a.65.65,0,0,1-.143.032.33.33,0,0,1-.1.023l-.156.023a2.015,2.015,0,0,1-1.2-.207,2.212,2.212,0,0,1-.97-1.757V202.17l1.95,1.127v83.549c0,.46.235.745.575.745a.457.457,0,0,0,.138,0h0A.433.433,0,0,0,98.662,287.536Z" transform="translate(-95.874 -122.691)" fill="#fe0843"/>
      <path id="Path_48079" data-name="Path 48079" d="M98.662,287.536h-.041a.363.363,0,0,1-.1.041h-.078a.65.65,0,0,1-.143.032.33.33,0,0,1-.1.023l-.156.023a2.015,2.015,0,0,1-1.2-.207,2.212,2.212,0,0,1-.97-1.757V202.17l1.95,1.127v83.549c0,.46.235.745.575.745a.457.457,0,0,0,.138,0h0A.433.433,0,0,0,98.662,287.536Z" transform="translate(-95.874 -122.691)" fill="#e0e0e0" opacity="0.81"/>
      <path id="Path_48080" data-name="Path 48080" d="M97.82,203.3l-1.95-1.127v18.557l1.95,1.136Z" transform="translate(-95.868 -122.691)" fill="#fe0843"/>
      <path id="Path_48081" data-name="Path 48081" d="M97.82,203.3l-1.95-1.127v18.557l1.95,1.136Z" transform="translate(-95.868 -122.691)" opacity="0.15"/>
      <path id="Path_48082" data-name="Path 48082" d="M98.117,174.357a2.138,2.138,0,0,0-.3,1.021v12.288l-1.95-1.127V174.256a1.128,1.128,0,0,1,0-.124,2.3,2.3,0,0,1,.041-.258,2.655,2.655,0,0,1,.258-.644Z" transform="translate(-95.866 -107.06)" fill="#263238"/>
      <path id="Path_48083" data-name="Path 48083" d="M214.932,32.881v5.546L132.284,86.141c-.57.331-1.035.06-1.035-.6v-2.1c0-.658-.46-.92-1.039-.6L105.04,97.381a2.3,2.3,0,0,0-1.039,1.8v2.1a2.3,2.3,0,0,1-1.035,1.8l-2.856,1.665V99.221a2.3,2.3,0,0,1,1.035-1.8L213.9,32.283C214.467,31.952,214.932,32.219,214.932,32.881Z" transform="translate(-98.158 -30.857)" fill="#26020b"/>
      <path id="Path_48084" data-name="Path 48084" d="M214.936,136.106A2.3,2.3,0,0,1,213.9,137.9L101.145,203c-.57.327-1.035.06-1.035-.6V112.122l2.856-1.646c.57-.331,1.5-5.362,2.074-5.693l24.747-14.289c.575-.331,1.927,3.385,2.5,3.054L214.932,45.81v90.3Z" transform="translate(-98.158 -38.24)" fill="#fe0843"/>
      <path id="Path_48085" data-name="Path 48085" d="M214.936,136.106A2.3,2.3,0,0,1,213.9,137.9L101.145,203c-.57.327-1.035.06-1.035-.6V112.122l2.856-1.646c.57-.331,1.5-5.362,2.074-5.693l24.747-14.289c.575-.331,1.927,3.385,2.5,3.054L214.932,45.81v90.3Z" transform="translate(-98.158 -38.24)" fill="#fff" opacity="0.9"/>
      <g id="Group_31129" data-name="Group 31129" transform="translate(1.952 7.57)" opacity="0.4">
        <path id="Path_48086" data-name="Path 48086" d="M214.472,46.606v89.5a1.84,1.84,0,0,1-.809,1.38L100.915,202.6a.46.46,0,0,1-.235.078c-.106,0-.11-.23-.11-.281V112.366l2.626-1.518c.4-.235.662-1.039,1.242-3.109a15.439,15.439,0,0,1,.865-2.6l24.545-14.169a10.288,10.288,0,0,1,.791,1.26C131.3,93.4,131.673,94,132.206,94a.653.653,0,0,0,.308-.078l81.958-47.318m.46-.8L132.284,93.524a.161.161,0,0,1-.078,0c-.579,0-1.757-3.1-2.341-3.1a.156.156,0,0,0-.078,0L105.04,104.764c-.575.331-1.5,5.362-2.074,5.693l-2.856,1.665v90.273c0,.46.235.74.57.74a.97.97,0,0,0,.46-.138L213.9,137.9a2.3,2.3,0,0,0,1.039-1.794V45.81Z" transform="translate(-100.11 -45.81)" fill="#fe0843"/>
      </g>
      <path id="Path_48087" data-name="Path 48087" d="M100.11,126.769v18.566L214.932,79.051V60.48Z" transform="translate(-98.158 -46.164)" fill="#fe0843"/>
      <path id="Path_48088" data-name="Path 48088" d="M214.932,45.81v6.747L100.11,118.846v-6.724l2.129-1.233c.57-.331.763-.837,1.035-1.8L104,106.58a2.57,2.57,0,0,1,1.039-1.8l24.747-14.289c.575-.331,1.026-.368,1.462.354l.888,1.61c.322.566.488.9,1.058.566Z" transform="translate(-98.158 -38.24)" fill="#f0f0f0"/>
      <path id="Path_48089" data-name="Path 48089" d="M337.672,41.1c.722-.414,1.306-.078,1.306.754a2.888,2.888,0,0,1-1.306,2.263c-.717.414-1.3.078-1.3-.754A2.9,2.9,0,0,1,337.672,41.1Z" transform="translate(-225.764 -35.602)" fill="#fe0843"/>
      <path id="Path_48090" data-name="Path 48090" d="M327.466,46.992c.717-.414,1.3-.078,1.3.754a2.9,2.9,0,0,1-1.3,2.263c-.722.414-1.306.078-1.306-.754a2.888,2.888,0,0,1,1.306-2.263Z" transform="translate(-220.249 -38.783)" fill="#fe0843"/>
      <path id="Path_48091" data-name="Path 48091" d="M317.236,52.882c.717-.414,1.306-.078,1.306.754a2.9,2.9,0,0,1-1.306,2.263c-.722.419-1.306.078-1.306-.754a2.888,2.888,0,0,1,1.306-2.263Z" transform="translate(-214.724 -41.964)" fill="#fe0843"/>
      <path id="Path_48092" data-name="Path 48092" d="M108.012,190.31l-1.628.92.621-1.191a.308.308,0,0,0,0-.294c-.046-.055-.129,0-.184.087l-.883,1.7h0a.357.357,0,0,0,0,.064h0a.628.628,0,0,0,0,.087.364.364,0,0,0,0,.078h0a.1.1,0,0,0,0,.037h0l.883.681a.083.083,0,0,0,.087,0,.336.336,0,0,0,.1-.129.3.3,0,0,0,0-.276l-.621-.46,1.628-.92a.345.345,0,0,0,.133-.281C108.145,190.31,108.085,190.273,108.012,190.31Z" transform="translate(-101.305 -115.968)" fill="#455a64" opacity="0.5"/>
      <path id="Path_48093" data-name="Path 48093" d="M113.258,187.189l1.628-.92-.621-.46c-.055-.041-.06-.166,0-.276s.129-.17.184-.129l.883.681h0a.092.092,0,0,1,.028.032h0a.188.188,0,0,1,0,.074.267.267,0,0,1,0,.087v.023a.387.387,0,0,1-.028.064h0l-.883,1.683a.244.244,0,0,1-.087.1.069.069,0,0,1-.1,0,.294.294,0,0,1,0-.294l.621-1.2-1.628.943c-.074.041-.129,0-.129-.129a.34.34,0,0,1,.129-.285Z" transform="translate(-105.19 -113.629)" fill="#455a64" opacity="0.5"/>
      <path id="Path_48094" data-name="Path 48094" d="M122.865,179.024c0-.1-.1-.083-.138.023l-.225.547c-.382-.041-.842.327-1.154.989a2.217,2.217,0,0,0,0,2.249.579.579,0,0,0,.736.046,2.005,2.005,0,0,0,.731-.888.281.281,0,0,0,0-.285c-.055-.051-.138,0-.189.106-.3.635-.791.92-1.09.63a1.648,1.648,0,0,1,0-1.683c.212-.46.52-.722.791-.736l-.17.409c-.041.106,0,.207.064.161l.667-.432a.225.225,0,0,0,.074-.184Z" transform="translate(-109.467 -110.155)" fill="#455a64" opacity="0.5"/>
      <path id="Path_48095" data-name="Path 48095" d="M161.731,147.652l.593-1.26a.386.386,0,0,0,0-.391c-.069-.064-.184,0-.253.147l-.593,1.255-.6-.57c-.069-.069-.184,0-.253.147a.386.386,0,0,0,0,.391l.593.57-.593,1.265a.386.386,0,0,0,0,.391.1.1,0,0,0,.129,0,.3.3,0,0,0,.124-.152l.6-1.26.593.575a.1.1,0,0,0,.124,0,.336.336,0,0,0,.129-.152.386.386,0,0,0,0-.391Z" transform="translate(-130.816 -92.34)" fill="#455a64" opacity="0.5"/>
      <path id="Path_48096" data-name="Path 48096" d="M129.73,114.531v-2.1a2.3,2.3,0,0,1,1.044-1.794l93.29-53.808c.575-.331,1.039-.064,1.039.6V59.5a2.3,2.3,0,0,1-1.039,1.8l-93.29,53.835C130.195,115.465,129.73,115.194,129.73,114.531Z" transform="translate(-114.156 -44.117)" fill="#fff"/>
      <path id="Path_48097" data-name="Path 48097" d="M331.036,62.711a.188.188,0,0,1-.074,0,.244.244,0,0,1-.129-.271l.1-.869h0l-.423-.3a.225.225,0,0,1-.092-.193.433.433,0,0,1,.156-.331l.607-.46a.138.138,0,0,0,.041-.069l.271-.892a.349.349,0,0,1,.271-.262.212.212,0,0,1,.2.12h0l.244.524.552-.212a.2.2,0,0,1,.23.051.34.34,0,0,1,0,.373l-.46.828a.189.189,0,0,0,0,.074l.106.75a.414.414,0,0,1-.12.336.235.235,0,0,1-.2.083l-.547-.069-.529.708A.267.267,0,0,1,331.036,62.711Zm-.35-1.688.423.3a.257.257,0,0,1,.087.248l-.051.717.46-.579a.271.271,0,0,1,.235-.115l.547.069a.171.171,0,0,0,0-.11l-.106-.75a.418.418,0,0,1,.051-.239l.46-.828-.506.193a.2.2,0,0,1-.262-.106l-.225-.46h0l-.271.892a.4.4,0,0,1-.138.207l-.607.46A.193.193,0,0,0,330.686,61.024Z" transform="translate(-222.55 -45.396)" fill="#e0e0e0"/>
      <g id="Group_31130" data-name="Group 31130" transform="translate(111.798 10.027)" opacity="0.5">
        <path id="Path_48098" data-name="Path 48098" d="M339.324,53.557a.359.359,0,0,1-.179-.671l2.916-1.683a.36.36,0,1,1,.363.621l-2.92,1.688A.359.359,0,0,1,339.324,53.557Z" transform="translate(-338.962 -51.153)" fill="#455a64"/>
        <path id="Path_48099" data-name="Path 48099" d="M339.326,57.24a.363.363,0,0,1-.313-.179.359.359,0,0,1,.133-.492l2.916-1.688a.363.363,0,0,1,.363.625l-2.92,1.683A.363.363,0,0,1,339.326,57.24Z" transform="translate(-338.963 -53.148)" fill="#455a64"/>
        <path id="Path_48100" data-name="Path 48100" d="M339.326,60.887a.363.363,0,0,1-.313-.179.354.354,0,0,1,.133-.487l2.916-1.688a.36.36,0,0,1,.363.621l-2.92,1.688A.358.358,0,0,1,339.326,60.887Z" transform="translate(-338.964 -55.112)" fill="#455a64"/>
      </g>
      <path id="Path_48101" data-name="Path 48101" d="M97.82,188.632v6.747l-1.95-1.127V187.51Z" transform="translate(-95.868 -114.773)" fill="#e0e0e0"/>
      <path id="Path_48102" data-name="Path 48102" d="M110.832,232.976l31.756-18.336v51.77L110.74,284.7Z" transform="translate(-103.9 -129.426)" fill="#fe0843" opacity="0.1"/>
      <path id="Path_48103" data-name="Path 48103" d="M193.584,181.717,231.893,159.6c.773-.46,1.38-.11,1.38.75a3.054,3.054,0,0,1-1.38,2.373L193.58,185.088c-.768.46-1.38.092-1.38-.8v-.161A3.091,3.091,0,0,1,193.584,181.717Z" transform="translate(-147.897 -99.59)" fill="#fe0843" opacity="0.15"/>
      <path id="Path_48104" data-name="Path 48104" d="M193.173,179.349l63.392-36.6c.552-.317,1-.092,1,.5a2.134,2.134,0,0,1-1,1.656l-63.392,36.6c-.547.317-.993.092-.993-.5A2.138,2.138,0,0,1,193.173,179.349Z" transform="translate(-147.886 -90.521)" fill="#fe0843" opacity="0.1"/>
      <path id="Path_48105" data-name="Path 48105" d="M193.173,188.769l63.392-36.6c.552-.317,1-.092,1,.5a2.134,2.134,0,0,1-1,1.656l-63.392,36.6c-.547.317-.993.092-.993-.506a2.138,2.138,0,0,1,.993-1.651Z" transform="translate(-147.886 -95.609)" fill="#fe0843" opacity="0.1"/>
      <path id="Path_48106" data-name="Path 48106" d="M193.173,198.18l63.392-36.6c.552-.317,1-.092,1,.506a2.134,2.134,0,0,1-1,1.651l-63.392,36.589c-.547.317-.993.092-.993-.506A2.148,2.148,0,0,1,193.173,198.18Z" transform="translate(-147.886 -100.691)" fill="#fe0843" opacity="0.1"/>
      <path id="Path_48107" data-name="Path 48107" d="M193.173,207.6,256.565,171c.552-.317,1-.092,1,.5a2.134,2.134,0,0,1-1,1.656l-63.392,36.6c-.547.317-.993.092-.993-.5A2.138,2.138,0,0,1,193.173,207.6Z" transform="translate(-147.886 -105.779)" fill="#fe0843" opacity="0.1"/>
      <path id="Path_48108" data-name="Path 48108" d="M193.173,229.755,237.406,204c.547-.317.993-.092.993.506a2.139,2.139,0,0,1-.993,1.651l-44.233,25.754c-.547.317-.993.092-.993-.506A2.138,2.138,0,0,1,193.173,229.755Z" transform="translate(-147.886 -123.603)" fill="#fe0843" opacity="0.1"/>
      <path id="Path_48109" data-name="Path 48109" d="M193.173,235.849l63.392-36.6c.552-.317,1-.092,1,.5a2.134,2.134,0,0,1-1,1.656l-63.392,36.6c-.547.317-.993.092-.993-.5A2.138,2.138,0,0,1,193.173,235.849Z" transform="translate(-147.886 -121.037)" fill="#fe0843" opacity="0.1"/>
      <path id="Path_48110" data-name="Path 48110" d="M193.173,245.269l63.392-36.6c.552-.317,1-.092,1,.5a2.134,2.134,0,0,1-1,1.656l-63.392,36.6c-.547.317-.993.092-.993-.506A2.138,2.138,0,0,1,193.173,245.269Z" transform="translate(-147.886 -126.125)" fill="#fe0843" opacity="0.1"/>
      <path id="Path_48111" data-name="Path 48111" d="M193.173,254.68l63.392-36.6c.552-.317,1-.092,1,.506a2.134,2.134,0,0,1-1,1.651l-63.392,36.6c-.547.317-.993.092-.993-.506A2.148,2.148,0,0,1,193.173,254.68Z" transform="translate(-147.886 -131.207)" fill="#fe0843" opacity="0.1"/>
      <path id="Path_48112" data-name="Path 48112" d="M193.179,291.116l23.3-13.594c.547-.317.993-.092.993.506a2.138,2.138,0,0,1-.993,1.651l-23.294,13.595c-.547.317-.993.092-.993-.5A2.138,2.138,0,0,1,193.179,291.116Z" transform="translate(-147.891 -163.311)" fill="#fe0843" opacity="0.1"/>
    </g>
    <g id="freepik--character-3--inject-32" transform="translate(171.528 85.753)">
      <path id="Path_48113" data-name="Path 48113" d="M363.608,229.273c3.371-10.936,6.65-18.143,3.307-20.373h0c-3.109.579-4.5,2.12-5.165,6.222-.694,4.3-2.138,10.3-2.98,13.755a40.931,40.931,0,0,1-3.1,8.356,1.771,1.771,0,0,1-.92.8,9.435,9.435,0,0,0-2.382,1.545c-.667.46-1.154.524-1.122.722a.874.874,0,0,0,1.039.644,6.312,6.312,0,0,0,1.449-.46,7.226,7.226,0,0,1-1.812,2.649c-1.633,1.38-1.38,2.727,1.237,2.884.92.055,3.113-.8,5.132-4.236a34.262,34.262,0,0,0,1.8-3.96C361.492,234.3,362.932,231.481,363.608,229.273Z" transform="translate(-350.893 -182.729)" fill="#ffa8a7"/>
      <path id="Path_48114" data-name="Path 48114" d="M378.11,208.617a5.772,5.772,0,0,0-4.167,1.6c-1.573,1.734-3.4,12.091-3.4,12.091s1.72,2.364,6.255,1.38Z" transform="translate(-361.504 -182.575)" fill="#fe0843"/>
      <path id="Path_48115" data-name="Path 48115" d="M378.11,208.617a5.772,5.772,0,0,0-4.167,1.6c-1.573,1.734-3.4,12.091-3.4,12.091s1.72,2.364,6.255,1.38Z" transform="translate(-361.504 -182.575)" opacity="0.3"/>
      <rect id="Rectangle_5416" data-name="Rectangle 5416" width="3.481" height="6.209" transform="translate(25.27 99.515)" fill="#ffa8a7"/>
      <path id="Path_48116" data-name="Path 48116" d="M382.866,359.947l-3.481.129-.175-6.572,3.656-.124Z" transform="translate(-366.187 -260.764)" fill="#ffa8a7"/>
      <path id="Path_48117" data-name="Path 48117" d="M392.885,251.451c0,3.463-.51,31.333-.51,31.333a22.77,22.77,0,0,1,.782,6.664c-.262,5.2-.616,18.856-.616,18.856a4.42,4.42,0,0,1-3.877.083s-3.293-18.925-3.914-24.08c-.547-4.493-1.472-19.633-1.472-19.633l-1.885,17.6a21.616,21.616,0,0,1,.432,5.767c-.166,2.382-1.283,14.795-1.283,14.795a4.6,4.6,0,0,1-4.019.317s-1.982-18.69-2.024-20.879c-.046-2.493,1.159-30.864,1.159-30.864Z" transform="translate(-363.642 -205.689)" fill="#37474f"/>
      <path id="Path_48118" data-name="Path 48118" d="M399.371,377.385v-.52c-.336.152-1.108,3.219-2.488,4.544-1.1,1.039-2.6,2.244-2.98,3.408s2.088,1.881,3.113,1.692c1.191-.221,3.261-1.095,3.776-1.909s.763-2.005,1.186-2.6,1.38-1.256,1.619-1.945a4.166,4.166,0,0,0-.2-1.9c-.2-.7-.336-1.347-.547-1.288v.4a2.677,2.677,0,0,1-1.738.616C400.6,377.891,399.367,377.785,399.371,377.385Z" transform="translate(-374.102 -273.446)" fill="#263238"/>
      <path id="Path_48119" data-name="Path 48119" d="M369.788,365.227c-.179,0-.327.271-.727.722a7.645,7.645,0,0,1-2.047,1.536c-1.306.681-3.84,1.725-4.99,2.263-.713.336-.681,1.237.06,1.752a6.451,6.451,0,0,0,4.677.382c1.168-.271,2.695-1.38,3.656-1.338s2.759.051,3.481-.46.428-1.6.225-2.539c-.221-1.021-.492-2.617-.819-2.548v.354c-.418.658-2.58.92-3.5.46Z" transform="translate(-356.627 -267.037)" fill="#263238"/>
      <path id="Path_48120" data-name="Path 48120" d="M387.9,276.857a12.763,12.763,0,0,1-4.847-2.9,9.937,9.937,0,0,0,3.716,3.523l-.593,15.719Z" transform="translate(-368.261 -217.869)" fill="#263238"/>
      <path id="Path_48121" data-name="Path 48121" d="M391.9,209.345s2.723.253,2.529,5.441l-.6,8.278v12.417c-2.562,2.9-13.912,2.686-17.8-.235,0,0,.437-14.684.7-20.337.189-4.015,1.113-6.038,5.059-6.48l4.852.212Z" transform="translate(-364.47 -182.475)" fill="#fe0843"/>
      <path id="Path_48122" data-name="Path 48122" d="M391.269,216.34l-.625,4.36-1.453-.028,1.642.262Z" transform="translate(-371.577 -186.748)" opacity="0.3"/>
      <path id="Path_48123" data-name="Path 48123" d="M389.414,178.659a5.3,5.3,0,0,1-5.183,5.4,5.386,5.386,0,0,1-5.188-5.4c-.225-5.275,2.322-5.4,5.188-5.4a5.3,5.3,0,0,1,5.183,5.4Z" transform="translate(-366.09 -163.48)" fill="#263238"/>
      <path id="Path_48124" data-name="Path 48124" d="M405.548,190.81a46.055,46.055,0,0,1-1.113,4.53,1.683,1.683,0,0,1-.975.819l.055-2.736Z" transform="translate(-379.285 -172.959)" fill="#263238"/>
      <path id="Path_48125" data-name="Path 48125" d="M405.277,178.681s.57-.143,1.177.8c.52.809.639,2.631-.179,4.769l-1.495.179Z" transform="translate(-379.998 -166.404)" fill="#263238"/>
      <path id="Path_48126" data-name="Path 48126" d="M391.255,181.627c.3.189.727-.414,1.1-.819a1.281,1.281,0,0,1,2.185.368,2.9,2.9,0,0,1-1.485,3.445c-1.642.538-1.886-.561-1.886-.561l-.129,6.163c-2.175,3.371-7.11,3.247-5.335-.161v-1.876a10.019,10.019,0,0,1-2.212.12,3.088,3.088,0,0,1-2.332-2.548c-.589-2.185-.809-3.946-.313-8.246.552-4.714,5.813-4.755,8.66-2.874S391.255,181.627,391.255,181.627Z" transform="translate(-366.923 -163.597)" fill="#ffa8a7"/>
      <path id="Path_48127" data-name="Path 48127" d="M397.859,205.567a7.887,7.887,0,0,1-2.129,2.672,6.015,6.015,0,0,1-2.58,1.095,5.717,5.717,0,0,1,1.84,2.047c.547,1.2,4.378-2.1,4.341-4.443,0,0-.6-2.35-1.426-2.5Z" transform="translate(-373.716 -180.32)" fill="#263238"/>
      <path id="Path_48128" data-name="Path 48128" d="M390.089,209.884s-1.182-.584-.653-2.548V205.46l-.52.069a4.567,4.567,0,0,0-1.242,2.157c-.12.538-.414,3.261.106,3.8S389.027,210.031,390.089,209.884Z" transform="translate(-370.655 -180.871)" fill="#263238"/>
      <path id="Path_48129" data-name="Path 48129" d="M387.487,174.254a.755.755,0,0,1,.4.023c.46.2.543,1.591.621,1.991.262,1.347.483,3.633.989,3.642.152,0,.727-.989,1.1-1.343.52-.492-.152-4.935-.152-4.935a2.166,2.166,0,0,0-.5-2.249,5.118,5.118,0,0,0-3.739-1.38,29.053,29.053,0,0,1-4.732-.313,12.541,12.541,0,0,0-1.485-.317.17.17,0,0,0-.133,0c-.051.041-.041.12-.028.184a4.941,4.941,0,0,0,.488,1.334,11.958,11.958,0,0,1-2.723-.538.262.262,0,0,0-.156,0c-.106.032-.124.17-.115.281a5.089,5.089,0,0,0,1.495,3.449,5.224,5.224,0,0,0,2.695.851A30.62,30.62,0,0,0,387.487,174.254Z" transform="translate(-365.169 -161.374)" fill="#263238"/>
      <path id="Path_48130" data-name="Path 48130" d="M405.729,177.319l1.817-1.016a.984.984,0,0,0-1.38-.46A1.154,1.154,0,0,0,405.729,177.319Z" transform="translate(-380.45 -164.807)" fill="#263238"/>
      <path id="Path_48131" data-name="Path 48131" d="M391.74,202.608a20.148,20.148,0,0,0,3.633-1.085,3.182,3.182,0,0,0,1.3-1.343,4.465,4.465,0,0,1-.74,1.582c-.685.92-4.194,1.591-4.194,1.591Z" transform="translate(-372.955 -178.02)" fill="#f28f8f"/>
      <path id="Path_48132" data-name="Path 48132" d="M393.149,188.989a.538.538,0,1,0,.538-.589.556.556,0,0,0-.538.589Z" transform="translate(-373.715 -171.657)" fill="#263238"/>
      <path id="Path_48133" data-name="Path 48133" d="M395,184.168l1.154.662a.736.736,0,0,0-.235-.947.63.63,0,0,0-.92.285Z" transform="translate(-374.715 -169.164)" fill="#263238"/>
      <path id="Path_48134" data-name="Path 48134" d="M390.823,198.12l-1.233.46a.644.644,0,0,0,.837.428A.727.727,0,0,0,390.823,198.12Z" transform="translate(-371.793 -176.907)" fill="#f28f8f"/>
      <path id="Path_48135" data-name="Path 48135" d="M382.227,184.36l1.053-.846a.621.621,0,0,0-.92-.143A.745.745,0,0,0,382.227,184.36Z" transform="translate(-367.747 -168.864)" fill="#263238"/>
      <path id="Path_48136" data-name="Path 48136" d="M383.389,188.639a.556.556,0,0,0,.538.579.584.584,0,1,0,0-1.168A.57.57,0,0,0,383.389,188.639Z" transform="translate(-368.444 -171.468)" fill="#263238"/>
      <path id="Path_48137" data-name="Path 48137" d="M387.321,188.35l-.064,3.408-1.936-.446Z" transform="translate(-369.487 -171.63)" fill="#f28f8f"/>
      <path id="Path_48138" data-name="Path 48138" d="M421.583,195.5c.777-1.03,2.35,1.256,3.077,2.833s.74,2.47.143,3.1-1.725.248-2.851-1.246A5.07,5.07,0,0,1,421.583,195.5Z" transform="translate(-388.854 -175.351)" fill="#fe0843"/>
      <path id="Path_48139" data-name="Path 48139" d="M421.583,195.5c.777-1.03,2.35,1.256,3.077,2.833s.74,2.47.143,3.1-1.725.248-2.851-1.246A5.07,5.07,0,0,1,421.583,195.5Z" transform="translate(-388.854 -175.351)" opacity="0.5"/>
      <path id="Path_48140" data-name="Path 48140" d="M420.7,172.444c-2.759,6.439-6.6,10.067-8.324,14.211-2.258-.152-4.019-5.611-2.336-7.942,0,0,6.613-7.161,7.211-9.975A48.291,48.291,0,0,0,418.433,160a1.467,1.467,0,0,0-.409-.92,7.934,7.934,0,0,1-1.141-2.171c-.345-.644-.727-.883-.616-1.03a.832.832,0,0,1,1.127-.083,4.4,4.4,0,0,1,.851.819,4.72,4.72,0,0,0-.391-2.419c-.768-1.738-.579-2.621,1.761-2.005,1.472.391,2.391,1.614,2.612,5.142a34.894,34.894,0,0,1,.028,4.41c-.258,2.718-.418,5.551-.754,7.818a11.8,11.8,0,0,1-.8,2.884Z" transform="translate(-382.475 -151.994)" fill="#ffa8a7"/>
      <path id="Path_48141" data-name="Path 48141" d="M408.806,202.428l5.831-6.668s-.694,1.623.823,3.992,2.419,1.955,2.419,1.955-3.445,5.027-4.364,6.71-1.881,3.1-1.881,3.1a1.108,1.108,0,0,1-1.09.593C409.689,212.114,407.422,208.315,408.806,202.428Z" transform="translate(-381.936 -175.632)" fill="#fe0843"/>
      <path id="Path_48142" data-name="Path 48142" d="M408.806,202.428l5.831-6.668s-.694,1.623.823,3.992,2.419,1.955,2.419,1.955-3.445,5.027-4.364,6.71-1.881,3.1-1.881,3.1a1.108,1.108,0,0,1-1.09.593C409.689,212.114,407.422,208.315,408.806,202.428Z" transform="translate(-381.936 -175.632)" opacity="0.3"/>
    </g>
    <g id="freepik--character-2--inject-32" transform="translate(120.526 101.379)">
      <path id="Path_48143" data-name="Path 48143" d="M301.71,242.85l2.746,3.656-2.953,3.38-3.8-4.447Z" transform="translate(-271.16 -216.691)" fill="#f28f8f"/>
      <path id="Path_48144" data-name="Path 48144" d="M286.87,224.77c2.4.11,3.537.46,4.792,1.959s7.528,10.564,7.528,10.564-1.108,3.109-3.537,2.842l-4.41-4.548Z" transform="translate(-265.311 -206.926)" fill="#3d94ce"/>
      <path id="Path_48145" data-name="Path 48145" d="M260.515,389.89a17.794,17.794,0,0,0-.276,2.888c-.032,1.748-.354,2.373-.4,3.808a4.145,4.145,0,0,0,.92,3.178c.685.92,2.414,1.761,3.155.2a6.221,6.221,0,0,0,.4-4.194c-.239-1.614-.276-2.585-.414-3.854-.129-1.122-.276-1.973-.276-1.973Z" transform="translate(-250.711 -296.108)" fill="#263238"/>
      <path id="Path_48146" data-name="Path 48146" d="M265.342,359.876l-5.772-.106c.087,3.854.7,10.265.8,13.875,0,.681,0,5.284.239,6.687.386,2.1,2.879,1.817,3.012.561s-.161-6.636-.152-7.193c-.023-2.3,1.062-8.361,1.633-12.523C265.13,360.952,265.314,360.051,265.342,359.876Z" transform="translate(-250.566 -279.84)" fill="#ffbda7"/>
      <path id="Path_48147" data-name="Path 48147" d="M289.66,383.38s-.294,0-.345.258-.069.745-.189,1.223a6.9,6.9,0,0,0-.2,2.3c.1.538,1.324,1.338,2.166,1.481a6.505,6.505,0,0,1,2.681,1.591,6.439,6.439,0,0,0,3.73,1.462,3.16,3.16,0,0,0,2.838-1.214c.46-.754-.419-.842-2.019-1.881l-1.246-.809c-2.534-1.656-3.463-2.543-4.18-4.2Z" transform="translate(-266.408 -292.592)" fill="#263238"/>
      <path id="Path_48148" data-name="Path 48148" d="M292.457,369.7c-.041-1.2.566-9.98.566-9.98l-4.962.561c1.177,7,1.269,9.386,1.136,10.407h0a.992.992,0,0,0-.032.29c0,1.38,1.541,2.1,2.759,3a10.775,10.775,0,0,0,3.113,1.945c.92.317,2.626.46,2.842-.124a38.379,38.379,0,0,1-4.6-3.84A2.892,2.892,0,0,1,292.457,369.7Z" transform="translate(-265.954 -279.813)" fill="#ffbda7"/>
      <path id="Path_48149" data-name="Path 48149" d="M260.614,272.345c-2.7,5.914.1,26.738.1,26.738-.083.961-1.182,2.847-1.587,7.073-.483,4.985.888,18.345.888,18.345a3.219,3.219,0,0,0,3.219.069s3.491-19.628,4.139-24.586c.547-4.332,1.6-13.852,1.6-13.852l2.98,13.824a25.678,25.678,0,0,0-.947,4.277c-.281,2.916,2.562,17.563,2.562,17.563a4.024,4.024,0,0,0,3.219-.064s1.255-18.92,1.522-22.434c.46-5.9-1.127-24.324-2.208-27.819Z" transform="translate(-250.272 -232.154)" fill="#fe0843"/>
      <path id="Path_48150" data-name="Path 48150" d="M260.614,272.345c-2.7,5.914.1,26.738.1,26.738-.083.961-1.182,2.847-1.587,7.073-.483,4.985.888,18.345.888,18.345a3.219,3.219,0,0,0,3.219.069s3.491-19.628,4.139-24.586c.547-4.332,1.6-13.852,1.6-13.852l2.98,13.824a25.678,25.678,0,0,0-.947,4.277c-.281,2.916,2.562,17.563,2.562,17.563a4.024,4.024,0,0,0,3.219-.064s1.255-18.92,1.522-22.434c.46-5.9-1.127-24.324-2.208-27.819Z" transform="translate(-250.272 -232.154)" opacity="0.5"/>
      <path id="Path_48151" data-name="Path 48151" d="M280.63,294.126l.878-5.491s3.716-.768,5.4-2.355a9.6,9.6,0,0,1-4.4,2.92l-.989,4.231,1.729,12.8Z" transform="translate(-261.941 -240.148)" opacity="0.2"/>
      <path id="Path_48152" data-name="Path 48152" d="M265.5,225.26l3.679.957v-7.786h0a2.715,2.715,0,0,0-3.679,2.621Z" transform="translate(-253.769 -203.434)" fill="#fe0843"/>
      <path id="Path_48153" data-name="Path 48153" d="M265.5,225.26l3.679.957v-7.786h0a2.715,2.715,0,0,0-3.679,2.621Z" transform="translate(-253.769 -203.434)" opacity="0.6"/>
      <path id="Path_48154" data-name="Path 48154" d="M271.411,202.08l-1.32-.028a7.471,7.471,0,0,1-7.133-7.763h0a8.167,8.167,0,0,1,7.929-8.319h0a8.125,8.125,0,0,1,7.988,8.232v.46A7.454,7.454,0,0,1,271.411,202.08Z" transform="translate(-252.395 -185.97)" fill="#fe0843"/>
      <path id="Path_48155" data-name="Path 48155" d="M271.411,202.08l-1.32-.028a7.471,7.471,0,0,1-7.133-7.763h0a8.167,8.167,0,0,1,7.929-8.319h0a8.125,8.125,0,0,1,7.988,8.232v.46A7.454,7.454,0,0,1,271.411,202.08Z" transform="translate(-252.395 -185.97)" opacity="0.6"/>
      <path id="Path_48156" data-name="Path 48156" d="M264.916,189.222a1,1,0,0,0-1.274-.717l.354,1.38a.919.919,0,0,0-.267-.23.98.98,0,0,0-1.38.46l1.794,1.053a1.09,1.09,0,0,0,.12-.584A1.136,1.136,0,0,0,264.916,189.222Z" transform="translate(-252.068 -187.313)" fill="#fe0843"/>
      <path id="Path_48157" data-name="Path 48157" d="M264.916,189.222a1,1,0,0,0-1.274-.717l.354,1.38a.919.919,0,0,0-.267-.23.98.98,0,0,0-1.38.46l1.794,1.053a1.09,1.09,0,0,0,.12-.584A1.136,1.136,0,0,0,264.916,189.222Z" transform="translate(-252.068 -187.313)" opacity="0.6"/>
      <path id="Path_48158" data-name="Path 48158" d="M266.163,224.92a33.852,33.852,0,0,0-3.679.708c1.426,3.5-.809,8.894-.809,8.894l2.111,6.5c-1.458,2.985-2.658,4.466-3.155,6.9,1.343,2.621,10.821,5.123,16.993.345a81.123,81.123,0,0,0-.984-10.5c2.019-3.941,1.692-5.1,1.279-6.475-.961-3.2-2.9-4.424-5.215-6.678l-1.38-.147Z" transform="translate(-251.139 -206.759)" fill="#58ace4"/>
      <path id="Path_48159" data-name="Path 48159" d="M264.014,247.61a7.363,7.363,0,0,1,3.573-1.508l-2.23-1.269-2.493-6.02a13.8,13.8,0,0,0,1.5-6.627l-1.435-.345a17.882,17.882,0,0,1-1.269,6.673l2.111,6.5c-1.458,2.985-2.658,4.466-3.155,6.9.92,1.794,5.652,3.532,10.527,2.916C264.617,254.384,262.915,248.746,264.014,247.61Z" transform="translate(-251.133 -210.745)" fill="#287ab1"/>
      <path id="Path_48160" data-name="Path 48160" d="M282.35,281.9l.267-.028A1.6,1.6,0,0,0,282.35,281.9Z" transform="translate(-262.87 -237.766)" fill="#e6e6e6"/>
      <path id="Path_48161" data-name="Path 48161" d="M278.364,194.83c.791.727,1.78,2.3,1.7,6.9-.069,3.909-1.279,4.879-1.89,5.16a6.189,6.189,0,0,1-2.93-.074v1.619s1.508,1.674,1.416,2.759-2.152,1.522-3.638.46a13.9,13.9,0,0,1-2.759-2.782v-4.916s-.671.685-1.84-.345c-.92-.855-1.269-2.3-.538-3.081a1.61,1.61,0,0,1,2.617.529,14.937,14.937,0,0,0,5.04-1.453A4.99,4.99,0,0,0,278.364,194.83Z" transform="translate(-254.846 -190.755)" fill="#ffbda7"/>
      <path id="Path_48162" data-name="Path 48162" d="M283.26,207.38a.46.46,0,1,1-.5-.46A.488.488,0,0,1,283.26,207.38Z" transform="translate(-262.864 -197.285)" fill="#263238"/>
      <path id="Path_48163" data-name="Path 48163" d="M284.7,215l1.228.4a.63.63,0,0,1-.8.46.708.708,0,0,1-.432-.86Z" transform="translate(-264.122 -201.649)" fill="#f79776"/>
      <path id="Path_48164" data-name="Path 48164" d="M292.688,203.147l-1.118-.382a.547.547,0,0,1,.713-.391A.653.653,0,0,1,292.688,203.147Z" transform="translate(-267.849 -194.813)" fill="#263238"/>
      <path id="Path_48165" data-name="Path 48165" d="M274.05,207.42v1.651a.777.777,0,0,0,.809-.791A.855.855,0,0,0,274.05,207.42Z" transform="translate(-258.387 -197.555)" fill="#fe0843"/>
      <path id="Path_48166" data-name="Path 48166" d="M274.05,207.42v1.651a.777.777,0,0,0,.809-.791A.855.855,0,0,0,274.05,207.42Z" transform="translate(-258.387 -197.555)" opacity="0.6"/>
      <path id="Path_48167" data-name="Path 48167" d="M291.922,207.006a.5.5,0,0,1-.46.538.51.51,0,1,1,.46-.538Z" transform="translate(-267.489 -197.072)" fill="#263238"/>
      <path id="Path_48168" data-name="Path 48168" d="M287.409,206.12l-.009,3.2,1.49-.492Z" transform="translate(-265.597 -196.853)" fill="#f79776"/>
      <path id="Path_48169" data-name="Path 48169" d="M279.548,218.689c-1.21-.156-3.679-.888-4.088-1.909a2.667,2.667,0,0,0,.878,1.3,12.674,12.674,0,0,0,3.219,1.38Z" transform="translate(-259.148 -202.611)" fill="#f79776"/>
      <path id="Path_48170" data-name="Path 48170" d="M247.246,261s2.953,4.194,3.458,4.742.855.363,1.4.12a15.528,15.528,0,0,1,2.051-.667c.92-.225,1.095.607.2,1.2-.644.432-1.38.616-1.076.97a6.838,6.838,0,0,0,2.152,1.32c2.18.86,2.01,1.292,1.61,2-.35.616-1.38,1.941-5.261.377a16.711,16.711,0,0,1-4.939-3.679c-1.541-1.706-3.946-4.764-3.946-4.764Z" transform="translate(-241.562 -226.494)" fill="#ffbda7"/>
      <path id="Path_48171" data-name="Path 48171" d="M251.9,226.67c-1.067.069-3.077.327-5.6,4.512-2.212,3.679-5.638,8.651-6.273,10.43-.258.722.745,2.217,2.037,3.748a6.382,6.382,0,0,0,4.2-2.272,8.2,8.2,0,0,0-.809-1.476l5.169-5.9A8.414,8.414,0,0,0,253,231.577C253.443,229.038,253.3,227.043,251.9,226.67Z" transform="translate(-239.992 -207.952)" fill="#489fd9"/>
      <path id="Path_48172" data-name="Path 48172" d="M309.733,243.93l-12.744,3.357L293.48,261.7l12.118-3.518Z" transform="translate(-268.881 -217.274)" fill="#fe0843"/>
      <path id="Path_48173" data-name="Path 48173" d="M309.733,243.93l-12.744,3.357L293.48,261.7l12.118-3.518Z" transform="translate(-268.881 -217.274)" opacity="0.25"/>
      <g id="Group_31131" data-name="Group 31131" transform="translate(35.094 36.865)" opacity="0.1">
        <path id="Path_48174" data-name="Path 48174" d="M316.3,266.13a2.516,2.516,0,0,0,2.382,1.426l.092-.317Z" transform="translate(-316.3 -266.13)"/>
      </g>
      <g id="Group_31132" data-name="Group 31132" transform="translate(31.585 28.253)" opacity="0.1">
        <path id="Path_48175" data-name="Path 48175" d="M314.1,248.1l.106-.487c.06-.267-.69-.281-1.669,0l-1.881.46c-.98.258-1.84.681-1.881.947l-.1.487Z" transform="translate(-308.67 -247.404)"/>
      </g>
      <path id="Path_48176" data-name="Path 48176" d="M314.806,244.168c.037-.17-.267-.216-.676-.1l-.745.207s.221-1.053-1.426-.685a2.594,2.594,0,0,0-2.014,1.564l-.791.225c-.46.124-.837.359-.888.524l-.1.3,6.567-1.729Z" transform="translate(-276.815 -217.048)" fill="#37474f"/>
      <path id="Path_48177" data-name="Path 48177" d="M315.537,245.822c-.6.147-.851.225-.92.639s-.147.819-.147.819l-2.9.768s.143-.6.189-.828-.055-.377-.52-.253l-.037-.184,4.553-1.164Z" transform="translate(-278.452 -218.187)" fill="#37474f"/>
      <path id="Path_48178" data-name="Path 48178" d="M314.477,248.186l.106-.487c.06-.267-.69-.281-1.669,0l-1.881.46c-.98.258-1.84.681-1.881.947l-.1.487Z" transform="translate(-277.291 -219.199)" fill="#37474f"/>
      <path id="Path_48179" data-name="Path 48179" d="M320.4,253.666s-.46,1.633-.584,2.019-1.541,1.09-2.474,1.347-1.964.561-1.518,1.872c.4,1.21,1.95,1.485,2.732,1.449a2.944,2.944,0,0,0,2.3-1.991c.538-1.545.248-3.192.46-4.093S320.869,253.128,320.4,253.666Z" transform="translate(-280.891 -222.379)" fill="#ffbda7"/>
    </g>
    <g id="freepik--character-1--inject-32" transform="translate(67.489 116.927)">
      <path id="Path_48180" data-name="Path 48180" d="M191.224,253.637c-1.748-1.761-2.373-1.076-2.594.855a8.581,8.581,0,0,1-.584,2.359,4.364,4.364,0,0,0-.326-1.164.851.851,0,0,0-1.039-.51c-.17.069.041.46,0,1.228a8.086,8.086,0,0,0-.12,2.5,1.642,1.642,0,0,1-.17,1.122c-.92,1.748-3.95,4.976-6.075,7.3l-8.071-7.289c-2.759-2.483-3.652-3.6-6.314-3.422a7.2,7.2,0,0,1,2.263,1.38c1.237,1.044.943,7.018.943,7.018s9.161,6.567,10.118,7.193c.138.092.281.175.419.253a2.263,2.263,0,0,0,2.759-.529c1.955-2.235,4.806-6.636,6.439-8.922a27.683,27.683,0,0,0,1.991-3.468C192.5,256.295,192.319,254.74,191.224,253.637Z" transform="translate(-146.954 -237.517)" fill="#914f4e"/>
      <path id="Path_48181" data-name="Path 48181" d="M166.55,260.913a4.6,4.6,0,0,1,3.679.92c1.573,1.2,8.278,7.358,8.278,7.358a5.968,5.968,0,0,1-3.219,5.2L167.07,268.6Z" transform="translate(-147.289 -241.955)" fill="#fe0843"/>
      <path id="Path_48182" data-name="Path 48182" d="M166.55,260.913a4.6,4.6,0,0,1,3.679.92c1.573,1.2,8.278,7.358,8.278,7.358a5.968,5.968,0,0,1-3.219,5.2L167.07,268.6Z" transform="translate(-147.289 -241.955)" opacity="0.3"/>
      <rect id="Rectangle_5417" data-name="Rectangle 5417" width="3.481" height="6.209" transform="translate(7.846 92.522)" fill="#914f4e"/>
      <path id="Path_48183" data-name="Path 48183" d="M167.98,412.522l3.481.124.175-6.572-3.656-.124Z" transform="translate(-148.061 -320.331)" fill="#914f4e"/>
      <path id="Path_48184" data-name="Path 48184" d="M140.309,304.016c0,3.463.51,31.337.51,31.337a22.7,22.7,0,0,0-.782,6.659c.262,5.2.616,18.856.616,18.856a4.429,4.429,0,0,0,3.877.078s3.293-18.925,3.918-24.076c.543-4.5,1.467-19.637,1.467-19.637l1.886,17.6a21.579,21.579,0,0,0-.432,5.762c.166,2.382,1.283,14.795,1.283,14.795a4.6,4.6,0,0,0,4.024.322s1.978-18.695,2.019-20.879c.046-2.493-1.159-30.868-1.159-30.868Z" transform="translate(-132.955 -265.251)" fill="#37474f"/>
      <path id="Path_48185" data-name="Path 48185" d="M144.306,429.951v-.515c.336.152,1.108,3.219,2.488,4.539,1.1,1.044,2.6,2.249,2.98,3.412s-2.088,1.876-3.113,1.688c-1.191-.221-3.261-1.095-3.776-1.9s-.763-2.01-1.187-2.6-1.38-1.256-1.619-1.945a4.6,4.6,0,0,1,.2-1.9c.161-.639.336-1.343.547-1.283v.4a2.7,2.7,0,0,0,1.743.612C143.074,430.461,144.311,430.356,144.306,429.951Z" transform="translate(-132.978 -333.014)" fill="#263238"/>
      <path id="Path_48186" data-name="Path 48186" d="M170.234,417.8c.179,0,.327.271.727.722a7.635,7.635,0,0,0,2.047,1.531c1.306.681,3.84,1.729,4.99,2.267.717.336.681,1.237-.06,1.748a6.494,6.494,0,0,1-4.677.386c-1.168-.276-2.695-1.38-3.679-1.338s-2.759.046-3.481-.46-.428-1.6-.225-2.539c.221-1.026.5-2.621.819-2.552v.354c.419.662,2.58.92,3.5.46Z" transform="translate(-146.798 -326.604)" fill="#263238"/>
      <path id="Path_48187" data-name="Path 48187" d="M161.55,329.427a12.763,12.763,0,0,0,4.847-2.9,9.937,9.937,0,0,1-3.716,3.523l.593,15.724Z" transform="translate(-144.588 -277.436)" fill="#263238"/>
      <path id="Path_48188" data-name="Path 48188" d="M141.618,261.925s-2.723.248-2.529,5.44l.6,8.278-.055,12.417c2.557,2.9,13.912,2.69,17.8-.235,0,0-.4-14.684-.662-20.337-.189-4.015-1.113-6.038-5.059-6.48l-4.856.212Z" transform="translate(-132.452 -242.048)" fill="#fe0843"/>
      <path id="Path_48189" data-name="Path 48189" d="M161.43,268.92l.625,4.36,1.458-.028-1.646.258Z" transform="translate(-144.524 -246.32)" opacity="0.3"/>
      <path id="Path_48190" data-name="Path 48190" d="M125.193,281.009c1.412-11.359,4.663-17.016,8.623-17.669l-.281,7.266a64.156,64.156,0,0,0-3.771,12.026,53.6,53.6,0,0,0-.966,10.044,1.784,1.784,0,0,0,.506,1.117,9.941,9.941,0,0,1,1.541,2.382c.414.7.837.952.727,1.122a.878.878,0,0,1-1.214.156,6.6,6.6,0,0,1-1.131-1.016,7.192,7.192,0,0,0,.57,3.159c.92,1.913.773,2.92-1.794,2.355-1.61-.35-2.759-2.047-3.219-6.006a34.68,34.68,0,0,1-.078-4.443C124.881,287.719,124.913,283.281,125.193,281.009Z" transform="translate(-124.668 -243.306)" fill="#914f4e"/>
      <path id="Path_48191" data-name="Path 48191" d="M135.053,262.93a5.288,5.288,0,0,0-5.427,3.219c-1.43,2.759-2.529,8.6-3.086,10.5a13.063,13.063,0,0,0,5.767,1.729l1.945-6.751S135.568,268.481,135.053,262.93Z" transform="translate(-125.679 -243.085)" fill="#fe0843"/>
      <path id="Path_48192" data-name="Path 48192" d="M135.053,262.93a5.288,5.288,0,0,0-5.427,3.219c-1.43,2.759-2.529,8.6-3.086,10.5a13.063,13.063,0,0,0,5.767,1.729l1.945-6.751S135.568,268.481,135.053,262.93Z" transform="translate(-125.679 -243.085)" opacity="0.3"/>
      <path id="Path_48193" data-name="Path 48193" d="M154.279,231.169a5.188,5.188,0,1,0,5.183-5.4A5.3,5.3,0,0,0,154.279,231.169Z" transform="translate(-140.661 -223.015)" fill="#263238"/>
      <path id="Path_48194" data-name="Path 48194" d="M147.11,243.38a46.047,46.047,0,0,0,1.113,4.53,1.7,1.7,0,0,0,.98.823l-.06-2.759Z" transform="translate(-136.789 -232.526)" fill="#263238"/>
      <path id="Path_48195" data-name="Path 48195" d="M147.415,231.254s-.589-.12-1.177.8c-.52.809-.635,2.631.179,4.769l1.495.179Z" transform="translate(-136.096 -225.974)" fill="#263238"/>
      <path id="Path_48196" data-name="Path 48196" d="M147.291,234.179c-.3.189-.727-.414-1.1-.814a1.277,1.277,0,0,0-2.18.368,2.891,2.891,0,0,0,1.481,3.44c1.642.538,1.886-.561,1.886-.561l.129,6.167c2.175,3.366,7.11,3.247,5.335-.166v-1.89a10.021,10.021,0,0,0,2.212.12,3.082,3.082,0,0,0,2.332-2.548c.589-2.185.809-3.946.313-8.241-.547-4.709-5.8-4.76-8.646-2.9S147.291,234.179,147.291,234.179Z" transform="translate(-135.025 -223.146)" fill="#914f4e"/>
      <path id="Path_48197" data-name="Path 48197" d="M150.021,258.137a7.888,7.888,0,0,0,2.129,2.672,6.085,6.085,0,0,0,2.58,1.1,5.73,5.73,0,0,0-1.84,2.042c-.543,1.2-4.378-2.1-4.341-4.438,0,0,.6-2.35,1.426-2.5Z" transform="translate(-137.567 -239.887)" fill="#263238"/>
      <path id="Path_48198" data-name="Path 48198" d="M162,262.443s1.182-.589.653-2.552V258l.52.069a4.567,4.567,0,0,1,1.242,2.157c.12.538.414,3.261-.106,3.8S163.058,262.6,162,262.443Z" transform="translate(-144.831 -240.422)" fill="#263238"/>
      <path id="Path_48199" data-name="Path 48199" d="M149.817,231.341c-.152,0-.727-.989-1.1-1.343-.52-.492.152-4.939.152-4.939a2.18,2.18,0,0,1,.5-2.249c.713-.814,1.9-.92,3.923-1.233a21.168,21.168,0,0,0,2.4-.437,14.1,14.1,0,0,0,2.4-1.168,1.2,1.2,0,0,1,.809-.184.786.786,0,0,1,.52.589,2.415,2.415,0,0,1,0,.814,1.32,1.32,0,0,1,1.863.064,1.9,1.9,0,0,1,.294,1.968,3.523,3.523,0,0,1-1.38,1.55c-2.543,1.72-5.546,1.242-8.4.92a.713.713,0,0,0-.4.028c-.46.2-.543,1.587-.621,1.987C150.544,229.041,150.323,231.332,149.817,231.341Z" transform="translate(-137.551 -219.779)" fill="#263238"/>
      <path id="Path_48200" data-name="Path 48200" d="M147.152,229.887l-1.812-1.016a.98.98,0,0,1,1.38-.46A1.154,1.154,0,0,1,147.152,229.887Z" transform="translate(-135.833 -224.372)" fill="#263238"/>
      <path id="Path_48201" data-name="Path 48201" d="M157.6,255.148a20.149,20.149,0,0,1-3.633-1.085,3.154,3.154,0,0,1-1.3-1.343,4.465,4.465,0,0,0,.74,1.582c.685.92,4.194,1.6,4.194,1.6Z" transform="translate(-139.792 -237.57)" fill="#783736"/>
      <path id="Path_48202" data-name="Path 48202" d="M160.016,241.263a.561.561,0,0,1-.538.584.57.57,0,0,1-.538-.589.538.538,0,1,1,1.076,0Z" transform="translate(-143.178 -231.089)" fill="#263238"/>
      <path id="Path_48203" data-name="Path 48203" d="M157.821,236.38l-1.154.662a.736.736,0,0,1,.267-.957.635.635,0,0,1,.888.294Z" transform="translate(-141.908 -228.543)" fill="#263238"/>
      <path id="Path_48204" data-name="Path 48204" d="M162.822,250.69l1.232.483a.639.639,0,0,1-.837.423A.727.727,0,0,1,162.822,250.69Z" transform="translate(-145.253 -236.474)" fill="#783736"/>
      <path id="Path_48205" data-name="Path 48205" d="M171.574,237.048l-1.214-.589a.621.621,0,0,1,.86-.345A.745.745,0,0,1,171.574,237.048Z" transform="translate(-149.347 -228.566)" fill="#263238"/>
      <path id="Path_48206" data-name="Path 48206" d="M170,241.219a.543.543,0,1,1-1.081,0,.556.556,0,0,1,.538-.579A.566.566,0,0,1,170,241.219Z" transform="translate(-148.566 -231.046)" fill="#263238"/>
      <path id="Path_48207" data-name="Path 48207" d="M164.62,240.99l.06,3.408,1.936-.441Z" transform="translate(-146.247 -231.235)" fill="#783736"/>
      <path id="Path_48208" data-name="Path 48208" d="M157.6,238.516a1.347,1.347,0,1,0,0,2.695h.244a1.347,1.347,0,1,0,0-2.695Zm-1.6,1.347a1.61,1.61,0,0,1,1.591-1.623h.248a1.623,1.623,0,0,1,0,3.219H157.6A1.605,1.605,0,0,1,156,239.863Z" transform="translate(-141.591 -229.75)" fill="#263238"/>
      <path id="Path_48209" data-name="Path 48209" d="M168.131,238.516a1.347,1.347,0,1,0,0,2.695h.244a1.347,1.347,0,1,0,0-2.695Zm-1.591,1.347a1.61,1.61,0,0,1,1.591-1.623h.244a1.623,1.623,0,0,1,0,3.219h-.244a1.605,1.605,0,0,1-1.582-1.6Z" transform="translate(-147.283 -229.75)" fill="#263238"/>
      <path id="Path_48210" data-name="Path 48210" d="M163.15,240.23a1.053,1.053,0,0,1,.842-.437.851.851,0,0,1,.731.285l.216-.166a1.085,1.085,0,0,0-.961-.391,1.3,1.3,0,0,0-1.058.566Z" transform="translate(-145.328 -230.438)" fill="#263238"/>
      <rect id="Rectangle_5418" data-name="Rectangle 5418" width="2.741" height="0.271" transform="translate(11.815 9.778)" fill="#263238"/>
    </g>
  </g>
</svg>
