<svg xmlns="http://www.w3.org/2000/svg" width="12.034" height="12.001" viewBox="0 0 12.034 12.001">
  <path id="ic_call_red" d="M18.323,21.216a4.854,4.854,0,0,1-2-.475,13.765,13.765,0,0,1-6.486-6.3,7.06,7.06,0,0,1-.541-1.482,3.222,3.222,0,0,1,1.323-3.467.949.949,0,0,1,1.538.27,18.605,18.605,0,0,1,1.333,2.069,1.291,1.291,0,0,1-.13,1.65,1.558,1.558,0,0,0,0,2.227,17.6,17.6,0,0,0,1.174,1.314,1.745,1.745,0,0,0,2.246.363,1.821,1.821,0,0,0,.326-.177,1.533,1.533,0,0,1,2.144.047A15.825,15.825,0,0,1,20.8,18.43a.978.978,0,0,1,.13,1.519A2.929,2.929,0,0,1,18.323,21.216Z" transform="translate(-9.199 -9.215)" fill="#ff3e6c"/>
</svg>
