<svg id="edit" xmlns="http://www.w3.org/2000/svg" width="13.863" height="13.863" viewBox="0 0 13.863 13.863">
  <path id="Path_25798" data-name="Path 25798" d="M11.712,15.6H2.89A1.892,1.892,0,0,1,1,13.712V4.89A1.892,1.892,0,0,1,2.89,3H6.255a.63.63,0,1,1,0,1.26H2.89a.631.631,0,0,0-.63.63v8.822a.631.631,0,0,0,.63.63h8.822a.631.631,0,0,0,.63-.63V10.347a.63.63,0,1,1,1.26,0v3.365A1.892,1.892,0,0,1,11.712,15.6Z" transform="translate(-1 -1.74)" fill="#ff3e6c"/>
  <path id="Path_25799" data-name="Path 25799" d="M13.931,1a.628.628,0,0,1,.446.185l2.52,2.52a.63.63,0,0,1,0,.891l-6.3,6.3a.63.63,0,0,1-.446.185H7.63a.63.63,0,0,1-.63-.63V7.931a.63.63,0,0,1,.185-.446l6.3-6.3A.628.628,0,0,1,13.931,1Z" transform="translate(-3.219 -1)" fill="#ff3e6c"/>
</svg>
