<svg xmlns="http://www.w3.org/2000/svg" width="335.637" height="185.615" viewBox="0 0 335.637 185.615">
  <g id="get_quote_image" transform="translate(0 0)">
    <g id="g12">
      <g id="g126" transform="translate(0 0)">
        <g id="Group_30940" data-name="Group 30940">
          <path id="path136" d="M483.077-243.555c3.353-2.343,6.827-4.819,8.756-8.426,1.788-3.342,3.99-6.933,4.938-10.6a30.686,30.686,0,0,1,4.907-10.183c6.946-9.649,10.921-6.552,12.2-5.04,1.258,1.485,1.263,3.559.135,6.411-.906,2.294-7.073,12.2-2.945,12.126,4.776-.082,9.445-11.191,11.672-14.6,3.331-5.1,8.145-10,14.022-12,2.9-.983,6.553-1.036,8.533,1.3a7.075,7.075,0,0,1,1.339,5.181c-.452,5.5-4.277,9.751-8.09,13.379-1.594,1.517-11.727,7.331-6.086,8.794a15.794,15.794,0,0,0,2.778-.212c4.384-.467,12.021-.935,9.98,5.885-.947,3.163-5.65,4.782-12.664,6.313-4.381.958-19.448,1.873-20.274,5.468s8.318,1.261,4.813,7.1c-1.964,3.27-7.605,3.784-11.263,3.746-1.741-.017-3.473-.381-5.21-.286-2.062.113-5.028,1.271-4.612,3.839.182,1.122,1.083,2.034,1.227,3.162a3.231,3.231,0,0,1-1.5,2.929,7.492,7.492,0,0,1-3.255,1.076c-7.326,1.029-14.82-1.552-20.9-5.769s-10.917-9.969-15.357-15.885l26.853-3.7" transform="translate(-230.216 397.493)" fill="#fee2e8"/>
          <path id="path138" d="M533.044-233.572q.482-.781.9-1.585,2.106-1.259,4.135-2.605.028.151.058.3a.455.455,0,0,0,.445.364.456.456,0,0,0,.091-.009.455.455,0,0,0,.355-.537c-.045-.22-.086-.445-.122-.671,3.446-2.325,6.713-4.8,9.776-7.333a.449.449,0,0,0-.121.2.455.455,0,0,0,.314.561l.232.064a119.183,119.183,0,0,1-16.066,11.248m16.93-11.966q-.431-.1-.85-.222a.45.45,0,0,0-.124-.017.456.456,0,0,0-.262.083c3.74-3.093,7.174-6.262,10.251-9.32a160.355,160.355,0,0,0,16.91-19.658c.173-.244.259-.37.259-.37a.455.455,0,0,1,.376-.2.454.454,0,0,1,.257.079.455.455,0,0,1,.117.632A154.745,154.745,0,0,1,561.5-256.251a156.551,156.551,0,0,1-11.522,10.714" transform="translate(-267.256 392.06)" fill="#fff6f8"/>
          <path id="path140" d="M572.668-217.475a35.567,35.567,0,0,1-9.125-1.04l-.232-.064a.455.455,0,0,1-.314-.561.449.449,0,0,1,.121-.2.584.584,0,0,1,.055-.045.456.456,0,0,1,.262-.083.449.449,0,0,1,.124.017q.419.118.85.222a35.942,35.942,0,0,0,8.261.848h.008a81.813,81.813,0,0,0,17.408-2.187c.26-.062.394-.1.394-.1a.467.467,0,0,1,.114-.014.454.454,0,0,1,.44.342.453.453,0,0,1-.327.553,82.85,82.85,0,0,1-18.037,2.314" transform="translate(-281.69 365.755)" fill="#fff6f8"/>
          <path id="path142" d="M542.99-231.4a.455.455,0,0,1-.445-.364q-.03-.149-.058-.3a19.64,19.64,0,0,1-.3-3.554c0-5,1.545-10.682,3.426-15.726a84.158,84.158,0,0,1,5.5-11.852h0a.453.453,0,0,1,.394-.228.458.458,0,0,1,.227.061.455.455,0,0,1,.167.621,83.335,83.335,0,0,0-5.431,11.716c-1.861,4.984-3.37,10.592-3.368,15.408a19.213,19.213,0,0,0,.221,3c.036.226.077.451.121.671a.455.455,0,0,1-.355.537.455.455,0,0,1-.091.009" transform="translate(-271.663 386.365)" fill="#fff6f8"/>
          <path id="path144" d="M541.635-185.149c-.467,0-.973-.01-1.516-.034a4.281,4.281,0,0,0-1.4-1c1.1.086,2.075.12,2.918.12a16.974,16.974,0,0,0,4.349-.418l.008,0h0a.46.46,0,0,1,.135-.021.455.455,0,0,1,.434.32.455.455,0,0,1-.3.57,17.185,17.185,0,0,1-4.627.463m-10.9-1.339q-1.8-.394-3.83-.938.347-.376.678-.76c2,.527,3.814.931,5.464,1.239a20.459,20.459,0,0,0-2.312.459" transform="translate(-264.297 350.087)" fill="#fff6f8"/>
          <path id="path146" d="M376.522-324.033c.557-3.353,1.1-6.854.084-10.1-.945-3-1.8-6.4-3.427-9.094a25.512,25.512,0,0,1-3.195-8.831c-1.694-9.733,2.455-10.294,4.1-10.175,1.613.116,2.847,1.318,3.885,3.646.836,1.872,3.133,11.287,5.489,8.8,2.727-2.885-1.157-12.113-1.887-15.416-1.092-4.942-1.208-10.65,1.024-15.3,1.1-2.292,3.193-4.493,5.728-4.315a5.88,5.88,0,0,1,3.855,2.216c3,3.463,3.3,8.205,3.244,12.578-.026,1.828-2.461,11.224,1.685,8.725.99-.6,7.011-11.095,10.783-4.279,1.328,2.4-.444,6.134-3.61,11.19-1.977,3.157-10.189,12.636-8.535,15.217.717,1.117,1.86.477,3.042-.162,1.547-.837,3.16-1.675,3.97,1.428.8,3.066-2.171,6.715-4.32,8.866-1.022,1.023-2.245,1.84-3.2,2.927-1.131,1.29-2.167,3.724-.4,4.969.773.543,1.837.539,2.591,1.108a2.687,2.687,0,0,1,.869,2.593,6.233,6.233,0,0,1-1.253,2.559c-3.646,4.948-9.533,7.9-15.569,9.057s-12.264.689-18.358-.112l13.407-18.1" transform="translate(-185.323 444.898)" fill="#fee2e8"/>
          <path id="path148" d="M401.617-313.98a.385.385,0,0,1-.142-.028.378.378,0,0,1-.207-.493q.824-2.025,1.517-4.1a.379.379,0,0,0,.032.284.378.378,0,0,0,.332.2.369.369,0,0,0,.18-.046l.13-.071q-.685,2.028-1.492,4.018a.377.377,0,0,1-.35.235m1.179-4.651a82.5,82.5,0,0,0,2.76-10.639c.07.048.142.095.213.14a.375.375,0,0,0,.2.061.379.379,0,0,0,.318-.173.377.377,0,0,0-.112-.522c-.157-.1-.314-.208-.469-.318.622-3.4,1.049-6.779,1.326-10.068a.381.381,0,0,0,.05.19.378.378,0,0,0,.328.19.379.379,0,0,0,.188-.05l.173-.1a94.165,94.165,0,0,1-3.968,20.633q-.411.23-.839.463a.375.375,0,0,0-.171.195m4.244-21.578c.305-3.635.427-7.156.427-10.464a134.187,134.187,0,0,0-1.838-22.434c-.052-.291-.081-.438-.081-.439a.378.378,0,0,1,.3-.444.371.371,0,0,1,.073-.007.378.378,0,0,1,.37.305,131.541,131.541,0,0,1,1.934,23.019c0,3.112-.107,6.414-.372,9.822q-.311.2-.625.376a.378.378,0,0,0-.185.266" transform="translate(-203.705 439.677)" fill="#fff6f8"/>
          <path id="path150" d="M412.811-324.275a.377.377,0,0,1-.328-.19.38.38,0,0,1-.05-.19.42.42,0,0,1,0-.059.378.378,0,0,1,.185-.267q.314-.18.625-.376a38,38,0,0,0,8.722-8.289,72.992,72.992,0,0,0,5.261-7.5c.206-.34.313-.527.314-.527a.377.377,0,0,1,.327-.189.374.374,0,0,1,.189.05.378.378,0,0,1,.139.516,70.882,70.882,0,0,1-4.553,6.731c-2.742,3.6-6.455,7.77-10.476,10.138l-.173.1a.38.38,0,0,1-.188.05" transform="translate(-209.102 424.183)" fill="#fff6f8"/>
          <path id="path152" d="M397.43-309.48a.375.375,0,0,1-.2-.061c-.071-.046-.142-.093-.213-.14-3.579-2.414-6.55-6.9-8.839-11.425a70.218,70.218,0,0,1-4.64-11.785h0a.378.378,0,0,1,.262-.466.374.374,0,0,1,.1-.014.378.378,0,0,1,.364.276,69.554,69.554,0,0,0,4.587,11.647c2.193,4.348,5.046,8.634,8.317,10.954.155.11.312.216.47.318a.377.377,0,0,1,.112.522.379.379,0,0,1-.318.173" transform="translate(-195.161 420.088)" fill="#fff6f8"/>
          <path id="path154" d="M404.574-277.635a.378.378,0,0,1-.332-.2.379.379,0,0,1-.032-.284.349.349,0,0,1,.012-.034.376.376,0,0,1,.171-.195q.428-.233.839-.463c10.83-6.054,13.467-10.79,13.59-11.019l0-.008h0a.376.376,0,0,1,.336-.206.384.384,0,0,1,.172.041.379.379,0,0,1,.164.509c-.038.076-2.716,5.24-14.615,11.738l-.13.071a.369.369,0,0,1-.18.046" transform="translate(-205.13 399.197)" fill="#fff6f8"/>
          <path id="path156" d="M402.117-251.792a17.951,17.951,0,0,1-2.613-.189.378.378,0,0,1-.319-.429.378.378,0,0,1,.374-.323.377.377,0,0,1,.055,0,17.175,17.175,0,0,0,2.5.181h.012a20.9,20.9,0,0,0,7.181-1.352q-.282.505-.545.993a21.385,21.385,0,0,1-6.647,1.114" transform="translate(-202.712 381.771)" fill="#cceef9"/>
          <path id="path158" d="M398.711-274.032c1.35-6.3,24.272-48.908,48.981-38.4,14.676,6.243,12.037,29.232-10.888,46.6,4.5-3.584,9.7-7.649,15.836-8.653a14.01,14.01,0,0,1,9.86,2.6c2.211,1.681,2.861,4.337,2.963,6.814.371,9.007-5.331,18.026-14.5,22.94,5.07-2.334,9.464-5.255,15.251-5.664,1.88-.133,5.068.754,5.937,2.133.948,1.5.882,7.128-10.281,11.331,45.5-7.108,48.152,8.867,31.8,8.867H385.582l13.13-48.573" transform="translate(-196.155 410.792)" fill="#fee2e8"/>
          <path id="path160" d="M191.637-336.45c-1-3.249-2.009-6.645-1.431-9.994.536-3.1.928-6.581,2.183-9.47a25.5,25.5,0,0,0,1.988-9.179c.38-9.871-3.806-9.873-5.417-9.537-1.583.331-2.646,1.687-3.365,4.132-.578,1.966-1.6,11.605-4.266,9.449-3.088-2.5-.469-12.158-.187-15.53.423-5.043-.224-10.715-3.056-15.025-1.4-2.124-3.764-4.026-6.252-3.511a5.876,5.876,0,0,0-3.525,2.71c-2.513,3.833-2.18,8.573-1.536,12.9.269,1.808,3.937,10.795-.506,8.87-1.061-.459-8.428-10.06-11.257-2.8-1,2.556,1.258,6.019,5.071,10.608,2.381,2.865,11.783,11.165,10.489,13.942-.559,1.2-1.772.724-3.025.249-1.648-.625-3.366-1.25-3.756,1.941-.384,3.146,3.049,6.365,5.465,8.21,1.15.878,2.47,1.524,3.559,2.475,1.293,1.128,2.645,3.4,1.06,4.871-.693.642-1.748.78-2.419,1.444a2.686,2.686,0,0,0-.515,2.685,6.216,6.216,0,0,0,1.584,2.37c4.274,4.418,10.5,6.556,16.638,6.9s12.246-.953,18.178-2.561l-15.7-16.146" transform="translate(-84.869 449.9)" fill="#fee2e8"/>
          <path id="path162" d="M198.257-333.708a97.673,97.673,0,0,1-5.286-16.8l.185.077a.374.374,0,0,0,.143.028.378.378,0,0,0,.349-.235.374.374,0,0,0,.023-.206c.714,3.226,1.589,6.524,2.66,9.811q-.209.2-.423.377a.378.378,0,0,0-.042.533.377.377,0,0,0,.288.133.377.377,0,0,0,.245-.09l.191-.167c.619,1.847,1.3,3.69,2.053,5.513-.132.34-.26.682-.387,1.029m-4.594-17.174a.377.377,0,0,0-.222-.251q-.335-.137-.67-.289a138.692,138.692,0,0,1-2.934-28.231c0-2.856.1-4.518.1-4.525a.377.377,0,0,1,.376-.355h.023a.378.378,0,0,1,.354.4s-.006.1-.015.3-.022.492-.035.875c-.026.766-.05,1.888-.05,3.307a137.448,137.448,0,0,0,3.071,28.77" transform="translate(-101.775 444.757)" fill="#fff6f8"/>
          <path id="path164" d="M180.181-332.992a.374.374,0,0,1-.143-.028l-.185-.077c-4.3-1.811-8.536-5.448-11.734-8.651a70.614,70.614,0,0,1-5.41-6.063.377.377,0,0,1,.068-.53.374.374,0,0,1,.231-.079.375.375,0,0,1,.3.147s.132.171.382.48.619.758,1.087,1.306c.936,1.1,2.275,2.6,3.878,4.2,3.033,3.044,7.026,6.468,11,8.272q.336.152.67.289a.377.377,0,0,1,.222.251c0,.012.006.023.008.036a.373.373,0,0,1-.023.206.378.378,0,0,1-.349.235" transform="translate(-88.657 427.345)" fill="#fff6f8"/>
          <path id="path166" d="M201.683-322.252a.377.377,0,0,1-.288-.133.378.378,0,0,1,.042-.533q.213-.181.423-.377c2.932-2.736,5.188-7.364,6.782-11.965a69.492,69.492,0,0,0,2.992-12.155h0a.377.377,0,0,1,.374-.325.346.346,0,0,1,.053,0,.378.378,0,0,1,.322.427,70.261,70.261,0,0,1-3.026,12.3c-1.665,4.785-4.012,9.633-7.236,12.5l-.191.167a.377.377,0,0,1-.245.09" transform="translate(-107.304 427.017)" fill="#fff6f8"/>
          <path id="path168" d="M191.911-289.171a52.164,52.164,0,0,1-8.673-4.614,62.209,62.209,0,0,0-4.5-4.326.381.381,0,0,1,.1-.1.375.375,0,0,1,.215-.067.377.377,0,0,1,.311.162l.006.008.026.035c.024.032.063.081.117.146.108.131.28.328.526.581a20.688,20.688,0,0,0,2.478,2.123,47.832,47.832,0,0,0,9.629,5.33c-.077.24-.153.483-.229.724" transform="translate(-96.421 403.17)" fill="#fff6f8"/>
          <path id="path170" d="M123.9-274.34c-1.349-6.3-24.271-48.907-48.98-38.4-14.677,6.243-12.038,29.232,10.888,46.6-4.5-3.586-9.7-7.649-15.836-8.654a14.007,14.007,0,0,0-9.861,2.605c-2.21,1.681-2.861,4.336-2.963,6.813-.371,9.008,5.331,18.026,14.5,22.94-5.07-2.333-9.464-5.255-15.251-5.664-1.88-.134-5.067.753-5.938,2.132-.947,1.5-.881,7.129,10.281,11.332-45.5-7.108-48.152,8.865-31.8,8.865H137.028L123.9-274.34" transform="translate(-19.781 410.94)" fill="#fcdae1"/>
          <path id="path172" d="M192.23-232.62c-3.02-1.559-6.154-3.213-8.142-5.97-1.841-2.553-4.053-5.267-5.239-8.184a25.48,25.48,0,0,0-5.167-7.842c-6.787-7.177-9.718-4.188-10.605-2.8-.871,1.362-.646,3.07.6,5.294,1,1.789,7.174,9.262,3.768,9.66-3.943.461-9.017-8.171-11.227-10.732-3.308-3.83-7.814-7.336-12.874-8.328-2.495-.489-5.51-.128-6.883,2.011a5.883,5.883,0,0,0-.53,4.415c.98,4.476,4.6,7.556,8.143,10.121,1.48,1.074,10.467,4.739,5.984,6.568-1.071.437-13.085-1.016-9.878,6.083,1.13,2.5,5.181,3.312,11.127,3.8,3.713.3,16.221-.61,17.3,2.259s-6.71,1.959-3.179,6.378c1.979,2.475,6.681,2.274,9.69,1.839,1.431-.207,2.817-.7,4.259-.813,1.71-.134,4.281.491,4.222,2.651-.026.944-.666,1.8-.661,2.739a2.686,2.686,0,0,0,1.558,2.247,6.226,6.226,0,0,0,2.8.525c6.147.037,12.032-2.917,16.57-7.062s7.886-9.417,10.888-14.781l-22.522-.076" transform="translate(-75.69 385.54)" fill="#fee2e8"/>
          <path id="path174" d="M171.725-231.183c-3.8-2.415-7.275-4.933-10.357-7.346a128.688,128.688,0,0,1-14.715-13.344.378.378,0,0,1,.027-.534.375.375,0,0,1,.253-.1.378.378,0,0,1,.28.124s.085.094.255.276.423.45.755.795c.664.689,1.645,1.683,2.908,2.9a141.262,141.262,0,0,0,10.7,9.287c2.958,2.318,6.285,4.731,9.9,7.054q-.008.447-.014.888" transform="translate(-80.906 381.098)" fill="#fff6f8"/>
          <path id="path176" d="M160.975-208a69.975,69.975,0,0,1-7.452-.379.379.379,0,0,1-.331-.42.379.379,0,0,1,.375-.333l.045,0s.193.023.554.058.886.082,1.544.129c1.315.093,3.158.187,5.265.187h.037c4.3,0,9.686-.4,13.908-1.955q0,.406-.008.805c-4.342,1.533-9.675,1.9-13.937,1.906" transform="translate(-84.105 360.947)" fill="#fff6f8"/>
          <path id="path178" d="M195.952-246.838c-.443-.628-.846-1.174-1.193-1.623h0a.377.377,0,0,1,.069-.53.374.374,0,0,1,.23-.079.377.377,0,0,1,.3.147c.22.286.463.61.723.967-.044.372-.087.746-.128,1.117" transform="translate(-104.11 379.442)" fill="#cceef9"/>
          <path id="path242" d="M471.921-409.053l-.014-.01.009-.013,2.474-.573h0l.024.016-.015.025-2.479.556" transform="translate(-237.778 456.867)" fill="#d9f3fb"/>
          <path id="path244" d="M465.856-407.715l1.262-.172h0l0,0,0,.006-1.263.162" transform="translate(-234.861 456.018)" fill="#d9f3fb"/>
          <path id="path252" d="M558.3-143.033h56.26a.345.345,0,0,0,.345-.345.345.345,0,0,0-.345-.345H558.3a.345.345,0,0,0-.345.345.345.345,0,0,0,.345.345" transform="translate(-279.265 328.648)" fill="#fe0843"/>
          <path id="path254" d="M473.716-143.033h33.362a.345.345,0,0,0,.345-.345.345.345,0,0,0-.345-.345H473.716a.345.345,0,0,0-.345.345.345.345,0,0,0,.345.345" transform="translate(-238.484 328.648)" fill="#fe0843"/>
          <path id="path256" d="M179.759-143.033H333.315a.345.345,0,0,0,.345-.345.345.345,0,0,0-.345-.345H179.759a.345.345,0,0,0-.345.345.345.345,0,0,0,.345.345" transform="translate(-96.75 328.648)" fill="#fe0843"/>
          <path id="path258" d="M113.962-143.033H138.9a.345.345,0,0,0,.345-.345.345.345,0,0,0-.345-.345H113.962a.345.345,0,0,0-.345.345.345.345,0,0,0,.345.345" transform="translate(-65.025 328.648)" fill="#fe0843"/>
          <path id="path260" d="M310.93-499.234h-1.237v-1.237a.361.361,0,0,0-.362-.361.361.361,0,0,0-.362.361v1.237h-1.237a.362.362,0,0,0-.362.362.362.362,0,0,0,.362.362h1.237v1.237a.362.362,0,0,0,.362.362.362.362,0,0,0,.362-.362v-1.237h1.237a.362.362,0,0,0,.362-.362.362.362,0,0,0-.362-.362" transform="translate(-158.445 500.832)" fill="#f8becc"/>
          <path id="path262" d="M512.346-278.441h-1.237v-1.237a.361.361,0,0,0-.361-.362.362.362,0,0,0-.362.362v1.237h-1.237a.362.362,0,0,0-.362.363.361.361,0,0,0,.362.361h1.237v1.237a.362.362,0,0,0,.362.361.361.361,0,0,0,.361-.361v-1.237h1.237a.362.362,0,0,0,.362-.361.363.363,0,0,0-.362-.363" transform="translate(-255.56 394.375)" fill="#f9b8c6"/>
          <path id="path264" d="M596.1-159.3H594.86v-1.237a.362.362,0,0,0-.362-.362.362.362,0,0,0-.362.362v1.237H592.9a.362.362,0,0,0-.362.361.362.362,0,0,0,.362.362h1.237v1.237a.362.362,0,0,0,.362.362.363.363,0,0,0,.362-.362v-1.237H596.1a.361.361,0,0,0,.361-.362.361.361,0,0,0-.361-.361" transform="translate(-295.941 336.928)" fill="#f9b8c6"/>
          <path id="path266" d="M128.027-425.116H126.79v-1.237a.362.362,0,0,0-.362-.362.362.362,0,0,0-.362.362v1.237H124.83a.361.361,0,0,0-.362.362.362.362,0,0,0,.362.362h1.237v1.237a.362.362,0,0,0,.362.362.362.362,0,0,0,.362-.362v-1.237h1.237a.362.362,0,0,0,.362-.362.361.361,0,0,0-.362-.362" transform="translate(-70.257 465.096)" fill="#f9b8c6"/>
          <path id="path268" d="M511.689-390.123h-1.237v-1.237a.362.362,0,0,0-.362-.362.362.362,0,0,0-.362.362v1.237h-1.237a.361.361,0,0,0-.362.362.362.362,0,0,0,.362.362h1.237v1.237a.362.362,0,0,0,.362.362.362.362,0,0,0,.362-.362V-389.4h1.237a.362.362,0,0,0,.362-.362.361.361,0,0,0-.362-.362" transform="translate(-255.244 448.223)" fill="#f9b8c6"/>
          <path id="path270" d="M399.321-430.649h-.345a.935.935,0,0,1-.934.934.936.936,0,0,1-.935-.934.936.936,0,0,1,.935-.934.935.935,0,0,1,.934.934h.69a1.624,1.624,0,0,0-1.625-1.625,1.625,1.625,0,0,0-1.625,1.625,1.625,1.625,0,0,0,1.625,1.625,1.624,1.624,0,0,0,1.625-1.625h-.345" transform="translate(-201.379 467.776)" fill="#f8becc"/>
          <path id="path272" d="M634.876-221.247h-.345a.937.937,0,0,1-.935.935.936.936,0,0,1-.934-.935.935.935,0,0,1,.934-.934.936.936,0,0,1,.935.934h.69a1.624,1.624,0,0,0-1.625-1.624,1.625,1.625,0,0,0-1.625,1.624,1.626,1.626,0,0,0,1.625,1.625,1.625,1.625,0,0,0,1.625-1.625h-.345" transform="translate(-314.955 366.81)" fill="#f9b8c6"/>
          <path id="path274" d="M220.652-408.6h-.345a.936.936,0,0,1-.934.934.936.936,0,0,1-.934-.934.935.935,0,0,1,.934-.934.935.935,0,0,1,.934.934H221a1.624,1.624,0,0,0-1.625-1.625,1.624,1.624,0,0,0-1.625,1.625,1.625,1.625,0,0,0,1.625,1.625A1.625,1.625,0,0,0,221-408.6h-.345" transform="translate(-115.232 457.145)" fill="#f8becc"/>
          <path id="path276" d="M137.233-172.54h-.345a.935.935,0,0,1-.934.934.935.935,0,0,1-.934-.934.935.935,0,0,1,.934-.934.935.935,0,0,1,.934.934h.69a1.625,1.625,0,0,0-1.625-1.625,1.625,1.625,0,0,0-1.625,1.625,1.625,1.625,0,0,0,1.625,1.625,1.624,1.624,0,0,0,1.625-1.625h-.345" transform="translate(-75.011 343.326)" fill="#fff6f8"/>
        </g>
      </g>
      <path id="path278" d="M297.591-262.251c-.007.3-.014.6-.021.891-.117,5.841-.435,10.191-.587,11.82l-.007.062a11.188,11.188,0,0,1-.255,1.54,17.744,17.744,0,0,1-4.1,7.553,21.266,21.266,0,0,1-9.4,6.138c-.145.048-.3.09-.476.131a22.538,22.538,0,0,1-3.183.5h-.014c-.939.1-2,.18-3.142.242-.78.041-1.6.083-2.444.11l-1.146.041H272.8c-2.085.062-4.35.083-6.711.083-6.249,0-13.181-.18-19.243-.387-.318-.014-.635-.014-.946,0-3.825.124-10.26.214-17.5.283h-.076c-1.9.021-3.846.041-5.821.048h-.035c-.1,0-.186,0-.276.007-.8.007-1.616.007-2.423.014h-.608c-3.528.021-7.077.041-10.453.055-6.628.021-12.117-4.6-12.532-10.529-.186-2.693-.331-5-.414-5.827-.559-5.779-3.369-48.49,9.825-67.381,5.62-8.037,15.936-11.344,25.933-12.49.608-.069,1.215-.131,1.816-.18a87.044,87.044,0,0,1,8.858-.324c.863.007,1.712.028,2.534.062.338.007.677.021,1.008.034.428.014.849.014,1.27,0,.7-.034,1.422-.062,2.168-.083a84.027,84.027,0,0,1,15.093.911,50.445,50.445,0,0,1,9.749,2.506c.518.193,1.029.394,1.533.615a26.361,26.361,0,0,1,11.613,8.948c6.131,8.776,8.8,22.7,9.853,35.676.235,2.858.387,5.675.483,8.382.034.932.055,1.844.076,2.748.055,2.776.055,5.406.021,7.8" transform="translate(-104.324 418.4)" fill="#4764b8"/>
      <path id="path280" d="M296.563-301.863c-6.629-11.336-21.747-12.467-31.512-11.874-9.764-.593-24.882.538-31.511,11.874-10.195,17.431-8.025,56.845-7.592,62.175a17.523,17.523,0,0,0,10.628,14.056c3.69,1.4,18.149-2.064,28.73-2.515,10.58.451,24.53,3.912,28.22,2.515a17.523,17.523,0,0,0,10.628-14.056c.434-5.33,2.6-44.744-7.591-62.175" transform="translate(-118.95 410.683)" fill="#3f5cb3"/>
      <path id="path282" d="M216.909-294.371a2.683,2.683,0,0,1-.949-.187,2.875,2.875,0,0,1-1.573-2.592c-.408-4.319,2.386-8.976,5.723-11.954a5.747,5.747,0,0,1,3.378-1.747,1.983,1.983,0,0,1,1.506.68c1.507,1.627-.776,3.859-1.693,5.2a24.96,24.96,0,0,0-3.32,7.047c-.41,1.393-1.292,3.552-3.072,3.552" transform="translate(-113.593 409.231)" fill="#5677c4"/>
      <path id="path284" d="M239.293-315.891a1.5,1.5,0,0,1-1-.4,1.119,1.119,0,0,1-.269-1.3c.629-1.694,2.881-2.816,5.075-3.2a5.727,5.727,0,0,1,.973-.093,1.605,1.605,0,0,1,1.607.758c.421.931-1.117,1.265-1.821,1.564a10.356,10.356,0,0,0-2.965,1.9,2.558,2.558,0,0,1-1.6.775" transform="translate(-124.963 414.069)" fill="#5677c4"/>
      <path id="path286" d="M305.814-142.938H241.519c0-.076.007-.152.007-.228h.608c.808-.007,1.623-.007,2.423-.014.09-.007.18-.007.276-.007h.021a9.021,9.021,0,0,0,1.608.169c0,.026,0,.052,0,.079h59.353" transform="translate(-126.694 328.389)" fill="#90c2cc"/>
      <path id="path288" d="M242.14-144.507h-.608a8.168,8.168,0,0,1,.213-1.461,14.585,14.585,0,0,0,2.581,1.287,3.653,3.653,0,0,0,.534.153h-.021c-.1,0-.186,0-.276.007-.8.007-1.616.007-2.423.014" transform="translate(-126.701 329.73)" fill="#3854ad"/>
      <path id="path290" d="M314.725-328.941l-.2-.032.2.032m-.247-.039-.177-.027.177.027m-.294-.045-.057-.008.057.008m-14.228-.82q1.052-.023,2.145-.023c-.728,0-1.444.008-2.145.023m2.155-.023h0" transform="translate(-154.87 418.4)" fill="#bdc7cb"/>
      <path id="path292" d="M220.981-266.8c-2.866,0-3.561-1.716-3.446-2.814l.007-.021c2.182-26.223,4.882-39.811,13.63-48.78,3.68-3.77,13.733-5.9,19.788-6.863a11.85,11.85,0,0,1,.856-2.5c.421-.8.808-1.505,1.174-2.071.863.007,1.712.028,2.534.062a10.429,10.429,0,0,1-.587,2.707c-.076.242-.145.463-.186.635a4.647,4.647,0,0,0-.138.643c.732-.1,1.153-.139,1.153-.139a4.848,4.848,0,0,0,.545-.138,9.692,9.692,0,0,1,3.086-2.52,7.423,7.423,0,0,0,.573-1.236l.24-.005c.7-.015,1.417-.023,2.145-.023h.01a82.087,82.087,0,0,1,12.016.835l.057.008.117.018.177.027.048.008.2.032.084.013a5.49,5.49,0,0,0,3.369,3.8,4.409,4.409,0,0,0-2.32-2.348,4.407,4.407,0,0,1,2.41,2.382c.124.048.249.1.38.145l-.006.064-15.5-.064-.564.912-1.539-1.382-.021-.021-.017-.015c.023-.041.048-.08.074-.12a4.138,4.138,0,0,1,1.4-1.291,4.155,4.155,0,0,0-1.439,1.267c-.026.037-.05.073-.073.111l-.278-.249-.028-.021-.214-.193s-.421.041-1.153.139q-.228.02-.5.061c-.7.09-1.595.214-2.631.38h-.007c-.173.021-.338.048-.518.083-6.055.967-16.108,3.093-19.788,6.863a31.33,31.33,0,0,0-4.992,6.748,20.288,20.288,0,0,0-1.4,2.091c-6.079,10.395-7.762,28.605-8.038,42.745-.245.021-.476.031-.7.031m58.206-58.074h-.258l-.027-.064.285.066" transform="translate(-115.124 418.4)" fill="#3854ad"/>
      <path id="path294" d="M238.759-216.085a9.03,9.03,0,0,1-1.608-.169,3.654,3.654,0,0,1-.534-.153,14.587,14.587,0,0,1-2.581-1.287v0a17.4,17.4,0,0,1,2.534-5.468c-7.754-.055-8.182-8.832-6.414-18.849a27.137,27.137,0,0,1-3.245-8.078,10.073,10.073,0,0,1-1.367.2h0c.276-14.14,1.958-32.35,8.038-42.745a20.266,20.266,0,0,1,1.4-2.091c-4.935,8.9-6.947,21.674-8.644,42.129a18.572,18.572,0,0,1,4.433-3.342l.048-.028c.067-.039.134-.076.2-.113h0c-.068.037-.135.074-.2.113.583,5.09,1.842,10.11,4.27,13.965-1.763,10.008-1.335,18.784,6.423,18.84h0s-2.669,3.693-2.753,7.079" transform="translate(-118.991 401.457)" fill="#2c4ba6"/>
      <path id="path296" d="M227.066-220.968c-.145,1.414,1.034,3.841,6.438,2.359s.969-10.357.969-10.357l-5.1,3.4-2.305,4.6" transform="translate(-119.72 369.749)" fill="#437ba1"/>
      <path id="path298" d="M255.008-244.566s-4.857-3.233-4.873-2.458c-.136,6.563-17.147,46.684-.531,46.8,10.779,1.306,57.2-.12,57.2-.12s-3.635-8.009-3.724-23.067c-.037-6.256-11.293-22.333-11.293-22.333l-36.775,1.173" transform="translate(-127.083 378.514)" fill="#58ace4"/>
      <path id="path300" d="M357.146-246.943S362.42-219.7,372.372-217.4c12.9,4.862,32.381-17.989,43.179-21.921,2.471-.9-3.493-11.6-6.579-9.383-6.471,4.648-16.025,7.277-27.2,14.121-.369-1.9-6.286-29.373-6.814-32.978-.749-5.12-17.815,20.616-17.815,20.616" transform="translate(-182.445 388.682)" fill="#ffcbcb"/>
      <path id="path302" d="M319.611-299.514s6.029,14.561-1.62,29.281c-3.764,9.169-4.181,16.906-1.582,30.518-18.923.159-49.592-8.36-49.592-8.36v-39.41l20.35-32.873,20.476.084,11.968,20.76" transform="translate(-138.892 413.815)" fill="#58ace4"/>
      <path id="path304" d="M345.266-320.359s11.264,2.5,14.261,5.176c9.624,8.586,12.911,27.459,15.969,46.541-4.056,2.377-22.074,6.41-28.179,5.341s1.4-48.412,1.4-48.412l-3.447-8.647" transform="translate(-176.551 413.815)" fill="#58ace4"/>
      <path id="path306" d="M364.449-282.037a31.289,31.289,0,0,1,2.486,10.239,37.736,37.736,0,0,1-.7,10.565,59.171,59.171,0,0,1-3.537,9.967,34.329,34.329,0,0,0-2.885,10.054,22.388,22.388,0,0,1,.734-5.227,50.871,50.871,0,0,1,1.657-5.022,64.341,64.341,0,0,0,3.358-9.916,39.362,39.362,0,0,0,.847-10.385,36.315,36.315,0,0,0-.61-5.2,33.487,33.487,0,0,0-1.349-5.075" transform="translate(-183.73 395.338)" fill="#437ba1"/>
      <path id="path308" d="M253.817-156.641s-2.71,3.751-2.755,7.157h64.293l-4.343-7.277-57.2.12" transform="translate(-131.295 334.935)" fill="#1b2344"/>
      <path id="path310" d="M399.364-203.537c-1.141,1.161-2.33,2.168-3.426,3.258a17.8,17.8,0,0,0-1.554,1.682,6.139,6.139,0,0,0-1.134,2,3.68,3.68,0,0,1,.513-2.409,8.039,8.039,0,0,1,1.511-1.955,11.881,11.881,0,0,1,1.909-1.511,9.576,9.576,0,0,1,2.181-1.069" transform="translate(-199.83 357.488)" fill="#f38897"/>
      <path id="path312" d="M447.937-234.351c7.991-6.766,4.915-7.9,12.351-11.455,3.75-1.779,2.713,1.63.258,4.1s-1.712,2.756,1.071,2.195,4.357-2.475,8.348-5.1c.6-.393,2.176-.149,1.654.516.8-.325,1.955.853,1.095,2.028.722-.238,1.2.936.351,2.406,1.01-.106.536,2.207-1.67,4.592-2.638,2.915-4.172,5.335-14.015,6.463-1.507.659-5.616-.559-6.171-.2-7.413,6.251-5.047-4.032-3.272-5.535" transform="translate(-225.344 378.107)" fill="#ffcbcb"/>
      <path id="path322" d="M236.547-264.139s-7.852,43.731,16.322,43.819c4.2.179,8.8-4.178,12.885-10.784l-3.5-5.039-9.684-11.836-16.025-16.16" transform="translate(-123.71 386.708)" fill="#ffcbcb"/>
      <path id="path324" d="M277.959-310.928s-3,5.53-6.842,12.414c-.186.324-.366.642-.552.974v.007c-6.124,10.916-14.092,24.635-15.784,25.243a32.121,32.121,0,0,0-9.349-.759l-.09.007c-.152.007-.3.021-.449.034l-.117.007a33.387,33.387,0,0,0-12.766,3.5l-.048.021c-.138.076-.269.145-.4.221l-.048.028a18.572,18.572,0,0,0-4.433,3.342c2.182-26.286,4.881-39.894,13.636-48.877,3.68-3.77,13.733-5.9,19.788-6.863.18-.035.345-.062.518-.083h.007c1.036-.166,1.933-.29,2.631-.38q.269-.041.5-.061c.732-.1,1.153-.139,1.153-.139l.214.193.028.021.331.3.021.021,7.457,6.7.38.345,4.219,3.791" transform="translate(-119.732 414.747)" fill="#58ace4"/>
      <path id="path326" d="M227.079-243.676a14.872,14.872,0,0,1,2.988-2.669,23.013,23.013,0,0,1,3.5-1.993,29.453,29.453,0,0,1,7.724-2.252,38.664,38.664,0,0,1,8.049-.34,51.471,51.471,0,0,1,7.98,1.073l-.409.32c.158-4.451.143-8.917.033-13.373-.06-2.227-.16-4.456-.345-6.677a57.926,57.926,0,0,0-.844-6.635,50.1,50.1,0,0,1,1.166,6.6c.264,2.223.412,4.456.536,6.689s.175,4.471.191,6.707,0,4.47-.057,6.711l-.011.4-.4-.082a55.365,55.365,0,0,0-7.877-1.1,40.832,40.832,0,0,0-7.933.245,29.051,29.051,0,0,0-7.661,2.03,19.569,19.569,0,0,0-6.623,4.343" transform="translate(-119.732 392.534)" fill="#437ba1"/>
      <path id="path328" d="M305.753-343.57s1.37,9.754-4.853,11.02c2.611,5.579,7.95,11.555,15.53,10.486s7.491-6.583,7.61-9.486c-3.03-1.023-4.848-3.611-3.947-9.546a62.291,62.291,0,0,1-14.34-2.473" transform="translate(-155.326 425.006)" fill="#f9bebe"/>
      <path id="path330" d="M361.882-378.427c-.65,5.206-4.759,8.979-9.18,8.428s-7.476-5.219-6.827-10.426,4.759-8.979,9.18-8.428,7.476,5.22,6.827,10.426" transform="translate(-176.969 446.866)" fill="#d52425"/>
      <path id="path332" d="M359.616-378.709c-.65,5.206-4.759,8.98-9.18,8.428s-7.476-5.219-6.826-10.425,4.759-8.98,9.179-8.428,7.476,5.219,6.827,10.425" transform="translate(-175.876 447.001)" fill="#ef302a"/>
      <path id="path334" d="M321.845-399.389c3.226-5.4,4.813-12,3.219-18.087-3.34-12.748-17.586-19.35-29.869-15.969a24.411,24.411,0,0,0-5.354,2.186q-1.02.565-1.989,1.219c-4.466,3.016-6.594,9.189-7.2,14.327-.789,6.725,1.3,16.946,8.053,20.249" transform="translate(-145.488 468.764)" fill="#1b2344"/>
      <path id="path336" d="M324.906-389.113s.247,21.775-20.446,18.677c-10.85-2.186-15.6-11.067-14.551-18.116-2.686-.775-5.209-8.933-5.209-8.933l5.52-7.687s3.206-5.41,4.217-5.293l11.283,1.311,19.186,20.042" transform="translate(-147.514 457.262)" fill="#ffcbcb"/>
      <path id="path338" d="M324.106-394.78s-17.509-2.591-22.993-16.612c-3.557,5.678-4.71,8.275-8.609,9.227-1.832-3.632-8.958.536-3.37,5.943-9.066-1.767-5.049-16.511-5.049-16.511l5.214-9.82,15.5-1.958s10.248-1.243,12.853,3.878,6.311,9.246,7.186,12.813c.777,3.171-.736,13.039-.736,13.039" transform="translate(-146.79 464.097)" fill="#1b2344"/>
      <path id="path340" d="M331.668-366.062c.19.992,1.527,1.481,1.275,2.6a1.888,1.888,0,0,1-1.625,1.248.085.085,0,0,1-.05-.159q1.324-.513.98-2.388a4.361,4.361,0,0,1-.443-.6,1.336,1.336,0,0,1-.195-.688l.059-.01" transform="translate(-169.945 435.851)" fill="#d5616e"/>
      <path id="path342" d="M345.54-376.889c1.505-.983,4.721-.924,5.185,1.231.03.137-.166.154-.219.051-.984-1.885-3.159-1.765-4.916-1.187l-.05-.1" transform="translate(-176.849 441.367)" fill="#16223c"/>
      <path id="path344" d="M316.844-379.976c-2.261-2.064-5.391-1.322-7.744.1-.1.059-.223-.09-.145-.176a5.966,5.966,0,0,1,8.026-.07c.077.082-.051.225-.137.147" transform="translate(-159.197 443.362)" fill="#16223c"/>
      <path id="path350" d="M347.832-371.446c-.068,1.251-.5,2.365-1.869,2.453a1.027,1.027,0,0,1-.944-.808c-.153-.74.273-1.1.355-1.786a1.232,1.232,0,0,1,2.458.141" transform="translate(-176.582 439.052)" fill="#16223c"/>
      <path id="path352" d="M348.819-369.792c-.018.329-.132.621-.491.643a.27.27,0,0,1-.248-.211c-.039-.194.073-.289.094-.468a.323.323,0,0,1,.645.036" transform="translate(-178.07 437.808)" fill="#fff"/>
      <path id="path354" d="M316.207-374.639c.039,1.446-.36,2.768-1.922,3a1.183,1.183,0,0,1-1.161-.841c-.244-.836.211-1.294.242-2.088a1.422,1.422,0,0,1,2.841-.068" transform="translate(-161.185 440.632)" fill="#16223c"/>
      <path id="path356" d="M317.334-372.718c.01.379-.094.726-.5.786a.311.311,0,0,1-.305-.22c-.064-.219.055-.34.064-.548a.373.373,0,0,1,.745-.017" transform="translate(-162.85 439.23)" fill="#fff"/>
      <path id="path358" d="M330.051-351.767c.038.882-1.364,4.751-4.524,4.894-2.65.12-6.792-3.019-5.586-5.832.679-1.028,10.071.055,10.11.938" transform="translate(-164.403 429.612)" fill="#873840"/>
      <path id="path360" d="M320.208-348.624a3.135,3.135,0,0,1,1.8-.592,8.842,8.842,0,0,1,4.243.7,6.41,6.41,0,0,1,2.452,2A4.161,4.161,0,0,1,325.759-345a6.587,6.587,0,0,1-5.551-3.625" transform="translate(-164.635 427.738)" fill="#d6959d"/>
      <path id="path362" d="M285.315-402.938a22.71,22.71,0,0,1,.844-8.449,22.079,22.079,0,0,1,1.573-4.047,20.129,20.129,0,0,1,2.365-3.712,20.147,20.147,0,0,1,3.151-3.152,19.723,19.723,0,0,1,3.83-2.324,18.774,18.774,0,0,1,4.23-1.409,22.891,22.891,0,0,1,4.373-.546,28.5,28.5,0,0,1,8.659,1,20.073,20.073,0,0,1,7.711,4.086,17.345,17.345,0,0,1,2.921,3.255,17.124,17.124,0,0,1,1.948,3.869,18.643,18.643,0,0,1,.864,8.386,20.443,20.443,0,0,0-1.836-7.988,16.242,16.242,0,0,0-5.018-6.135,19.215,19.215,0,0,0-7.174-3.247,25.272,25.272,0,0,0-7.923-.533,22.4,22.4,0,0,0-7.578,1.84,16.887,16.887,0,0,0-3.343,1.936,19.008,19.008,0,0,0-2.9,2.591,24.162,24.162,0,0,0-2.4,3.139,30.008,30.008,0,0,0-1.9,3.547,34.035,34.035,0,0,0-2.394,7.888" transform="translate(-147.764 465.032)" fill="#ef302a"/>
      <path id="path364" d="M285.268-365.98a6.147,6.147,0,0,0-.033.7,10.809,10.809,0,0,0,2.024,6.22c1.787,2.494,5.124,4.881,11.145,5.776l.142-.946c-5.835-.876-8.879-3.126-10.509-5.388a9.853,9.853,0,0,1-1.844-5.662c0-.191.007-.34.013-.44l.009-.11,0-.026v0l-.949-.119" transform="translate(-147.772 435.812)" fill="#1b2344"/>
      <path id="path366" d="M311.331-342.817c-.173.918-1.593,1.422-3.172,1.123s-2.718-1.283-2.546-2.2,1.594-1.421,3.172-1.124,2.719,1.284,2.546,2.2" transform="translate(-157.59 425.746)" fill="#1b2344"/>
      <path id="path368" d="M288.89-381.643c.039,5.247-3.539,9.527-7.993,9.56s-8.1-4.192-8.136-9.438,3.539-9.527,7.993-9.56,8.1,4.192,8.136,9.438" transform="translate(-141.757 447.915)" fill="#d52425"/>
      <path id="path370" d="M287.222-381.651c.039,5.246-3.539,9.526-7.993,9.56s-8.1-4.193-8.136-9.439,3.539-9.527,7.993-9.56,8.1,4.192,8.136,9.439" transform="translate(-140.953 447.919)" fill="#ef302a"/>
      <path id="path372" d="M287.023-378.452c.026,3.362-2.267,6.1-5.122,6.126s-5.188-2.687-5.214-6.048,2.268-6.1,5.122-6.126,5.188,2.686,5.213,6.048" transform="translate(-143.651 444.742)" fill="#d52425"/>
      <path id="path374" d="M302.62-442.721a10.7,10.7,0,0,0-1.35-8.051,7.1,7.1,0,0,0-2.365-2.408,9.654,9.654,0,0,0-5.521-.839,17.213,17.213,0,0,0-5.043.934,9.579,9.579,0,0,0-5.334,4.941,8.106,8.106,0,0,0,.278,7.188,7.035,7.035,0,0,0,6.156,3.543" transform="translate(-146.357 478.287)" fill="#1b2344"/>
      <path id="path376" d="M303.036-324.627a4.137,4.137,0,0,0-1.4,1.291,3.035,3.035,0,0,0-.435,1.827,20.681,20.681,0,0,0,.858,3.743c.691,2.477,1.456,4.933,2.225,7.388,1.524,4.913,3.117,9.806,4.73,14.692l4.869,14.648,4.958,14.619-.668.077,3.046-30,1.578-14.992.824-7.492.206-1.873a4.511,4.511,0,0,0-.035-1.85,4.291,4.291,0,0,0-2.435-2.692,4.331,4.331,0,0,1,2.515,2.669,4.626,4.626,0,0,1,.079,1.887l-.164,1.878-.659,7.509-1.387,15.01-2.884,30.009-.155,1.608-.513-1.531-4.9-14.642c-1.61-4.888-3.237-9.772-4.781-14.683s-3.086-9.821-4.551-14.757c-.715-2.472-1.427-4.947-2.065-7.442a20.68,20.68,0,0,1-.775-3.786,3.093,3.093,0,0,1,.487-1.855,4.155,4.155,0,0,1,1.439-1.267" transform="translate(-155.426 416.167)" fill="#16223c"/>
      <path id="path378" d="M276.735-243.467a85.117,85.117,0,0,0,7.083-19.747c2.247-10.129,1.906-14.393,2.517-22.908,0,0-8.519-9.436-10.392-1.789-3.256,13.3-15.205,25.367-16.942,34.395-2.339,12.153,17.745,10.509,17.745,10.509l-.011-.46" transform="translate(-135.031 399.611)" fill="#ffcbcb"/>
      <path id="path380" d="M301.063-323a13.3,13.3,0,0,1,2.82-3.435c1.612-1.554-.989-3.223-3.908-.435.56-.77,1.463-1.353,1.71-1.93,1.175-1.714-3.784-2.747-7.792,4.654a6.726,6.726,0,0,1,.037-3.546c.259-.985,1.246-3.368.487-4.414-.73-1.007-2.256,1.877-2.975,3.251a19.364,19.364,0,0,0-.842,11.836c1.314,5.826-1.575,13.8-1.575,13.8l4.65.5,4.506.886s2.509-.521,2.517-1c.088-.82.244-3.522.943-4.652,2.352-3.8,2.962-5.881,1.839-9.176s1.35-5.4,2.553-6.931c1.067-1.354-2.348-2.689-4.971.6" transform="translate(-149.599 419.58)" fill="#ffcbcb"/>
      <path id="path390" d="M258.656-221.864a10.264,10.264,0,0,1,.26-5.178,12.287,12.287,0,0,1,1.012-2.416,11.788,11.788,0,0,1,1.491-2.134c-.41.765-.818,1.518-1.159,2.3a18.658,18.658,0,0,0-.889,2.386,17.459,17.459,0,0,0-.548,2.484,14.813,14.813,0,0,0-.168,2.559" transform="translate(-134.849 371.015)" fill="#f38897"/>
      <path id="path392" d="M291.059-165.358c0-.035,0-.07,0-.106v-9.3c1.182.269,2.419.543,3.7.819v8.479c0,.033,0,.066,0,.1l-3.7.008" transform="translate(-150.58 343.613)" fill="#437ba1"/>
      <path id="path394" d="M294.761-190.229c-1.284-.276-2.521-.55-3.7-.819v-10.463c.367-.516.716-1.031,1.047-1.536.131-.007.207-.014.207-.014l.228-.014-.021-.621.09-.131c.069-.111.145-.228.221-.345l.076-.131-.055-.083q1.013-2.061,1.91-4.153v18.311" transform="translate(-150.58 359.9)" fill="#437ba1"/>
      <path id="path396" d="M299.051-152.385h-3.662a4.33,4.33,0,0,1-4.328-4.224l3.7-.008a4.329,4.329,0,0,0,4.294,4.232h-.005" transform="translate(-150.581 334.865)" fill="#19203c"/>
      <path id="path398" d="M291.058-197.42v-.9c.238-.007.445-.015.619-.023q-.31.472-.619.922" transform="translate(-150.58 354.983)" fill="#e28f96"/>
      <path id="path400" d="M291.058-221.263V-241.6a4.329,4.329,0,0,1,4.33-4.329h3.7a4.329,4.329,0,0,0-4.329,4.329v13.82q-1.1,2.663-2.394,5.283l-.062.124.035.055c-.041.069-.09.138-.131.207l-.145.228-.021.055.007.283-.09.007-.117.007-.069.1-.1.147c-.174.008-.382.017-.619.023" transform="translate(-150.58 377.928)" fill="#e28f96"/>
      <path id="path402" d="M291.058-202.64v-.826q.311-.451.619-.922l.1-.147.069-.1.117-.007.09-.007-.007-.283.021-.055.145-.228c.041-.069.09-.138.131-.207l-.035-.055.062-.124q1.29-2.618,2.394-5.283v1.212q-.9,2.09-1.911,4.153l.055.083-.076.131c-.076.117-.152.235-.221.345l-.09.131.021.621-.228.014s-.076.007-.207.014c-.331.505-.68,1.02-1.047,1.536" transform="translate(-150.58 361.029)" fill="#da7986"/>
      <path id="path404" d="M296.454-145.553h-3.7a.873.873,0,0,1-.873-.873v-1.147a.872.872,0,0,1,.873-.873h3.7a.872.872,0,0,0-.873.873v1.147a.873.873,0,0,0,.873.873" transform="translate(-150.976 330.925)" fill="#19203c"/>
      <path id="path406" d="M304.251-148.445h0" transform="translate(-155.781 330.925)" fill="#19203c"/>
      <path id="path408" d="M370.967-195.448H302.538a4.33,4.33,0,0,1-4.329-4.33V-241.6a4.329,4.329,0,0,1,4.329-4.329h68.429a4.329,4.329,0,0,1,4.33,4.329v41.822a4.33,4.33,0,0,1-4.33,4.33" transform="translate(-154.027 377.928)" fill="#fe0843"/>
      <path id="path410" d="M374.394-145.553H299.9a.873.873,0,0,1-.873-.873v-1.147a.872.872,0,0,1,.873-.873h74.493a.872.872,0,0,1,.873.873v1.147a.873.873,0,0,1-.873.873" transform="translate(-154.423 330.925)" fill="#cf0535"/>
      <path id="path418" d="M438.948-148.455h-.86c.1,0,.206,0,.307-.01l.553.01" transform="translate(-221.149 330.935)" fill="#86a2ab"/>
      <path id="path420" d="M306.531-148.445h0" transform="translate(-158.021 330.925)" fill="#161a28"/>
      <path id="path422" d="M306.531-148.445h0" transform="translate(-158.021 330.925)" fill="#161a28"/>
      <path id="path424" d="M374.966-148.763H306.5c5.776-.141,11.551-.207,17.327-.262l17.332-.079,17.332.079,8.667.1,8.113.157c-.1.007-.2.01-.307.01" transform="translate(-158.026 331.243)" fill="#96251f"/>
      <path id="path426" d="M341.156-148.1l-17.332-.08c-5.778-.055-11.555-.121-17.332-.262h69.329l-8.666.168-8.666.1-17.332.079" transform="translate(-158.021 330.925)" fill="#96251f"/>
      <path id="path428" d="M427.675-273.246c-.444-1.474-.787-2.965-1.094-4.46s-.568-3-.811-4.5c-.223-1.509-.434-3.019-.585-4.539s-.278-3.044-.3-4.584c.445,1.475.788,2.965,1.1,4.46s.568,3,.809,4.5c.222,1.509.433,3.019.583,4.54s.278,3.044.3,4.583" transform="translate(-215.107 399.82)" fill="#fe0843"/>
      <path id="path430" d="M447.968-278.039a3.15,3.15,0,0,1-.137-1.09,4.417,4.417,0,0,1,.142-1.018,4.357,4.357,0,0,1,.362-.962,3.121,3.121,0,0,1,.645-.89,3.137,3.137,0,0,1,.139,1.09,4.38,4.38,0,0,1-.144,1.018,4.411,4.411,0,0,1-.365.961,3.143,3.143,0,0,1-.643.891" transform="translate(-226.168 395.319)" fill="#fe0843"/>
      <path id="path432" d="M442.921-261.116a13.1,13.1,0,0,1,.172-2.3,21.589,21.589,0,0,1,.451-2.227,21.247,21.247,0,0,1,.672-2.171,12.876,12.876,0,0,1,.954-2.1,13.013,13.013,0,0,1-.17,2.3,21.368,21.368,0,0,1-.452,2.227,21.636,21.636,0,0,1-.674,2.17,12.979,12.979,0,0,1-.952,2.1" transform="translate(-223.801 389.49)" fill="#fe0843"/>
      <path id="path434" d="M454.12-262.861c1.136-1.309,2.341-2.543,3.57-3.75s2.49-2.379,3.762-3.538c1.286-1.143,2.58-2.277,3.915-3.367s2.686-2.16,4.11-3.151c-1.136,1.31-2.34,2.545-3.569,3.752s-2.49,2.379-3.764,3.536-2.581,2.277-3.916,3.366-2.686,2.161-4.109,3.151" transform="translate(-229.202 392.748)" fill="#fe0843"/>
      <path id="path436" d="M456.37-315.249l-31.9-9.008a2.263,2.263,0,0,1-1.563-2.794l5.977-21.166a2.264,2.264,0,0,1,2.794-1.564l31.9,9.009a2.263,2.263,0,0,1,1.564,2.794l-5.977,21.166a2.263,2.263,0,0,1-2.794,1.563" transform="translate(-214.11 428.043)" fill="#fe0843"/>
      <path id="path438" d="M437.388-348.486c1.1,1.788,2.153,3.6,3.23,5.4l3.145,5.451c2.1,3.635,4.128,7.3,6.16,10.975l-.634-.179,5.479-3.092c1.836-1.014,3.659-2.051,5.508-3.043l5.531-3c1.861-.971,3.7-1.97,5.579-2.917-1.77,1.129-3.57,2.205-5.354,3.311l-5.4,3.226c-1.8,1.083-3.618,2.123-5.426,3.184l-5.455,3.135-.407.235-.227-.414c-2.011-3.681-4.022-7.363-5.97-11.078l-2.919-5.576c-.944-1.875-1.915-3.734-2.835-5.622" transform="translate(-221.134 427.377)" fill="#c40432"/>
      <path id="path440" d="M423.924-312.742a71.7,71.7,0,0,1,6.971-5.129,70.878,70.878,0,0,1,7.479-4.357A70.914,70.914,0,0,1,431.4-317.1a71.808,71.808,0,0,1-7.479,4.356" transform="translate(-214.643 414.716)" fill="#c40432"/>
      <path id="path442" d="M484.463-299.481a72.311,72.311,0,0,1-4.106-7.646,71.427,71.427,0,0,1-3.269-8.04,71.408,71.408,0,0,1,4.106,7.646,72.308,72.308,0,0,1,3.269,8.04" transform="translate(-240.276 411.312)" fill="#c40432"/>
      <path id="Path_33347" data-name="Path 33347" d="M20.264,9.6a2.961,2.961,0,0,1-.651,2.183,2.663,2.663,0,0,1-2.062,1.052,2.738,2.738,0,0,1,.669-2.129A3.158,3.158,0,0,1,20.264,9.6Zm2.354,11.5a9.716,9.716,0,0,0,.868-1.63,2.964,2.964,0,0,1-.389-5.355,3.4,3.4,0,0,0-2.569-1.364,3.925,3.925,0,0,0-1.519.328,2.812,2.812,0,0,1-1.036.249,3.387,3.387,0,0,1-1.158-.267,3.989,3.989,0,0,0-1.405-.308,3.488,3.488,0,0,0-2.807,1.7c-.972,1.508-.806,4.343.77,6.757.564.864,1.316,1.835,2.3,1.844a2.131,2.131,0,0,0,.975-.25,2.946,2.946,0,0,1,1.337-.319,2.776,2.776,0,0,1,1.33.316,2.038,2.038,0,0,0,.958.251C21.26,23.037,22.054,21.961,22.618,21.1Z" transform="translate(165.392 141.239)" fill="#fff" fill-rule="evenodd" opacity="0.65"/>
    </g>
  </g>
</svg>
