<svg xmlns="http://www.w3.org/2000/svg" xmlns:xlink="http://www.w3.org/1999/xlink" width="112" height="157" viewBox="0 0 112 157">
  <defs>
    <clipPath id="clip-path">
      <rect width="112" height="157" fill="none"/>
    </clipPath>
  </defs>
  <g id="graphic_about" opacity="0.19" clip-path="url(#clip-path)">
    <g transform="translate(-366 -504)">
      <circle id="Ellipse_1488" data-name="Ellipse 1488" cx="4" cy="4" r="4" transform="translate(366 504)" fill="#fe0843"/>
    </g>
    <g transform="translate(-353 -504)">
      <circle id="Ellipse_1488-2" data-name="Ellipse 1488" cx="4" cy="4" r="4" transform="translate(366 504)" fill="#fe0843"/>
    </g>
    <g transform="translate(-340 -504)">
      <circle id="Ellipse_1488-3" data-name="Ellipse 1488" cx="4" cy="4" r="4" transform="translate(366 504)" fill="#fe0843"/>
    </g>
    <g transform="translate(-327 -504)">
      <circle id="Ellipse_1488-4" data-name="Ellipse 1488" cx="4" cy="4" r="4" transform="translate(366 504)" fill="#fe0843"/>
    </g>
    <g transform="translate(-314 -504)">
      <circle id="Ellipse_1488-5" data-name="Ellipse 1488" cx="4" cy="4" r="4" transform="translate(366 504)" fill="#fe0843"/>
    </g>
    <g transform="translate(-301 -504)">
      <circle id="Ellipse_1488-6" data-name="Ellipse 1488" cx="4" cy="4" r="4" transform="translate(366 504)" fill="#fe0843"/>
    </g>
    <g transform="translate(-288 -504)">
      <circle id="Ellipse_1488-7" data-name="Ellipse 1488" cx="4" cy="4" r="4" transform="translate(366 504)" fill="#fe0843"/>
    </g>
    <g transform="translate(-275 -504)">
      <circle id="Ellipse_1488-8" data-name="Ellipse 1488" cx="4" cy="4" r="4" transform="translate(366 504)" fill="#fe0843"/>
    </g>
    <g transform="translate(-262 -504)">
      <circle id="Ellipse_1488-9" data-name="Ellipse 1488" cx="4" cy="4" r="4" transform="translate(366 504)" fill="#fe0843"/>
    </g>
    <g transform="translate(-366 -489)">
      <circle id="Ellipse_1488-10" data-name="Ellipse 1488" cx="4" cy="4" r="4" transform="translate(366 504)" fill="#fe0843"/>
    </g>
    <g transform="translate(-353 -489)">
      <circle id="Ellipse_1488-11" data-name="Ellipse 1488" cx="4" cy="4" r="4" transform="translate(366 504)" fill="#fe0843"/>
    </g>
    <g transform="translate(-340 -489)">
      <circle id="Ellipse_1488-12" data-name="Ellipse 1488" cx="4" cy="4" r="4" transform="translate(366 504)" fill="#fe0843"/>
    </g>
    <g transform="translate(-327 -489)">
      <circle id="Ellipse_1488-13" data-name="Ellipse 1488" cx="4" cy="4" r="4" transform="translate(366 504)" fill="#fe0843"/>
    </g>
    <g transform="translate(-314 -489)">
      <circle id="Ellipse_1488-14" data-name="Ellipse 1488" cx="4" cy="4" r="4" transform="translate(366 504)" fill="#fe0843"/>
    </g>
    <g transform="translate(-301 -489)">
      <circle id="Ellipse_1488-15" data-name="Ellipse 1488" cx="4" cy="4" r="4" transform="translate(366 504)" fill="#fe0843"/>
    </g>
    <g transform="translate(-288 -489)">
      <circle id="Ellipse_1488-16" data-name="Ellipse 1488" cx="4" cy="4" r="4" transform="translate(366 504)" fill="#fe0843"/>
    </g>
    <g transform="translate(-275 -489)">
      <circle id="Ellipse_1488-17" data-name="Ellipse 1488" cx="4" cy="4" r="4" transform="translate(366 504)" fill="#fe0843"/>
    </g>
    <g transform="translate(-262 -489)">
      <circle id="Ellipse_1488-18" data-name="Ellipse 1488" cx="4" cy="4" r="4" transform="translate(366 504)" fill="#fe0843"/>
    </g>
    <g transform="translate(-366 -474)">
      <circle id="Ellipse_1488-19" data-name="Ellipse 1488" cx="4" cy="4" r="4" transform="translate(366 504)" fill="#fe0843"/>
    </g>
    <g transform="translate(-353 -474)">
      <circle id="Ellipse_1488-20" data-name="Ellipse 1488" cx="4" cy="4" r="4" transform="translate(366 504)" fill="#fe0843"/>
    </g>
    <g transform="translate(-340 -474)">
      <circle id="Ellipse_1488-21" data-name="Ellipse 1488" cx="4" cy="4" r="4" transform="translate(366 504)" fill="#fe0843"/>
    </g>
    <g transform="translate(-327 -474)">
      <circle id="Ellipse_1488-22" data-name="Ellipse 1488" cx="4" cy="4" r="4" transform="translate(366 504)" fill="#fe0843"/>
    </g>
    <g transform="translate(-314 -474)">
      <circle id="Ellipse_1488-23" data-name="Ellipse 1488" cx="4" cy="4" r="4" transform="translate(366 504)" fill="#fe0843"/>
    </g>
    <g transform="translate(-301 -474)">
      <circle id="Ellipse_1488-24" data-name="Ellipse 1488" cx="4" cy="4" r="4" transform="translate(366 504)" fill="#fe0843"/>
    </g>
    <g transform="translate(-288 -474)">
      <circle id="Ellipse_1488-25" data-name="Ellipse 1488" cx="4" cy="4" r="4" transform="translate(366 504)" fill="#fe0843"/>
    </g>
    <g transform="translate(-275 -474)">
      <circle id="Ellipse_1488-26" data-name="Ellipse 1488" cx="4" cy="4" r="4" transform="translate(366 504)" fill="#fe0843"/>
    </g>
    <g transform="translate(-262 -474)">
      <circle id="Ellipse_1488-27" data-name="Ellipse 1488" cx="4" cy="4" r="4" transform="translate(366 504)" fill="#fe0843"/>
    </g>
    <g transform="translate(-366 -459)">
      <circle id="Ellipse_1488-28" data-name="Ellipse 1488" cx="4" cy="4" r="4" transform="translate(366 504)" fill="#fe0843"/>
    </g>
    <g transform="translate(-353 -459)">
      <circle id="Ellipse_1488-29" data-name="Ellipse 1488" cx="4" cy="4" r="4" transform="translate(366 504)" fill="#fe0843"/>
    </g>
    <g transform="translate(-340 -459)">
      <circle id="Ellipse_1488-30" data-name="Ellipse 1488" cx="4" cy="4" r="4" transform="translate(366 504)" fill="#fe0843"/>
    </g>
    <g transform="translate(-327 -459)">
      <circle id="Ellipse_1488-31" data-name="Ellipse 1488" cx="4" cy="4" r="4" transform="translate(366 504)" fill="#fe0843"/>
    </g>
    <g transform="translate(-314 -459)">
      <circle id="Ellipse_1488-32" data-name="Ellipse 1488" cx="4" cy="4" r="4" transform="translate(366 504)" fill="#fe0843"/>
    </g>
    <g transform="translate(-301 -459)">
      <circle id="Ellipse_1488-33" data-name="Ellipse 1488" cx="4" cy="4" r="4" transform="translate(366 504)" fill="#fe0843"/>
    </g>
    <g transform="translate(-288 -459)">
      <circle id="Ellipse_1488-34" data-name="Ellipse 1488" cx="4" cy="4" r="4" transform="translate(366 504)" fill="#fe0843"/>
    </g>
    <g transform="translate(-275 -459)">
      <circle id="Ellipse_1488-35" data-name="Ellipse 1488" cx="4" cy="4" r="4" transform="translate(366 504)" fill="#fe0843"/>
    </g>
    <g transform="translate(-262 -459)">
      <circle id="Ellipse_1488-36" data-name="Ellipse 1488" cx="4" cy="4" r="4" transform="translate(366 504)" fill="#fe0843"/>
    </g>
    <g transform="translate(-366 -444)">
      <circle id="Ellipse_1488-37" data-name="Ellipse 1488" cx="4" cy="4" r="4" transform="translate(366 504)" fill="#fe0843"/>
    </g>
    <g transform="translate(-353 -444)">
      <circle id="Ellipse_1488-38" data-name="Ellipse 1488" cx="4" cy="4" r="4" transform="translate(366 504)" fill="#fe0843"/>
    </g>
    <g transform="translate(-340 -444)">
      <circle id="Ellipse_1488-39" data-name="Ellipse 1488" cx="4" cy="4" r="4" transform="translate(366 504)" fill="#fe0843"/>
    </g>
    <g transform="translate(-327 -444)">
      <circle id="Ellipse_1488-40" data-name="Ellipse 1488" cx="4" cy="4" r="4" transform="translate(366 504)" fill="#fe0843"/>
    </g>
    <g transform="translate(-314 -444)">
      <circle id="Ellipse_1488-41" data-name="Ellipse 1488" cx="4" cy="4" r="4" transform="translate(366 504)" fill="#fe0843"/>
    </g>
    <g transform="translate(-301 -444)">
      <circle id="Ellipse_1488-42" data-name="Ellipse 1488" cx="4" cy="4" r="4" transform="translate(366 504)" fill="#fe0843"/>
    </g>
    <g transform="translate(-288 -444)">
      <circle id="Ellipse_1488-43" data-name="Ellipse 1488" cx="4" cy="4" r="4" transform="translate(366 504)" fill="#fe0843"/>
    </g>
    <g transform="translate(-275 -444)">
      <circle id="Ellipse_1488-44" data-name="Ellipse 1488" cx="4" cy="4" r="4" transform="translate(366 504)" fill="#fe0843"/>
    </g>
    <g transform="translate(-262 -444)">
      <circle id="Ellipse_1488-45" data-name="Ellipse 1488" cx="4" cy="4" r="4" transform="translate(366 504)" fill="#fe0843"/>
    </g>
    <g transform="translate(-366 -429)">
      <circle id="Ellipse_1488-46" data-name="Ellipse 1488" cx="4" cy="4" r="4" transform="translate(366 504)" fill="#fe0843"/>
    </g>
    <g transform="translate(-353 -429)">
      <circle id="Ellipse_1488-47" data-name="Ellipse 1488" cx="4" cy="4" r="4" transform="translate(366 504)" fill="#fe0843"/>
    </g>
    <g transform="translate(-340 -429)">
      <circle id="Ellipse_1488-48" data-name="Ellipse 1488" cx="4" cy="4" r="4" transform="translate(366 504)" fill="#fe0843"/>
    </g>
    <g transform="translate(-327 -429)">
      <circle id="Ellipse_1488-49" data-name="Ellipse 1488" cx="4" cy="4" r="4" transform="translate(366 504)" fill="#fe0843"/>
    </g>
    <g transform="translate(-314 -429)">
      <circle id="Ellipse_1488-50" data-name="Ellipse 1488" cx="4" cy="4" r="4" transform="translate(366 504)" fill="#fe0843"/>
    </g>
    <g transform="translate(-301 -429)">
      <circle id="Ellipse_1488-51" data-name="Ellipse 1488" cx="4" cy="4" r="4" transform="translate(366 504)" fill="#fe0843"/>
    </g>
    <g transform="translate(-288 -429)">
      <circle id="Ellipse_1488-52" data-name="Ellipse 1488" cx="4" cy="4" r="4" transform="translate(366 504)" fill="#fe0843"/>
    </g>
    <g transform="translate(-275 -429)">
      <circle id="Ellipse_1488-53" data-name="Ellipse 1488" cx="4" cy="4" r="4" transform="translate(366 504)" fill="#fe0843"/>
    </g>
    <g transform="translate(-262 -429)">
      <circle id="Ellipse_1488-54" data-name="Ellipse 1488" cx="4" cy="4" r="4" transform="translate(366 504)" fill="#fe0843"/>
    </g>
    <g transform="translate(-366 -414)">
      <circle id="Ellipse_1488-55" data-name="Ellipse 1488" cx="4" cy="4" r="4" transform="translate(366 504)" fill="#fe0843"/>
    </g>
    <g transform="translate(-353 -414)">
      <circle id="Ellipse_1488-56" data-name="Ellipse 1488" cx="4" cy="4" r="4" transform="translate(366 504)" fill="#fe0843"/>
    </g>
    <g transform="translate(-340 -414)">
      <circle id="Ellipse_1488-57" data-name="Ellipse 1488" cx="4" cy="4" r="4" transform="translate(366 504)" fill="#fe0843"/>
    </g>
    <g transform="translate(-327 -414)">
      <circle id="Ellipse_1488-58" data-name="Ellipse 1488" cx="4" cy="4" r="4" transform="translate(366 504)" fill="#fe0843"/>
    </g>
    <g transform="translate(-314 -414)">
      <circle id="Ellipse_1488-59" data-name="Ellipse 1488" cx="4" cy="4" r="4" transform="translate(366 504)" fill="#fe0843"/>
    </g>
    <g transform="translate(-301 -414)">
      <circle id="Ellipse_1488-60" data-name="Ellipse 1488" cx="4" cy="4" r="4" transform="translate(366 504)" fill="#fe0843"/>
    </g>
    <g transform="translate(-288 -414)">
      <circle id="Ellipse_1488-61" data-name="Ellipse 1488" cx="4" cy="4" r="4" transform="translate(366 504)" fill="#fe0843"/>
    </g>
    <g transform="translate(-275 -414)">
      <circle id="Ellipse_1488-62" data-name="Ellipse 1488" cx="4" cy="4" r="4" transform="translate(366 504)" fill="#fe0843"/>
    </g>
    <g transform="translate(-262 -414)">
      <circle id="Ellipse_1488-63" data-name="Ellipse 1488" cx="4" cy="4" r="4" transform="translate(366 504)" fill="#fe0843"/>
    </g>
    <g transform="translate(-366 -399)">
      <circle id="Ellipse_1488-64" data-name="Ellipse 1488" cx="4" cy="4" r="4" transform="translate(366 504)" fill="#fe0843"/>
    </g>
    <g transform="translate(-353 -399)">
      <circle id="Ellipse_1488-65" data-name="Ellipse 1488" cx="4" cy="4" r="4" transform="translate(366 504)" fill="#fe0843"/>
    </g>
    <g transform="translate(-340 -399)">
      <circle id="Ellipse_1488-66" data-name="Ellipse 1488" cx="4" cy="4" r="4" transform="translate(366 504)" fill="#fe0843"/>
    </g>
    <g transform="translate(-327 -399)">
      <circle id="Ellipse_1488-67" data-name="Ellipse 1488" cx="4" cy="4" r="4" transform="translate(366 504)" fill="#fe0843"/>
    </g>
    <g transform="translate(-314 -399)">
      <circle id="Ellipse_1488-68" data-name="Ellipse 1488" cx="4" cy="4" r="4" transform="translate(366 504)" fill="#fe0843"/>
    </g>
    <g transform="translate(-301 -399)">
      <circle id="Ellipse_1488-69" data-name="Ellipse 1488" cx="4" cy="4" r="4" transform="translate(366 504)" fill="#fe0843"/>
    </g>
    <g transform="translate(-288 -399)">
      <circle id="Ellipse_1488-70" data-name="Ellipse 1488" cx="4" cy="4" r="4" transform="translate(366 504)" fill="#fe0843"/>
    </g>
    <g transform="translate(-275 -399)">
      <circle id="Ellipse_1488-71" data-name="Ellipse 1488" cx="4" cy="4" r="4" transform="translate(366 504)" fill="#fe0843"/>
    </g>
    <g transform="translate(-262 -399)">
      <circle id="Ellipse_1488-72" data-name="Ellipse 1488" cx="4" cy="4" r="4" transform="translate(366 504)" fill="#fe0843"/>
    </g>
    <g transform="translate(-366 -384)">
      <circle id="Ellipse_1488-73" data-name="Ellipse 1488" cx="4" cy="4" r="4" transform="translate(366 504)" fill="#fe0843"/>
    </g>
    <g transform="translate(-353 -384)">
      <circle id="Ellipse_1488-74" data-name="Ellipse 1488" cx="4" cy="4" r="4" transform="translate(366 504)" fill="#fe0843"/>
    </g>
    <g transform="translate(-340 -384)">
      <circle id="Ellipse_1488-75" data-name="Ellipse 1488" cx="4" cy="4" r="4" transform="translate(366 504)" fill="#fe0843"/>
    </g>
    <g transform="translate(-327 -384)">
      <circle id="Ellipse_1488-76" data-name="Ellipse 1488" cx="4" cy="4" r="4" transform="translate(366 504)" fill="#fe0843"/>
    </g>
    <g transform="translate(-314 -384)">
      <circle id="Ellipse_1488-77" data-name="Ellipse 1488" cx="4" cy="4" r="4" transform="translate(366 504)" fill="#fe0843"/>
    </g>
    <g transform="translate(-301 -384)">
      <circle id="Ellipse_1488-78" data-name="Ellipse 1488" cx="4" cy="4" r="4" transform="translate(366 504)" fill="#fe0843"/>
    </g>
    <g transform="translate(-288 -384)">
      <circle id="Ellipse_1488-79" data-name="Ellipse 1488" cx="4" cy="4" r="4" transform="translate(366 504)" fill="#fe0843"/>
    </g>
    <g transform="translate(-275 -384)">
      <circle id="Ellipse_1488-80" data-name="Ellipse 1488" cx="4" cy="4" r="4" transform="translate(366 504)" fill="#fe0843"/>
    </g>
    <g transform="translate(-262 -384)">
      <circle id="Ellipse_1488-81" data-name="Ellipse 1488" cx="4" cy="4" r="4" transform="translate(366 504)" fill="#fe0843"/>
    </g>
    <g transform="translate(-366 -369)">
      <circle id="Ellipse_1488-82" data-name="Ellipse 1488" cx="4" cy="4" r="4" transform="translate(366 504)" fill="#fe0843"/>
    </g>
    <g transform="translate(-353 -369)">
      <circle id="Ellipse_1488-83" data-name="Ellipse 1488" cx="4" cy="4" r="4" transform="translate(366 504)" fill="#fe0843"/>
    </g>
    <g transform="translate(-340 -369)">
      <circle id="Ellipse_1488-84" data-name="Ellipse 1488" cx="4" cy="4" r="4" transform="translate(366 504)" fill="#fe0843"/>
    </g>
    <g transform="translate(-327 -369)">
      <circle id="Ellipse_1488-85" data-name="Ellipse 1488" cx="4" cy="4" r="4" transform="translate(366 504)" fill="#fe0843"/>
    </g>
    <g transform="translate(-314 -369)">
      <circle id="Ellipse_1488-86" data-name="Ellipse 1488" cx="4" cy="4" r="4" transform="translate(366 504)" fill="#fe0843"/>
    </g>
    <g transform="translate(-301 -369)">
      <circle id="Ellipse_1488-87" data-name="Ellipse 1488" cx="4" cy="4" r="4" transform="translate(366 504)" fill="#fe0843"/>
    </g>
    <g transform="translate(-288 -369)">
      <circle id="Ellipse_1488-88" data-name="Ellipse 1488" cx="4" cy="4" r="4" transform="translate(366 504)" fill="#fe0843"/>
    </g>
    <g transform="translate(-275 -369)">
      <circle id="Ellipse_1488-89" data-name="Ellipse 1488" cx="4" cy="4" r="4" transform="translate(366 504)" fill="#fe0843"/>
    </g>
    <g transform="translate(-262 -369)">
      <circle id="Ellipse_1488-90" data-name="Ellipse 1488" cx="4" cy="4" r="4" transform="translate(366 504)" fill="#fe0843"/>
    </g>
    <g transform="translate(-366 -354)">
      <circle id="Ellipse_1488-91" data-name="Ellipse 1488" cx="4" cy="4" r="4" transform="translate(366 504)" fill="#fe0843"/>
    </g>
    <g transform="translate(-353 -354)">
      <circle id="Ellipse_1488-92" data-name="Ellipse 1488" cx="4" cy="4" r="4" transform="translate(366 504)" fill="#fe0843"/>
    </g>
    <g transform="translate(-340 -354)">
      <circle id="Ellipse_1488-93" data-name="Ellipse 1488" cx="4" cy="4" r="4" transform="translate(366 504)" fill="#fe0843"/>
    </g>
    <g transform="translate(-327 -354)">
      <circle id="Ellipse_1488-94" data-name="Ellipse 1488" cx="4" cy="4" r="4" transform="translate(366 504)" fill="#fe0843"/>
    </g>
    <g transform="translate(-314 -354)">
      <circle id="Ellipse_1488-95" data-name="Ellipse 1488" cx="4" cy="4" r="4" transform="translate(366 504)" fill="#fe0843"/>
    </g>
    <g transform="translate(-301 -354)">
      <circle id="Ellipse_1488-96" data-name="Ellipse 1488" cx="4" cy="4" r="4" transform="translate(366 504)" fill="#fe0843"/>
    </g>
    <g transform="translate(-288 -354)">
      <circle id="Ellipse_1488-97" data-name="Ellipse 1488" cx="4" cy="4" r="4" transform="translate(366 504)" fill="#fe0843"/>
    </g>
    <g transform="translate(-275 -354)">
      <circle id="Ellipse_1488-98" data-name="Ellipse 1488" cx="4" cy="4" r="4" transform="translate(366 504)" fill="#fe0843"/>
    </g>
    <g transform="translate(-262 -354)">
      <circle id="Ellipse_1488-99" data-name="Ellipse 1488" cx="4" cy="4" r="4" transform="translate(366 504)" fill="#fe0843"/>
    </g>
  </g>
</svg>
