<svg xmlns="http://www.w3.org/2000/svg" xmlns:xlink="http://www.w3.org/1999/xlink" width="16" height="16" viewBox="0 0 16 16">
  <defs>
    <clipPath id="clip-path">
      <rect id="Rectangle_257" data-name="Rectangle 257" width="16" height="16" fill="#fe0843" stroke="#707070" stroke-width="1"/>
    </clipPath>
  </defs>
  <g id="ic_about" clip-path="url(#clip-path)">
    <path id="question" d="M7.969,12.531a.625.625,0,1,1,.625-.625A.625.625,0,0,1,7.969,12.531Zm.625-2.812V8.879A2.605,2.605,0,1,0,6.135,4.485a2.559,2.559,0,0,0-.792,1.858.625.625,0,0,0,1.25,0A1.319,1.319,0,0,1,7,5.386,1.383,1.383,0,0,1,8.023,5a1.35,1.35,0,0,1,.247,2.67,1.168,1.168,0,0,0-.927,1.147v.9a.625.625,0,0,0,1.25,0Zm3.546,5.128a.625.625,0,1,0-.648-1.069,6.809,6.809,0,1,1,2.114-2.031.625.625,0,1,0,1.039.695,8,8,0,0,0-12.3-10.1,8,8,0,0,0,9.8,12.5Zm0,0" transform="translate(0.001 0)" fill="#fe0843"/>
  </g>
</svg>
