<svg xmlns="http://www.w3.org/2000/svg" width="44" height="44" viewBox="0 0 44 44">
  <g id="ic_cart" transform="translate(-1066 -49)">
    <rect id="Rectangle_3672" data-name="Rectangle 3672" width="44" height="44" rx="22" transform="translate(1066 49)" fill="#f7f7f7"/>
    <path id="Union_35" data-name="Union 35" d="M-1026.735-27.243a1.342,1.342,0,0,1,1.361-1.324,1.342,1.342,0,0,1,1.36,1.324,1.343,1.343,0,0,1-1.36,1.325A1.343,1.343,0,0,1-1026.735-27.243Zm-8.162,0a1.342,1.342,0,0,1,1.361-1.324,1.342,1.342,0,0,1,1.36,1.324,1.342,1.342,0,0,1-1.36,1.325A1.343,1.343,0,0,1-1034.9-27.243Zm.77-3.824a.9.9,0,0,1-.855-.59l-2.738-7.578h-2.372a.9.9,0,0,1-.907-.883.9.9,0,0,1,.907-.884h3.014a.9.9,0,0,1,.855.59l2.739,7.578h8.188l1.642-5.091h-8.334a.9.9,0,0,1-.908-.883.9.9,0,0,1,.908-.883h9.569a.913.913,0,0,1,.731.361.863.863,0,0,1,.134.787l-2.212,6.857a.9.9,0,0,1-.865.618Z" transform="translate(2118.257 104.459)" fill="#fe0843"/>
  </g>
</svg>
