<svg xmlns="http://www.w3.org/2000/svg" width="16.998" height="13.081" viewBox="0 0 16.998 13.081">
  <g id="ic_eye_closed" transform="translate(-339.501 -15.701)">
    <path id="Subtraction_8" data-name="Subtraction 8" d="M-746-290.545a7.4,7.4,0,0,1-2.766-.567l1.962-1.962a3.129,3.129,0,0,0,.8.1,3,3,0,0,0,3.031-3.03,3.123,3.123,0,0,0-.1-.805l2.512-2.513a15.662,15.662,0,0,1,2.925,2.954.61.61,0,0,1,.136.343v.041a.61.61,0,0,1-.136.343C-737.67-295.586-741.331-290.545-746-290.545Zm-5.439-2.137h0a15.94,15.94,0,0,1-2.924-2.954.557.557,0,0,1,0-.727,15.76,15.76,0,0,1,2.5-2.613A9.6,9.6,0,0,1-746-301.454a7.4,7.4,0,0,1,2.766.567l-1.961,1.961a3.126,3.126,0,0,0-.8-.1,3,3,0,0,0-3.03,3.03,3.126,3.126,0,0,0,.1.8l-2.513,2.513Z" transform="translate(1094 318)" fill="#aaa"/>
    <path id="Path_23639" data-name="Path 23639" d="M-.481.159h1.5v17h-1.5Z" transform="translate(353.657 15.929) rotate(45)" fill="#aaa"/>
  </g>
</svg>
