<svg xmlns="http://www.w3.org/2000/svg" xmlns:xlink="http://www.w3.org/1999/xlink" width="24" height="24" viewBox="0 0 24 24">
  <defs>
    <clipPath id="clip-path">
      <rect id="Rectangle_5362" data-name="Rectangle 5362" width="24" height="24" fill="#ff3e6c" stroke="#ff3e6c" stroke-width="1"/>
    </clipPath>
  </defs>
  <g id="ic_heart" clip-path="url(#clip-path)">
    <path id="_174582743516285957953805" data-name="174582743516285957953805" d="M12,21.126a.961.961,0,0,1-.679-.282L3.863,13.371a5.022,5.022,0,0,1,7.1-7.107L12,7.309l1.042-1.042a5.022,5.022,0,0,1,7.1,7.107l-7.458,7.47a.961.961,0,0,1-.682.281ZM7.412,6.719a3.073,3.073,0,0,0-2.19.9,3.113,3.113,0,0,0,0,4.392L12,18.806l6.781-6.791A3.1,3.1,0,0,0,14.4,7.623L12.683,9.347a.986.986,0,0,1-1.36,0L9.6,7.622a3.073,3.073,0,0,0-2.188-.9Z" transform="translate(-0.002 0.039)" fill="#ff3e6c" stroke="#ff3e6c" stroke-width="0.5"/>
  </g>
</svg>
