<svg xmlns="http://www.w3.org/2000/svg" xmlns:xlink="http://www.w3.org/1999/xlink" width="16" height="16" viewBox="0 0 16 16">
  <defs>
    <clipPath id="clip-path">
      <rect id="Rectangle_594" data-name="Rectangle 594" width="16" height="16" transform="translate(0)" fill="#fe0843" stroke="#707070" stroke-width="1"/>
    </clipPath>
  </defs>
  <g id="ic_help" transform="translate(0)" clip-path="url(#clip-path)">
    <g id="phone-call-3" transform="translate(0.418 0.417)">
      <g id="Group_3461" data-name="Group 3461" transform="translate(0 0)">
        <path id="Path_4348" data-name="Path 4348" d="M13.785,11.109a2.039,2.039,0,0,0-.625-1.4A5.009,5.009,0,0,0,11.177,8.39,2.22,2.22,0,0,0,8.9,9.037l0,0-.728.723a10.911,10.911,0,0,1-2.3-1.776L5.8,7.916a10.913,10.913,0,0,1-1.776-2.3l.723-.728,0,0A2.22,2.22,0,0,0,5.4,2.61,5.009,5.009,0,0,0,4.079.627a2.049,2.049,0,0,0-2.844-.1L1.22.538,1.2.558A4.37,4.37,0,0,0,0,3.759a10.227,10.227,0,0,0,3.255,6.773,13.126,13.126,0,0,0,1.291,1.124A.539.539,0,0,0,5.2,10.8,12.059,12.059,0,0,1,4.017,9.77,9.146,9.146,0,0,1,1.077,3.754,3.327,3.327,0,0,1,1.95,1.33l0,0A.969.969,0,0,1,3.3,1.375C4.7,2.821,4.6,3.5,3.981,4.135l-1,1.006a.539.539,0,0,0-.11.6A10.882,10.882,0,0,0,5.038,8.678l.071.071a10.88,10.88,0,0,0,2.938,2.165.538.538,0,0,0,.6-.11l1.006-1c.632-.616,1.314-.717,2.76.677a.969.969,0,0,1,.049,1.349l0,0a3.317,3.317,0,0,1-2.4.873h-.025a6.983,6.983,0,0,1-2.657-.629.539.539,0,0,0-.427.989,7.945,7.945,0,0,0,3.079.717h.03a4.36,4.36,0,0,0,3.17-1.2l.02-.021.014-.016A2.039,2.039,0,0,0,13.785,11.109Z" transform="translate(0 0)" fill="#fe0843"/>
      </g>
    </g>
  </g>
</svg>
