<svg xmlns="http://www.w3.org/2000/svg" width="15.999" height="16" viewBox="0 0 15.999 16">
  <g id="ic_logout" transform="translate(0)">
    <path id="Path_4449" data-name="Path 4449" d="M111.1,94.978a.7.7,0,0,0-.7.7v1.238a1.163,1.163,0,0,1-1.162,1.162h-6.221a1.163,1.163,0,0,1-1.162-1.162V86.017a1.163,1.163,0,0,1,1.162-1.162h6.221a1.163,1.163,0,0,1,1.162,1.162v1.238a.7.7,0,0,0,1.391,0V86.017a2.555,2.555,0,0,0-2.553-2.553h-6.221a2.555,2.555,0,0,0-2.553,2.553V96.912a2.555,2.555,0,0,0,2.553,2.553h6.221a2.555,2.555,0,0,0,2.553-2.553V95.674A.7.7,0,0,0,111.1,94.978Zm0,0" transform="translate(-100.473 -83.465)" fill="#fe0843"/>
    <path id="Path_4450" data-name="Path 4450" d="M240.766,199.2l-1.386-1.386a.7.7,0,0,0-.984.984l.855.855H232a.7.7,0,1,0,0,1.391h7.248l-.855.855a.7.7,0,0,0,.983.984l1.386-1.386A1.626,1.626,0,0,0,240.766,199.2Zm0,0" transform="translate(-225.242 -192.32)" fill="#fe0843"/>
  </g>
</svg>
