<svg xmlns="http://www.w3.org/2000/svg" xmlns:xlink="http://www.w3.org/1999/xlink" width="24" height="24" viewBox="0 0 24 24">
  <defs>
    <clipPath id="clip-path">
      <rect id="Rectangle_5487" data-name="Rectangle 5487" width="24" height="24" transform="translate(267 1463.17)" fill="#fff" stroke="#707070" stroke-width="1"/>
    </clipPath>
  </defs>
  <g id="ic_instgram" transform="translate(-267 -1463.17)" clip-path="url(#clip-path)">
    <g id="_18498044921561032665" data-name="18498044921561032665" transform="translate(271.698 1467.868)">
      <rect id="Rectangle_5488" data-name="Rectangle 5488" width="3.266" height="10.041" transform="translate(0 4.564)" fill="#1976d2"/>
      <path id="Path_50840" data-name="Path 50840" d="M15.1,7.618c-.035-.011-.068-.023-.1-.033s-.088-.018-.132-.026a2.927,2.927,0,0,0-.586-.059h0a4.538,4.538,0,0,0-3.51,1.92V7.5H7.5V17.541h3.266V12.064s2.468-3.438,3.51-.913v6.389h3.265V10.765A3.256,3.256,0,0,0,15.1,7.618Z" transform="translate(-2.936 -2.936)" fill="#1976d2"/>
      <circle id="Ellipse_1533" data-name="Ellipse 1533" cx="1.597" cy="1.597" r="1.597" fill="#1976d2"/>
    </g>
  </g>
</svg>
