<svg xmlns="http://www.w3.org/2000/svg" xmlns:xlink="http://www.w3.org/1999/xlink" width="16" height="16" viewBox="0 0 16 16">
  <defs>
    <clipPath id="clip-path">
      <rect id="Rectangle_733" data-name="Rectangle 733" width="16" height="16" transform="translate(0)" fill="#222" stroke="#707070" stroke-width="1"/>
    </clipPath>
  </defs>
  <g id="ic_my_fav" transform="translate(0)" clip-path="url(#clip-path)">
    <path id="heart_1_" data-name="heart(1)" d="M8,14.235A.938.938,0,0,1,7.381,14c-.646-.565-1.27-1.1-1.819-1.565l0,0A33.837,33.837,0,0,1,1.587,8.707,5.955,5.955,0,0,1,0,4.808,5,5,0,0,1,1.269,1.393,4.3,4.3,0,0,1,4.47,0,4.025,4.025,0,0,1,6.984.868,5.143,5.143,0,0,1,8,1.929,5.144,5.144,0,0,1,9.016.868,4.025,4.025,0,0,1,11.53,0a4.3,4.3,0,0,1,3.2,1.393A5,5,0,0,1,16,4.808a5.955,5.955,0,0,1-1.587,3.9,33.83,33.83,0,0,1-3.972,3.728c-.551.469-1.175,1-1.823,1.568A.939.939,0,0,1,8,14.235ZM4.47.937A3.376,3.376,0,0,0,1.958,2.028,4.068,4.068,0,0,0,.937,4.808a5.011,5.011,0,0,0,1.371,3.3,33.3,33.3,0,0,0,3.859,3.613l0,0c.552.47,1.177,1,1.829,1.573.655-.57,1.282-1.1,1.835-1.576a33.3,33.3,0,0,0,3.858-3.613,5.011,5.011,0,0,0,1.371-3.3,4.068,4.068,0,0,0-1.021-2.78A3.375,3.375,0,0,0,11.53.937a3.108,3.108,0,0,0-1.941.672A4.548,4.548,0,0,0,8.508,2.861a.592.592,0,0,1-1.016,0A4.544,4.544,0,0,0,6.41,1.609,3.108,3.108,0,0,0,4.47.937Zm0,0" transform="translate(0.001 0.883)" fill="#fe0843"/>
  </g>
</svg>
