<svg xmlns="http://www.w3.org/2000/svg" width="44.323" height="44.066" viewBox="0 0 44.323 44.066">
  <g id="ic_quotation" transform="translate(-736.719 -3331.296)">
    <path id="_184832912816285957973805" data-name="184832912816285957973805" d="M10.656,46.065a7.96,7.96,0,0,1-7.6-6.994L3.014,38.6,3,38.139V34.349a2.077,2.077,0,0,1,1.511-2l.274-.063.294-.024H9.835V5.135a2.082,2.082,0,0,1,.722-1.574l.241-.178.267-.142a2.053,2.053,0,0,1,.84-.185,2.12,2.12,0,0,1,.878.185l.272.147.241.183,4,3.538,4.012-3.577a2.082,2.082,0,0,1,1.947-.455l.282.1.306.168.241.183,4,3.577,4-3.574A2.06,2.06,0,0,1,33.453,3a2.119,2.119,0,0,1,.594.089l.291.106.279.152.241.183,4,3.581,4-3.536a2.082,2.082,0,0,1,1.656-.5l.294.06.286.108a2.055,2.055,0,0,1,1.131,1.295l.072.3.022.3v33A7.943,7.943,0,0,1,38.84,46.06h-.193ZM14,9.756V32.264H32.532a2.077,2.077,0,0,1,2,1.511l.063.277.022.294v3.793a3.771,3.771,0,0,0,7.478.7l.048-.354.017-.349V9.756l-1.925,1.7a2.063,2.063,0,0,1-1.367.517,2.128,2.128,0,0,1-.881-.193l-.279-.152-.241-.183-4-3.574-3.99,3.579a2.06,2.06,0,0,1-1.374.525,2.118,2.118,0,0,1-.878-.193l-.279-.149-.241-.183-4.01-3.579-4,3.579a2.06,2.06,0,0,1-1.374.525,2.121,2.121,0,0,1-.871-.188l-.279-.147-.241-.183ZM7.164,36.428v1.711a3.762,3.762,0,0,0,3.066,3.709l.356.048.347.014H31.4l-.041-.072a8.6,8.6,0,0,1-.891-3.083l-.026-.619v-1.7Z" transform="translate(734.219 3328.797)" fill="#fe0843" stroke="#fff" stroke-width="1"/>
    <path id="_184832912816285957973805-2" data-name="184832912816285957973805" d="M32.9,26.115H19.282a1.682,1.682,0,0,1-.461-3.31l.222-.051.238-.018H32.9a1.682,1.682,0,0,1,.463,3.31l-.224.051Zm-5.87-5.862h-7.75a1.682,1.682,0,0,1-.456-3.31l.222-.051.238-.018h7.752a1.682,1.682,0,0,1,.463,3.3l-.224.051Z" transform="translate(737.289 3328.834)" fill="#ffa8bd"/>
  </g>
</svg>
