<svg xmlns="http://www.w3.org/2000/svg" width="50" height="48" viewBox="0 0 50 48">
  <g id="ic_register" transform="translate(-404.945 -1876)">
    <path id="Subtraction_12" data-name="Subtraction 12" d="M16195.1-32H16185a8.009,8.009,0,0,1-8-8V-69a8.009,8.009,0,0,1,8-8h26a8.009,8.009,0,0,1,8,8v27h-4V-69a4,4,0,0,0-4-4h-26a4,4,0,0,0-4,4v29a4,4,0,0,0,4,4h10v3a4.974,4.974,0,0,0,.1,1Z" transform="translate(-15772.055 1953)" fill="#fe0843"/>
    <rect id="Rectangle_3842" data-name="Rectangle 3842" width="26" height="7" rx="3.5" transform="translate(428.945 1917)" fill="#ffa8bd"/>
    <rect id="Rectangle_3840" data-name="Rectangle 3840" width="21" height="5" rx="2.5" transform="translate(415.945 1888)" fill="#ffa8bd"/>
    <rect id="Rectangle_3841" data-name="Rectangle 3841" width="21" height="5" rx="2.5" transform="translate(415.945 1900)" fill="#ffa8bd"/>
  </g>
</svg>
