<svg xmlns="http://www.w3.org/2000/svg" xmlns:xlink="http://www.w3.org/1999/xlink" width="18" height="18" viewBox="0 0 18 18">
  <defs>
    <clipPath id="clip-path">
      <rect id="Rectangle_4960" data-name="Rectangle 4960" width="18" height="18" transform="translate(0.09 0.09)" fill="#fff" stroke="#fe0843" stroke-width="1"/>
    </clipPath>
  </defs>
  <g id="ic_search" transform="translate(-0.09 -0.09)" clip-path="url(#clip-path)">
    <g id="Path_33348" data-name="Path 33348" transform="translate(1.931 1.166)" fill="#fff">
      <path d="M 6.624106884002686 11.99821662902832 C 3.66081690788269 11.99821662902832 1.249996900558472 9.587396621704102 1.249996900558472 6.624106884002686 C 1.249996900558472 3.66081690788269 3.66081690788269 1.249996900558472 6.624106884002686 1.249996900558472 C 9.587396621704102 1.249996900558472 11.99821662902832 3.66081690788269 11.99821662902832 6.624106884002686 C 11.99821662902832 9.587396621704102 9.587396621704102 11.99821662902832 6.624106884002686 11.99821662902832 Z" stroke="none"/>
      <path d="M 6.624106884002686 2.499997138977051 C 4.350067138671875 2.499997138977051 2.499997138977051 4.350067138671875 2.499997138977051 6.624106884002686 C 2.499997138977051 8.898147583007812 4.350067138671875 10.74821662902832 6.624106884002686 10.74821662902832 C 8.898147583007812 10.74821662902832 10.74821662902832 8.898147583007812 10.74821662902832 6.624106884002686 C 10.74821662902832 4.350067138671875 8.898147583007812 2.499997138977051 6.624106884002686 2.499997138977051 M 6.624106884002686 -2.86102294921875e-06 C 10.28249740600586 -2.86102294921875e-06 13.24821662902832 2.965717315673828 13.24821662902832 6.624106884002686 C 13.24821662902832 10.28249740600586 10.28249740600586 13.24821662902832 6.624106884002686 13.24821662902832 C 2.965717315673828 13.24821662902832 -2.86102294921875e-06 10.28249740600586 -2.86102294921875e-06 6.624106884002686 C -2.86102294921875e-06 2.965717315673828 2.965717315673828 -2.86102294921875e-06 6.624106884002686 -2.86102294921875e-06 Z" stroke="none" fill="#fe0843"/>
    </g>
    <path id="Path_33347" data-name="Path 33347" d="M1813.833,112.2l2.756,3.131" transform="translate(-1801.259 -99.262)" fill="none" stroke="#fe0843" stroke-width="2.5"/>
  </g>
</svg>
