<svg xmlns="http://www.w3.org/2000/svg" width="47.033" height="50.264" viewBox="0 0 47.033 50.264">
  <g id="ic_tick" transform="translate(-862 -2588.374)">
    <path id="Path_33335" data-name="Path 33335" d="M-18549.641,3024.714c-4.922-3.282-13.051-9.3-13.051-9.3l4.924-5.939,6.328,5.939s7.109-9.971,14.443-19.066c4.184-5.191,8.543-10.179,11.393-12.37a12.43,12.43,0,0,1,1.256,1.368S-18543.039,3007-18549.641,3024.714Z" transform="translate(19433.381 -395.605)" fill="#fe0843"/>
    <path id="Subtraction_13" data-name="Subtraction 13" d="M21.237,42.475A21.238,21.238,0,0,1,6.22,6.22a21.246,21.246,0,0,1,26.109-3.1c-.724.792-1.649,2.05-2.013,2.553a18.037,18.037,0,1,0,6.045,5.773c.563-.917,1.357-2.072,1.924-2.88A21.239,21.239,0,0,1,21.237,42.475Z" transform="translate(862 2596.163)" fill="#ffa8bd"/>
  </g>
</svg>
