<svg xmlns="http://www.w3.org/2000/svg" xmlns:xlink="http://www.w3.org/1999/xlink" width="24" height="24" viewBox="0 0 24 24">
  <defs>
    <clipPath id="clip-path">
      <rect id="Rectangle_5484" data-name="Rectangle 5484" width="24" height="24" transform="translate(150 1463.17)" fill="#fff" stroke="#707070" stroke-width="1"/>
    </clipPath>
  </defs>
  <g id="ic_twitter" transform="translate(-150 -1463.17)" clip-path="url(#clip-path)">
    <path id="_13728386351561032650" data-name="13728386351561032650" d="M16.741,3.86a7.156,7.156,0,0,1-1.978.542,3.413,3.413,0,0,0,1.51-1.9,6.859,6.859,0,0,1-2.176.831A3.432,3.432,0,0,0,8.16,5.683a3.534,3.534,0,0,0,.08.783,9.714,9.714,0,0,1-7.074-3.59A3.433,3.433,0,0,0,2.22,7.463,3.389,3.389,0,0,1,.67,7.04v.038a3.448,3.448,0,0,0,2.75,3.372,3.425,3.425,0,0,1-.9.113,3.034,3.034,0,0,1-.65-.059A3.465,3.465,0,0,0,5.077,12.9,6.9,6.9,0,0,1,.821,14.359,6.428,6.428,0,0,1,0,14.312a9.662,9.662,0,0,0,5.265,1.54,9.7,9.7,0,0,0,9.768-9.766c0-.152-.005-.3-.013-.444A6.847,6.847,0,0,0,16.741,3.86Z" transform="translate(153.63 1466.119)" fill="#03a9f4"/>
  </g>
</svg>
