<svg xmlns="http://www.w3.org/2000/svg" xmlns:xlink="http://www.w3.org/1999/xlink" width="16" height="16" viewBox="0 0 16 16">
  <defs>
    <clipPath id="clip-path">
      <rect id="Rectangle_5380" data-name="Rectangle 5380" width="16" height="16" transform="translate(0 -0.5)" fill="#222" stroke="#707070" stroke-width="1"/>
    </clipPath>
  </defs>
  <g id="ic_track_order" transform="translate(0 0.5)" clip-path="url(#clip-path)">
    <g id="_101134092916352404764514_2_" data-name="101134092916352404764514 (2)" transform="translate(-0.727 -1.227)">
      <path id="Path_33378" data-name="Path 33378" d="M12.727,7.273a.726.726,0,0,1-.454-.159,5.655,5.655,0,0,1-2.091-3.841,2.545,2.545,0,0,1,5.091,0,5.655,5.655,0,0,1-2.091,3.841.726.726,0,0,1-.454.159Zm0-5.091a1.092,1.092,0,0,0-1.091,1.091A3.621,3.621,0,0,0,12.727,5.54a3.621,3.621,0,0,0,1.091-2.268,1.092,1.092,0,0,0-1.091-1.091Z" fill="#222"/>
      <path id="Path_33379" data-name="Path 33379" d="M4.727,16.727a.726.726,0,0,1-.454-.159,5.655,5.655,0,0,1-2.091-3.841,2.545,2.545,0,0,1,5.091,0,5.655,5.655,0,0,1-2.091,3.841.726.726,0,0,1-.454.159Zm0-5.091a1.092,1.092,0,0,0-1.091,1.091A3.621,3.621,0,0,0,4.727,15a3.621,3.621,0,0,0,1.091-2.268,1.092,1.092,0,0,0-1.091-1.091Z" fill="#222"/>
      <path id="Path_33380" data-name="Path 33380" d="M12,14.545H8.727a.727.727,0,1,1,0-1.455H12a1.818,1.818,0,0,0,0-3.636H5.455a3.273,3.273,0,0,1,0-6.545H8.364a.727.727,0,1,1,0,1.455H5.455A1.818,1.818,0,0,0,5.455,8H12a3.273,3.273,0,0,1,0,6.545Z" fill="#222"/>
    </g>
  </g>
</svg>
