<svg xmlns="http://www.w3.org/2000/svg" width="51.978" height="51.979" viewBox="0 0 51.978 51.979">
  <g id="ic_track" transform="translate(-2.002 -2)">
    <path id="Path_33306" data-name="Path 33306" d="M44.98,44.784a1.733,1.733,0,0,1-.433-3.413,5.129,5.129,0,0,0,2.677-1.733,1.734,1.734,0,0,1,2.694,2.183,8.611,8.611,0,0,1-4.5,2.885A1.737,1.737,0,0,1,44.98,44.784Zm-4.254-.251a1.735,1.735,0,0,1-.632-.121,7.9,7.9,0,0,1-.78-.355L36.065,42.4a1.733,1.733,0,1,1,1.577-3.084l3.249,1.655a5.1,5.1,0,0,0,.468.208,1.733,1.733,0,0,1-.632,3.344ZM33,40.626a1.733,1.733,0,0,1-.788-.191l-3.587-1.793-.243-.13a1.733,1.733,0,1,1,1.429-3.153l.347.165,3.587,1.828a1.733,1.733,0,0,1-.788,3.275Zm-12.007-.65a1.733,1.733,0,0,1-.866-3.249L22.1,35.644a8.574,8.574,0,0,1,2.434-.866,1.733,1.733,0,0,1,.684,3.4,5.119,5.119,0,0,0-1.455.528l-1.941,1.066a1.733,1.733,0,0,1-.84.208Zm29.047-1.481A1.733,1.733,0,0,1,48.306,36.7v-.147A4.929,4.929,0,0,0,47.44,33.7a1.733,1.733,0,1,1,2.8-1.984,8.376,8.376,0,0,1,1.533,4.843v.269a1.733,1.733,0,0,1-1.733,1.672ZM45.369,31.9a1.736,1.736,0,0,1-.572-.1l-4.08-1.3a1.733,1.733,0,0,1,1.048-3.3L45.837,28.5h.1a1.733,1.733,0,0,1-.572,3.37Zm-8.256-2.6a1.735,1.735,0,0,1-.528-.078l-4.132-1.308a1.733,1.733,0,0,1,1.048-3.3l4.132,1.308a1.733,1.733,0,0,1-.52,3.387Zm-8.256-2.6a1.735,1.735,0,0,1-.528-.078l-4.106-1.351a1.733,1.733,0,0,1,1.048-3.3L29.4,23.282a1.733,1.733,0,0,1-.52,3.387Zm-8.256-2.6a1.735,1.735,0,0,1-.528-.078l-4.132-1.308a1.733,1.733,0,0,1,1.048-3.3l4.132,1.308a1.733,1.733,0,0,1-.52,3.387Zm-8.256-2.6a1.736,1.736,0,0,1-.511-.191l-.918-.295a8.577,8.577,0,0,1-3.561-2.2,1.733,1.733,0,1,1,2.486-2.408,5.043,5.043,0,0,0,2.114,1.3l.918.295a1.733,1.733,0,0,1-.52,3.387Zm34.1-.321a1.734,1.734,0,0,1-.693-.147l-3.968-1.733a1.733,1.733,0,0,1,1.395-3.171l3.968,1.733a1.733,1.733,0,0,1-.7,3.318ZM38.517,17.72a1.734,1.734,0,0,1-.693-.147L33.856,15.84a1.733,1.733,0,0,1,1.395-3.171L39.219,14.4a1.733,1.733,0,0,1-.7,3.318ZM6.723,15.546A1.733,1.733,0,0,1,4.991,14.03,8.316,8.316,0,0,1,5.623,9.7L5.9,9.057l.052-.113a1.733,1.733,0,0,1,3.153,1.438L7.59,9.629l1.568.736-.295.684A4.86,4.86,0,0,0,8.456,13.6a1.733,1.733,0,0,1-1.473,1.932ZM30.6,14.125a1.734,1.734,0,0,1-.693-.147l-3.968-1.733a1.733,1.733,0,0,1,1.395-3.171L31.3,10.807a1.733,1.733,0,0,1-.7,3.318ZM22.672,10.66a1.734,1.734,0,0,1-.693-.147L17.985,8.737A1.733,1.733,0,0,1,19.38,5.566L23.348,7.3a1.733,1.733,0,0,1-.7,3.318Zm-12.2-2.426a1.733,1.733,0,0,1-.866-3.249,8.663,8.663,0,0,1,5.259-1,1.746,1.746,0,0,1-.424,3.465,5.2,5.2,0,0,0-3.136.606,1.732,1.732,0,0,1-.832.173Z" transform="translate(-0.391 -0.257)" fill="#ffa8bd"/>
    <path id="Path_33307" data-name="Path 33307" d="M51.649,2a8.039,8.039,0,0,0-7.909,8.143c0,4.115,5.631,9.278,6.766,10.274a1.733,1.733,0,0,0,2.287,0c1.126-1,6.766-6.159,6.766-10.274A8.039,8.039,0,0,0,51.649,2Z" transform="translate(-5.58)" fill="#fe0843"/>
    <path id="Path_33308" data-name="Path 33308" d="M14.129,44.688l-11.1,4.877a1.733,1.733,0,0,0,.225,3.249l4.955,1.421,2.374,4.513a1.732,1.732,0,0,0,1.533.918h.225a1.733,1.733,0,0,0,1.464-1.325L16.5,46.672a1.733,1.733,0,0,0-2.374-1.984Z" transform="translate(0 -5.688)" fill="#fe0843"/>
  </g>
</svg>
