<svg id="ic_whatsapp" xmlns="http://www.w3.org/2000/svg" width="19.219" height="19.219" viewBox="0 0 19.219 19.219">
  <g id="Social-Icons---Isolated">
    <path id="Whatsapp" d="M397.607,391h.006a9.609,9.609,0,1,1-5.286,17.631l-3.693,1.18,1.2-3.57A9.6,9.6,0,0,1,397.607,391Zm-2.683,4.881c-.187-.446-.327-.463-.61-.475-.1-.006-.2-.011-.322-.011a1.4,1.4,0,0,0-.983.344,3.069,3.069,0,0,0-.982,2.339,5.5,5.5,0,0,0,1.141,2.9,12.03,12.03,0,0,0,4.783,4.225c2.208.915,2.864.83,3.366.723a2.708,2.708,0,0,0,1.886-1.356,2.381,2.381,0,0,0,.164-1.333c-.068-.118-.254-.186-.537-.327s-1.655-.819-1.915-.91a.536.536,0,0,0-.689.209,11.821,11.821,0,0,1-.751.995.607.607,0,0,1-.678.107,7.073,7.073,0,0,1-2.253-1.39,8.54,8.54,0,0,1-1.559-1.937c-.164-.282-.017-.446.113-.6.141-.175.277-.3.418-.463a1.693,1.693,0,0,0,.311-.441.573.573,0,0,0-.04-.52C395.72,397.819,395.155,396.44,394.924,395.881Z" transform="translate(-388 -391)" fill="#ff3e6c" fill-rule="evenodd"/>
  </g>
</svg>
