<svg xmlns="http://www.w3.org/2000/svg" xmlns:xlink="http://www.w3.org/1999/xlink" width="301.626" height="60.5" viewBox="0 0 301.626 60.5">
  <defs>
    <linearGradient id="linear-gradient" x1="0.814" y1="0.654" x2="-1.276" y2="0.823" gradientUnits="objectBoundingBox">
      <stop offset="0" stop-color="#7a7c80"/>
      <stop offset="0.271" stop-color="#959aa2"/>
      <stop offset="0.498" stop-color="#d1c9c9"/>
      <stop offset="0.734" stop-color="#959aa2"/>
      <stop offset="1" stop-color="#838488"/>
    </linearGradient>
    <linearGradient id="linear-gradient-2" x1="1.717" y1="-1.167" x2="0.061" y2="1.136" gradientUnits="objectBoundingBox">
      <stop offset="0" stop-color="#7a7c80"/>
      <stop offset="0.177" stop-color="#7a7a7a"/>
      <stop offset="0.498" stop-color="#d8d5d5"/>
      <stop offset="0.828" stop-color="#868686"/>
      <stop offset="1" stop-color="#838488"/>
    </linearGradient>
  </defs>
  <g id="logo" transform="translate(-69.506 -14.107)">
    <g id="Group_31299" data-name="Group 31299">
      <path id="Subtraction_7" data-name="Subtraction 7" d="M16.981,9.476C9.118,9.473,3.4,9.465,0,9.454A23.78,23.78,0,0,0,1.659,7.711H18.316c-.43.6-.879,1.191-1.335,1.765ZM18.873,6.92H2.319c.446-.554.9-1.152,1.339-1.779H20.039c-.373.6-.766,1.2-1.166,1.779Zm1.648-2.57H4.2c.384-.572.764-1.171,1.131-1.779H21.525c-.32.6-.658,1.2-1,1.779Zm1.418-2.57H5.8C6.4.738,6.747.03,6.762,0H22.8c-.272.6-.561,1.2-.858,1.779Z" transform="translate(125.978 61.209)" fill="url(#linear-gradient)"/>
      <path id="Subtraction_9" data-name="Subtraction 9" d="M8.916,9.49c-3.972,0-6.972,0-8.916-.008A8.262,8.262,0,0,0,.324,7.711H15.6c-.045.594-.1,1.192-.168,1.778Zm6.735-2.57H.393C.433,6.355.46,5.756.471,5.141H15.722c-.013.594-.036,1.193-.071,1.779Zm.081-2.57H.477C.475,3.719.455,3.12.419,2.57H15.706c.018.509.027,1.026.027,1.538q0,.121,0,.242Zm-.061-2.57H.353A7.256,7.256,0,0,0,0,.027C.387.009,2.6,0,6.586,0c2.394,0,5.407,0,8.954.01.056.586.1,1.181.132,1.769Z" transform="translate(137.038 38.316)" fill="#222"/>
      <g id="Subtraction_11" data-name="Subtraction 11" transform="translate(123.576 14.46)" fill="none">
        <path d="M24.294,9.49H8.4A12.585,12.585,0,0,0,7.1,7.45H23.032c.442.668.866,1.354,1.262,2.039ZM22.5,6.659h-16C6.045,6.1,5.542,5.5,5,4.88H21.182c.454.583.9,1.181,1.313,1.779ZM20.55,4.089H4.289c-.567-.62-1.138-1.219-1.7-1.779H19.009c.531.582,1.049,1.18,1.54,1.779Zm-2.28-2.57H1.781A16.676,16.676,0,0,0,0,0C2.743,0,11.686.016,16.773.025c.513.489,1.016.992,1.5,1.493Z" stroke="none"/>
        <path d="M 22.51605033874512 8.489859580993652 C 22.50754547119141 8.47657299041748 22.49908447265625 8.463375091552734 22.49056434631348 8.450099945068359 L 8.97807502746582 8.450099945068359 C 8.985808372497559 8.463396072387695 8.99349308013916 8.476677894592285 9.001079559326172 8.489859580993652 L 22.51605033874512 8.489859580993652 M 24.29421806335449 9.489859580993652 L 8.397357940673828 9.489859580993652 C 8.154397964477539 8.965859413146973 7.71832799911499 8.279569625854492 7.101287841796875 7.450099945068359 L 23.03239822387695 7.450099945068359 C 23.4742374420166 8.117630004882812 23.89863777160645 8.803799629211426 24.29410743713379 9.489520072937012 L 24.29421806335449 9.489859580993652 Z M 22.49523735046387 6.6591796875 L 22.49483871459961 6.6591796875 L 22.49523735046387 6.6591796875 Z M 22.49523735046387 6.6591796875 L 6.492078304290771 6.6591796875 C 6.044918060302734 6.096519947052002 5.542407989501953 5.497719764709473 4.998507976531982 4.879819869995117 L 21.18200874328613 4.879819869995117 C 21.63637733459473 5.462379932403564 22.07809829711914 6.060839653015137 22.49495887756348 6.658949851989746 L 22.49523735046387 6.6591796875 Z M 20.54964828491211 4.089009761810303 L 20.54923820495605 4.089009761810303 L 20.54964828491211 4.089009761810303 Z M 20.54964828491211 4.089009761810303 L 4.289108276367188 4.089009761810303 C 3.722498178482056 3.468939781188965 3.151318073272705 2.87024974822998 2.591228008270264 2.309539794921875 L 19.00940895080566 2.309539794921875 C 19.54067802429199 2.891179800033569 20.05873870849609 3.489749908447266 20.54935836791992 4.088659763336182 L 20.54964828491211 4.089009761810303 Z M 18.26970863342285 1.518609762191772 L 18.26919746398926 1.518609762191772 L 18.26970863342285 1.518609762191772 Z M 18.26970863342285 1.518609762191772 L 1.780798077583313 1.518609762191772 C 1.047908067703247 0.8234097957611084 0.4321180880069733 0.2981397807598114 -1.92199718185293e-06 -2.095031703674977e-07 C 2.742698192596436 -2.095031703674977e-07 11.68591785430908 0.01554979011416435 16.77281761169434 0.02492978982627392 C 17.28561782836914 0.5143997669219971 17.78904724121094 1.016789793968201 18.26936721801758 1.518379807472229 L 18.26970863342285 1.518609762191772 Z" stroke="none" fill="#fe0843"/>
      </g>
      <g id="Union_3" data-name="Union 3" transform="translate(69.506 14.107)" fill="url(#linear-gradient-2)">
        <path d="M 30.31698989868164 60.40000152587891 L 1.348409056663513 60.40000152587891 L 1.348409056663513 54.62693023681641 L 12.1856689453125 54.62693023681641 L 12.48712921142578 54.62693023681641 L 12.24543857574463 54.44675827026367 C 8.559318542480469 51.69887161254883 5.503358840942383 48.08739852905273 3.407908916473389 44.00279998779297 C 1.212939023971558 39.72312927246094 0.09999901801347733 35.09601974487305 0.09999901801347733 30.25 C 0.09999901801347733 26.17948913574219 0.8960790038108826 22.23102951049805 2.466119050979614 18.51431083679199 C 3.983798980712891 14.92348957061768 6.155269145965576 11.69929981231689 8.920219421386719 8.931309700012207 C 11.68594932556152 6.161540031433105 14.90637874603271 3.987360000610352 18.4920597076416 2.46914005279541 C 22.20465850830078 0.8970900177955627 26.1483097076416 0.1000000014901161 30.21345901489258 0.1000000014901161 C 30.35891914367676 0.1000000014901161 30.52085876464844 0.1015200018882751 30.75494956970215 0.1050700023770332 L 30.81264877319336 0.1059399992227554 L 30.81620407104492 0.1000000014901161 L 47.55221176147461 0.1000000014901161 C 48.03192901611328 0.1829778701066971 50.81728744506836 1.741389393806458 54.58629608154297 5.873069763183594 L 48.24126052856445 5.873069763183594 L 47.93980026245117 5.873069763183594 L 48.18148803710938 6.053239822387695 C 51.86758804321289 8.801130294799805 54.92355728149414 12.41259956359863 57.01902770996094 16.4972095489502 C 59.2139778137207 20.77687072753906 60.32691955566406 25.40398025512695 60.32691955566406 30.25 C 60.32691955566406 34.3117790222168 59.53390884399414 38.25273895263672 57.96990966796875 41.96342849731445 C 56.4603385925293 45.54576873779297 54.29702758789062 48.76620864868164 51.54007720947266 51.53532028198242 C 48.78751754760742 54.30101013183594 45.57831954956055 56.47689819335938 42.00160980224609 58.00255966186523 C 38.30078887939453 59.58023834228516 34.36938858032227 60.38685989379883 30.31666946411133 60.40000152587891 L 30.31698989868164 60.40000152587891 Z M 30.09165954589844 4.12529993057251 C 15.78830909729004 4.12529993057251 4.151689052581787 15.8447904586792 4.151689052581787 30.25 C 4.151689052581787 44.65520858764648 15.78830909729004 56.37471008300781 30.09165954589844 56.37471008300781 C 44.39501953125 56.37471008300781 56.03165054321289 44.65520858764648 56.03165054321289 30.25 C 56.03165054321289 15.8447904586792 44.39501953125 4.12529993057251 30.09165954589844 4.12529993057251 Z M 30.08049964904785 55.0612907409668 C 28.39397811889648 55.0612907409668 26.7114086151123 54.89191818237305 25.07951927185059 54.55786895751953 C 23.48428916931152 54.23091888427734 21.91743850708008 53.74422836303711 20.42251968383789 53.111328125 C 18.95155906677246 52.48917007446289 17.53363990783691 51.71982955932617 16.20809936523438 50.82469940185547 C 14.89288902282715 49.93540954589844 13.65721893310547 48.91572189331055 12.53548908233643 47.79399871826172 C 11.41342926025391 46.67192840576172 10.39408874511719 45.43661117553711 9.505779266357422 44.12236022949219 C 8.608868598937988 42.7942008972168 7.839199066162109 41.37628173828125 7.218169212341309 39.90800857543945 C 6.585469245910645 38.41017150878906 6.099119186401367 36.84294891357422 5.772628784179688 35.24993896484375 C 5.437919139862061 33.61481094360352 5.26819896697998 31.93258094787598 5.26819896697998 30.25 C 5.26819896697998 28.56674003601074 5.437919139862061 26.88417053222656 5.77263879776001 25.24901962280273 C 6.099248886108398 23.65641021728516 6.585598945617676 22.08953094482422 7.218189239501953 20.59193992614746 C 7.839199066162109 19.12372016906738 8.608868598937988 17.7057991027832 9.505799293518066 16.37759971618652 C 10.39131927490234 15.06649017333984 11.41065883636475 13.83082962036133 12.53551864624023 12.70495986938477 C 13.66135883331299 11.58014011383057 14.8970193862915 10.56079959869385 16.20810890197754 9.675299644470215 C 17.53629875183105 8.778369903564453 18.95421981811523 8.008700370788574 20.42248916625977 7.387670040130615 C 21.91901969909668 6.755099773406982 23.48587989807129 6.268750190734863 25.07954978942871 5.942130088806152 C 26.71466827392578 5.607419967651367 28.39723968505859 5.437699794769287 30.08049964904785 5.437699794769287 C 31.76376914978027 5.437699794769287 33.44633865356445 5.607419967651367 35.08147811889648 5.942140102386475 C 36.67510986328125 6.268750190734863 38.24197769165039 6.755099773406982 39.73854064941406 7.387680053710938 C 41.21077728271484 8.01140022277832 42.62871932983398 8.78108024597168 43.95289993286133 9.675299644470215 C 45.26506042480469 10.56151962280273 46.50035858154297 11.58086013793945 47.6245002746582 12.70499038696289 C 48.74617767333984 13.82666015625 49.765869140625 15.06233024597168 50.65522766113281 16.37764930725098 C 51.54941940307617 17.70178985595703 52.31909942626953 19.11972999572754 52.9428596496582 20.59203910827637 C 53.57538986206055 22.08949089050293 54.06174087524414 23.65637016296387 54.38837814331055 25.24905967712402 C 54.72241973876953 26.88091087341309 54.89178848266602 28.56348037719727 54.89178848266602 30.25 C 54.89178848266602 31.93584060668945 54.72241973876953 33.61806869506836 54.38837051391602 35.24996948242188 C 54.06187057495117 36.84299850463867 53.57551956176758 38.41022109985352 52.94281768798828 39.90805816650391 C 52.31909942626953 41.38026809692383 51.54941940307617 42.79821014404297 50.65519714355469 44.12239837646484 C 49.76618957519531 45.43767166137695 48.74651718139648 46.67298126220703 47.62453079223633 47.79396820068359 C 46.50448989868164 48.91501998901367 45.26916885375977 49.93468856811523 43.95285034179688 50.82472991943359 C 42.62738800048828 51.71981811523438 41.20945739746094 52.48915100097656 39.73851013183594 53.11132049560547 C 38.24354934692383 53.74423980712891 36.67670059204102 54.23093032836914 35.08144760131836 54.55788040161133 C 33.44960021972656 54.89191818237305 31.76702880859375 55.0612907409668 30.08049964904785 55.0612907409668 Z M 29.98610877990723 9.741100311279297 C 28.58918952941895 9.741100311279297 27.19160842895508 9.881440162658691 25.83220863342285 10.15822982788086 C 24.50774955749512 10.42782020568848 23.20616912841797 10.82964992523193 21.96360969543457 11.35256958007812 C 20.74377822875977 11.86618041992188 19.56575965881348 12.50236988067627 18.46227836608887 13.24345970153809 C 17.37198829650879 13.97677993774414 16.34600830078125 14.81917953491211 15.41275882720947 15.7473201751709 C 14.48220920562744 16.67279052734375 13.63531875610352 17.69399070739746 12.89563941955566 18.78256034851074 C 12.15117931365967 19.88034057617188 11.51187896728516 21.05256080627441 10.99544906616211 22.2667293548584 C 10.46920871734619 23.50379943847656 10.06528854370117 24.79896926879883 9.794898986816406 26.11623954772949 C 9.516749382019043 27.46622085571289 9.37570858001709 28.85704040527344 9.37570858001709 30.25 C 9.37570858001709 31.64229011535645 9.516749382019043 33.03276824951172 9.794919013977051 34.38282012939453 C 10.06529903411865 35.70003890991211 10.46921920776367 36.99520111083984 10.99544906616211 38.23225021362305 C 11.51186943054199 39.4463996887207 12.15116882324219 40.61862182617188 12.89558887481689 41.71635818481445 C 13.63319873809814 42.80287933349609 14.48008918762207 43.82408905029297 15.41275882720947 44.75165939331055 C 16.34281921386719 45.67765045166016 17.36880874633789 46.52006149291992 18.46221923828125 47.2554817199707 C 19.56570816040039 47.99657821655273 20.74371910095215 48.63277053833008 21.96358871459961 49.14641189575195 C 23.20456886291504 49.66867065429688 24.50612831115723 50.07083129882812 25.83213806152344 50.34175872802734 C 27.18831825256348 50.61788940429688 28.58589935302734 50.75788879394531 29.98610877990723 50.75788879394531 C 31.38564872741699 50.75788879394531 32.78289031982422 50.61788940429688 34.13899993896484 50.34177017211914 C 35.46506881713867 50.07083892822266 36.76662063598633 49.66867065429688 38.00758743286133 49.14641952514648 C 39.22574996948242 48.63393020629883 40.40377807617188 47.99774169921875 41.50893020629883 47.25551986694336 C 42.60237884521484 46.52008056640625 43.62836837768555 45.67766189575195 44.55847930908203 44.75162887573242 C 45.4910888671875 43.82411956787109 46.33797836303711 42.80290985107422 47.07558822631836 41.71640014648438 C 47.81832885742188 40.62263870239258 48.45763778686523 39.45040130615234 48.97574996948242 38.23225021362305 C 49.50196838378906 36.99525833129883 49.90588760375977 35.70009994506836 50.17630767822266 34.38275146484375 C 50.45446014404297 33.03271865844727 50.59549713134766 31.64224052429199 50.59549713134766 30.25 C 50.59549713134766 28.85708999633789 50.45446014404297 27.46627044677734 50.17628860473633 26.11617088317871 C 49.90589904785156 24.79891014099121 49.50196838378906 23.50374031066895 48.97574996948242 22.2667293548584 C 48.45932769775391 21.05256080627441 47.82003021240234 19.88034057617188 47.07560729980469 18.78263092041016 C 46.33584976196289 17.69396018981934 45.48896789550781 16.67276000976562 44.55843734741211 15.7473201751709 C 43.62517929077148 14.81916999816895 42.59919738769531 13.97677040100098 41.50898742675781 13.24349975585938 C 40.40372848510742 12.50121021270752 39.22570037841797 11.86501979827881 38.0075798034668 11.35256004333496 C 36.76502990722656 10.82964992523193 35.46343994140625 10.42782020568848 34.13899993896484 10.15822982788086 C 32.77959823608398 9.881440162658691 31.38235855102539 9.741100311279297 29.98610877990723 9.741100311279297 Z M 30.08049964904785 49.52566909790039 C 28.76946830749512 49.52566909790039 27.46254920959473 49.39385986328125 26.1960391998291 49.1339111328125 C 24.95716857910156 48.88026809692383 23.73964881896973 48.50252151489258 22.57723808288574 48.0111198425293 C 21.4349193572998 47.52732086181641 20.33318901062012 46.92940139770508 19.30270957946777 46.23400115966797 C 18.28046989440918 45.54272079467773 17.32072830200195 44.75080871582031 16.45020866394043 43.88029861450195 C 15.57903861999512 43.00912857055664 14.78712940216064 42.04904937744141 14.09647941589355 41.02674102783203 C 13.39873886108398 39.99380111694336 12.8008394241333 38.89244079589844 12.31938934326172 37.75326919555664 C 11.82564926147461 36.58432006835938 11.44788932800293 35.3668098449707 11.19661903381348 34.13459014892578 C 10.93663883209229 32.86690902709961 10.80482864379883 31.55998992919922 10.80482864379883 30.25 C 10.80482864379883 28.93899917602539 10.93663883209229 27.632080078125 11.19659900665283 26.36553955078125 C 11.4482889175415 25.13124084472656 11.82603931427002 23.91374015808105 12.31938934326172 22.74674034118652 C 12.80044937133789 21.60848045349121 13.39835929870605 20.50676918029785 14.09650897979736 19.47220993041992 C 14.78571891784668 18.4520206451416 15.57762908935547 17.49227905273438 16.45020866394043 16.61971092224121 C 17.32071876525879 15.74919986724854 18.28045845031738 14.95728015899658 19.30278968811035 14.26595020294189 C 20.33325958251953 13.56954956054688 21.43494987487793 12.97165966033936 22.57722854614258 12.48888969421387 C 23.74423980712891 11.99553966522217 24.96173858642578 11.61779022216797 26.19590950012207 11.36612033843994 C 27.46257972717285 11.10614013671875 28.76949882507324 10.97432994842529 30.08049964904785 10.97432994842529 C 31.39149856567383 10.97432994842529 32.69841766357422 11.10614013671875 33.96495819091797 11.3661003112793 C 35.19729995727539 11.61738967895508 36.41481018066406 11.99514007568359 37.58378982543945 12.48890018463135 C 38.72694778442383 12.97202968597412 39.82827758789062 13.56991958618164 40.8571891784668 14.26593971252441 C 41.87950897216797 14.95658016204834 42.83958053588867 15.74849987030029 43.71080017089844 16.61971092224121 C 44.58548736572266 17.49541091918945 45.37741088867188 18.45516014099121 46.06452941894531 19.47224998474121 C 46.75992965698242 20.50275039672852 47.35784912109375 21.6044807434082 47.84164810180664 22.74679946899414 C 48.3330078125 23.90909957885742 48.71075820922852 25.12663078308105 48.96439743041992 26.3654899597168 C 49.22435760498047 27.63204956054688 49.35617065429688 28.9389705657959 49.35617065429688 30.25 C 49.35617065429688 31.56002044677734 49.22435760498047 32.86695098876953 48.96440887451172 34.13447952270508 C 48.71115875244141 35.37142181396484 48.33340072631836 36.58895874023438 47.84160995483398 37.75328826904297 C 47.35746002197266 38.89643859863281 46.75954818725586 39.99781036376953 46.06451797485352 41.02674865722656 C 45.37387847900391 42.04904937744141 44.58197021484375 43.00912857055664 43.71080017089844 43.88029861450195 C 42.83956909179688 44.75151062011719 41.87949752807617 45.54341888427734 40.85723876953125 46.23403167724609 C 39.8283576965332 46.92903137207031 38.72697830200195 47.52693939208984 37.58369827270508 48.01115036010742 C 36.41939926147461 48.50291061401367 35.20186996459961 48.88068008422852 33.96500778198242 49.1338996887207 C 32.69844818115234 49.39385986328125 31.39152908325195 49.52566909790039 30.08049964904785 49.52566909790039 Z M 30.00640869140625 14.69005966186523 C 28.94633865356445 14.69005966186523 27.88615989685059 14.79625034332275 26.8553295135498 15.00568962097168 C 25.85247993469238 15.20993995666504 24.86505889892578 15.51513004302979 23.92044830322266 15.91279983520508 C 22.99175834655762 16.30393981933594 22.09818840026855 16.78647041320801 21.26453971862793 17.34699058532715 C 20.43803977966309 17.90242004394531 19.65928840637207 18.54165077209473 18.94992828369141 19.24690055847168 C 18.24386978149414 19.94990921020508 17.60154914855957 20.72454071044922 17.04076957702637 21.54932022094727 C 16.47523880004883 22.38429069519043 15.99029922485352 23.27375030517578 15.59932899475098 24.19314956665039 C 15.20013904571533 25.13138961791992 14.89353942871094 26.11408996582031 14.68804931640625 27.11392974853516 C 14.47723865509033 28.14035987854004 14.37034893035889 29.19548034667969 14.37034893035889 30.25 C 14.37034893035889 31.3038501739502 14.47723865509033 32.3586311340332 14.68803882598877 33.38505172729492 C 14.89339923858643 34.38423156738281 15.19999885559082 35.36725997924805 15.59931945800781 36.30683898925781 C 15.99357891082764 37.23294830322266 16.47854995727539 38.12208938598633 17.04074859619141 38.94963836669922 C 17.60152816772461 39.77442169189453 18.24383926391602 40.54904937744141 18.94987869262695 41.25202941894531 C 19.65609931945801 41.9551887512207 20.43486976623535 42.59442901611328 21.26455879211426 43.15200042724609 C 22.10088920593262 43.71432113647461 22.99445915222168 44.19718933105469 23.92042922973633 44.58718872070312 C 24.86673927307129 44.98455047607422 25.85412979125977 45.28939056396484 26.85527992248535 45.49328994750977 C 27.88510894775391 45.70272827148438 28.94528961181641 45.80892181396484 30.00640869140625 45.80892181396484 C 31.06752967834473 45.80892181396484 32.12770843505859 45.70272827148438 33.15749740600586 45.49328994750977 C 34.15970993041992 45.28939056396484 35.14711761474609 44.98453903198242 36.09231948852539 44.58721923828125 C 37.01739883422852 44.19760131835938 37.91130065917969 43.71472930908203 38.74924087524414 43.15201950073242 C 39.57902908325195 42.59370040893555 40.35743713378906 41.95447158813477 41.06293869018555 41.25202941894531 C 41.76997756958008 40.54906845092773 42.41233825683594 39.77439880371094 42.97209930419922 38.94960021972656 C 43.53610992431641 38.11938858032227 44.02140045166016 37.23025131225586 44.41448974609375 36.30690002441406 C 44.81282806396484 35.36724090576172 45.11940002441406 34.38426971435547 45.32575988769531 33.38515853881836 C 45.53659820556641 32.35860061645508 45.64348983764648 31.30381965637207 45.64348983764648 30.25 C 45.64348983764648 29.19551086425781 45.53659820556641 28.14039039611816 45.32579040527344 27.11393928527832 C 45.11927032470703 26.11404991149902 44.81269073486328 25.13141059875488 44.41452789306641 24.19321060180664 C 44.02297973632812 23.27242088317871 43.53767776489258 22.3829402923584 42.97211074829102 21.54940032958984 C 42.41231918334961 20.72455978393555 41.76995849609375 19.94989013671875 41.06288909912109 19.24690055847168 C 40.35743713378906 18.54450988769531 39.57902908325195 17.9052791595459 38.74930953979492 17.34700965881348 C 37.91399765014648 16.78606033325195 37.02010726928711 16.30353927612305 36.09238815307617 15.91281032562256 C 35.14879989624023 15.51513004302979 34.16135787963867 15.20993041992188 33.15750885009766 15.00570011138916 C 32.12767791748047 14.79625988006592 31.0674991607666 14.69005966186523 30.00640869140625 14.69005966186523 Z M 30.08049964904785 44.58280181884766 C 28.14513969421387 44.58280181884766 26.26813888549805 44.20367813110352 24.50164985656738 43.45597839355469 C 23.65121841430664 43.09683990478516 22.83194923400879 42.65227890014648 22.0665397644043 42.13462066650391 C 21.30688858032227 41.62211990356445 20.59339904785156 41.03342819213867 19.94580841064453 40.38481140136719 C 19.29742813110352 39.7364387512207 18.70835876464844 39.0225715637207 18.19488906860352 38.26296997070312 C 17.67749977111816 37.49647903442383 17.23290824890137 36.6775016784668 16.87349891662598 35.82883071899414 C 16.12648963928223 34.06161117553711 15.74770927429199 32.18460083007812 15.74770927429199 30.25 C 15.74770927429199 28.31539916992188 16.12648963928223 26.43839073181152 16.8735294342041 24.67110061645508 C 17.23366928100586 23.82069969177246 17.67825889587402 23.00138092041016 18.19491958618164 22.23596954345703 C 18.70902824401855 21.47541999816895 19.2980785369873 20.76190948486328 19.94569969177246 20.11529922485352 C 20.59237861633301 19.46759986877441 21.30588912963867 18.87854957580566 22.06651878356934 18.36438941955566 C 22.83191871643066 17.84774017333984 23.6512393951416 17.40315055847168 24.50166893005371 17.04299926757812 C 26.26889991760254 16.29598999023438 28.14590835571289 15.91720962524414 30.08049964904785 15.91720962524414 C 32.01509857177734 15.91720962524414 33.89210891723633 16.29598999023438 35.65939712524414 17.04302978515625 C 36.50975799560547 17.40315055847168 37.32907867431641 17.84774017333984 38.09452819824219 18.36441993713379 C 38.85509872436523 18.8785400390625 39.56860733032227 19.46759033203125 40.2151985168457 20.11519050598145 C 40.86293792724609 20.76192092895508 41.45198822021484 21.47542953491211 41.96611022949219 22.23601913452148 C 42.48275756835938 23.00141906738281 42.92734909057617 23.82073974609375 43.28749847412109 24.67116928100586 C 44.03451919555664 26.43840026855469 44.41329956054688 28.31541061401367 44.41329956054688 30.25 C 44.41329956054688 32.18458938598633 44.03451919555664 34.06159973144531 43.28746795654297 35.82889938354492 C 42.92810821533203 36.67745971679688 42.4835205078125 37.49644088745117 41.96607971191406 38.26301956176758 C 41.45265960693359 39.02256011962891 40.86359024047852 39.73643112182617 40.21525955200195 40.38476181030273 C 39.56758880615234 41.03342819213867 38.85409927368164 41.62213134765625 38.09454727172852 42.13454818725586 C 37.32904815673828 42.65227890014648 36.50978088378906 43.09683990478516 35.65942764282227 43.45595169067383 C 33.89286804199219 44.20367813110352 32.015869140625 44.58280181884766 30.08049964904785 44.58280181884766 Z M 30.02467918395996 19.79939079284668 C 28.60547828674316 19.79939079284668 27.23023986816406 20.07555961608887 25.93716812133789 20.62022018432617 C 24.6860294342041 21.14690017700195 23.56280899047852 21.90019989013672 22.59870910644531 22.85918045043945 C 21.63490867614746 23.81888961791992 20.87744903564453 24.93663024902344 20.34735870361328 26.18140983581543 C 19.79987907409668 27.47113990783691 19.52230834960938 28.83996963500977 19.52230834960938 30.25 C 19.52230834960938 31.66037940979004 19.79987907409668 33.02888107299805 20.34731864929199 34.31748962402344 C 20.87744903564453 35.56336975097656 21.63491821289062 36.6811408996582 22.59870910644531 37.63980865478516 C 23.56218910217285 38.59918975830078 24.68542861938477 39.35284042358398 25.93718910217285 39.87979125976562 C 27.23267936706543 40.4244499206543 28.6078987121582 40.70061111450195 30.02467918395996 40.70061111450195 C 31.44145965576172 40.70061111450195 32.81668090820312 40.4244499206543 34.11212921142578 39.87979888916016 C 35.36393737792969 39.35282897949219 36.48717880249023 38.59917831420898 37.45068740844727 37.6397705078125 C 38.4150390625 36.68053817749023 39.17218017578125 35.56274032592773 39.70103073120117 34.31747817993164 C 40.24913024902344 33.02972030639648 40.52705001831055 31.66119956970215 40.52705001831055 30.25 C 40.52705001831055 28.83914947509766 40.24913024902344 27.47028923034668 39.70100784301758 26.18144989013672 C 39.17218017578125 24.93725967407227 38.41505813598633 23.81949043273926 37.45068740844727 22.85922050476074 C 36.48730850219727 21.90094947814941 35.36408996582031 21.14765930175781 34.11219787597656 20.62022018432617 C 32.81911849975586 20.07555961608887 31.44387817382812 19.79939079284668 30.02467918395996 19.79939079284668 Z M 30.08049964904785 39.45011901855469 C 28.83796882629395 39.45011901855469 27.63300895690918 39.2069091796875 26.49908828735352 38.72724914550781 C 25.40185928344727 38.26261138916016 24.41813850402832 37.59914016723633 23.57529830932617 36.75527954101562 C 22.7293586730957 35.91035079956055 22.06590843200684 34.92633056640625 21.6032886505127 33.83047103881836 C 21.12358856201172 32.69747161865234 20.88037872314453 31.49286079406738 20.88037872314453 30.25 C 20.88037872314453 29.00746917724609 21.12358856201172 27.80249977111816 21.60325813293457 26.6685791015625 C 22.06614875793457 25.57308959960938 22.7296085357666 24.58941078186035 23.57521820068359 23.74480056762695 C 24.41990852355957 22.89909934997559 25.40359878540039 22.23564910888672 26.49904823303223 21.77276992797852 C 27.63299942016602 21.2930908203125 28.83796882629395 21.04987907409668 30.08049964904785 21.04987907409668 C 31.32302856445312 21.04987907409668 32.52799987792969 21.2930908203125 33.66191864013672 21.77276039123535 C 34.75738906860352 22.23563957214355 35.7410774230957 22.89909934997559 36.58570861816406 23.74472045898438 C 37.42963790893555 24.5876407623291 38.09310913085938 25.57135963439941 38.55776977539062 26.66860961914062 C 39.03741073608398 27.80250930786133 39.28062057495117 29.00748062133789 39.28062057495117 30.25 C 39.28062057495117 31.49286079406738 39.03741836547852 32.69747161865234 38.55775833129883 33.83037185668945 C 38.09507751464844 34.92634963989258 37.4316291809082 35.91036987304688 36.58578872680664 36.75519943237305 C 35.74284744262695 37.59914016723633 34.75914001464844 38.26261138916016 33.66188812255859 38.72726821899414 C 32.52798843383789 39.2069091796875 31.32301902770996 39.45011901855469 30.08049964904785 39.45011901855469 Z M 30.08049964904785 24.7849006652832 C 29.34126853942871 24.7849006652832 28.62537956237793 24.92927932739258 27.95271873474121 25.21401977539062 C 27.30426979064941 25.48823928833008 26.71991920471191 25.88232040405273 26.21592903137207 26.38528060913086 C 25.71359825134277 26.88760948181152 25.31949806213379 27.47199058532715 25.04450988769531 28.12224960327148 C 24.7597599029541 28.7973804473877 24.61539840698242 29.51321983337402 24.61539840698242 30.25 C 24.61539840698242 30.98714065551758 24.75976943969727 31.70265960693359 25.04448890686035 32.37668991088867 C 25.31846809387207 33.02558135986328 25.71254920959473 33.61029815673828 26.21578979492188 34.11457824707031 C 26.71694946289062 34.61574172973633 27.30132865905762 35.00949859619141 27.95274925231934 35.28498077392578 C 28.6269588470459 35.57038116455078 29.34284973144531 35.7150993347168 30.08049964904785 35.7150993347168 C 30.81850814819336 35.7150993347168 31.53407859802246 35.57038116455078 32.20730972290039 35.28495025634766 C 32.85725784301758 35.01052856445312 33.44197082519531 34.61679077148438 33.9450798034668 34.11471939086914 C 34.44728851318359 33.61146926879883 34.84103012084961 33.02676010131836 35.11550903320312 32.37667846679688 C 35.40087890625 31.70358085632324 35.54560089111328 30.98801040649414 35.54560089111328 30.25 C 35.54560089111328 29.51235008239746 35.40087890625 28.79645919799805 35.11547088623047 28.12221908569336 C 34.83998870849609 27.47080993652344 34.44623947143555 26.88644027709961 33.94514846801758 26.38534927368164 C 33.44083023071289 25.88205909729004 32.85610961914062 25.48797988891602 32.20718002319336 25.21397972106934 C 31.53565979003906 24.92927932739258 30.82008934020996 24.7849006652832 30.08049964904785 24.7849006652832 Z" stroke="none"/>
        <path d="M 30.31698989868164 60.29999923706055 L 30.31633949279785 60.29999923706055 C 34.35562896728516 60.28689956665039 38.2739372253418 59.48297882080078 41.96237945556641 57.91057968139648 C 45.5272102355957 56.38999176025391 48.72575759887695 54.22130966186523 51.46921920776367 51.46475982666016 C 54.21706008911133 48.70481109619141 56.37319946289062 45.49504089355469 57.87775802612305 41.92459106445312 C 59.43655014038086 38.22626113891602 60.2269172668457 34.29835891723633 60.2269172668457 30.25 C 60.2269172668457 25.42000007629395 59.1176872253418 20.80824089050293 56.93004989624023 16.54285049438477 C 54.84151840209961 12.47175025939941 51.79565048217773 8.87222957611084 48.12173080444336 6.133419990539551 L 47.63833999633789 5.773069858551025 L 54.3588752746582 5.773069858551025 C 50.75091934204102 1.859049797058105 48.01029586791992 0.2916097342967987 47.54324340820312 0.2000000029802322 L 30.87290382385254 0.2000000029802322 L 30.86882972717285 0.2068099975585938 L 30.75343894958496 0.2050600051879883 C 30.51986885070801 0.2015099972486496 30.35838890075684 0.2000000029802322 30.21345901489258 0.2000000029802322 C 26.16177940368652 0.2000000029802322 22.23124885559082 0.9944300055503845 18.53104972839355 2.561219930648804 C 14.95729923248291 4.074389934539795 11.74755859375 6.24137020111084 8.990968704223633 9.001979827880859 C 6.235158920288086 11.76082038879395 4.070868968963623 14.97432994842529 2.558238983154297 18.55323028564453 C 0.9934290051460266 22.25757026672363 0.1999990195035934 26.19293022155762 0.1999990195035934 30.25 C 0.1999990195035934 35.07999038696289 1.309239029884338 39.69174957275391 3.496889114379883 43.95714950561523 C 5.585399150848389 48.02825164794922 8.631269454956055 51.62776947021484 12.30519866943359 54.36658096313477 L 12.78858947753906 54.7269287109375 L 1.448408961296082 54.7269287109375 L 1.448408961296082 60.29999923706055 L 30.31698989868164 60.29999923706055 M 30.09165954589844 4.025300025939941 C 44.45015716552734 4.025300025939941 56.13164901733398 15.78964996337891 56.13164901733398 30.25 C 56.13164901733398 44.71035003662109 44.45015716552734 56.47470855712891 30.09165954589844 56.47470855712891 C 15.73316860198975 56.47470855712891 4.051689147949219 44.71035003662109 4.051689147949219 30.25 C 4.051689147949219 15.78964996337891 15.73316860198975 4.025300025939941 30.09165954589844 4.025300025939941 M 30.08049964904785 54.96128845214844 C 31.76029968261719 54.96128845214844 33.43613052368164 54.79259872436523 35.06137084960938 54.45991134643555 C 36.6501579284668 54.1342887878418 38.21064758300781 53.64957809448242 39.69955825805664 53.01921844482422 C 41.16456985473633 52.39957046508789 42.5767707824707 51.63333892822266 43.89682769775391 50.74188995361328 C 45.20788955688477 49.85541915893555 46.43824005126953 48.83982849121094 47.55384826660156 47.72322845458984 C 48.67133712768555 46.60673904418945 49.68690872192383 45.37639999389648 50.57231903076172 44.06642913818359 C 51.46294784545898 42.7475700378418 52.22953796386719 41.3353385925293 52.85070037841797 39.86914825439453 C 53.48083877563477 38.37736129760742 53.96522903442383 36.81647872924805 54.29039764404297 35.22991180419922 C 54.62310028076172 33.60459899902344 54.79179000854492 31.92910957336426 54.79179000854492 30.25 C 54.79179000854492 28.57020950317383 54.62310028076172 26.89438056945801 54.29042053222656 25.26914978027344 C 53.9650993347168 23.68288993835449 53.48070907592773 22.12233924865723 52.85078811645508 20.63105010986328 C 52.22953796386719 19.16465950012207 51.46294784545898 17.7524299621582 50.5723876953125 16.43367004394531 C 49.68658065795898 15.12360000610352 48.67097854614258 13.8928804397583 47.55378723144531 12.77569961547852 C 46.43415832519531 11.6560697555542 45.20380783081055 10.64083003997803 43.89693069458008 9.758179664611816 C 42.57809066772461 8.867549896240234 41.16584777832031 8.100970268249512 39.69960021972656 7.479790210723877 C 38.20911026000977 6.849770069122314 36.64857864379883 6.365389823913574 35.06142044067383 6.040110111236572 C 31.80432510375977 5.373351573944092 28.35667037963867 5.373357772827148 25.09961891174316 6.04010009765625 C 23.51240921020508 6.365389823913574 21.95188903808594 6.849780082702637 20.46143913269043 7.479770183563232 C 18.99911880493164 8.09829044342041 17.5869197845459 8.864850044250488 16.26407814025879 9.758170127868652 C 14.95824909210205 10.64011001586914 13.7275390625 11.65538024902344 12.6062593460083 12.77563953399658 C 11.48589897155762 13.89700984954834 10.47062873840332 15.12771987915039 9.588679313659668 16.43357086181641 C 8.695348739624023 17.75642013549805 7.928789138793945 19.16861915588379 7.310308933258057 20.63084983825684 C 6.680278778076172 22.12239074707031 6.195888996124268 23.68293952941895 5.870608806610107 25.26907920837402 C 5.537229061126709 26.89764022827148 5.368198871612549 28.57345962524414 5.368198871612549 30.25 C 5.368198871612549 31.92585945129395 5.537229061126709 33.60134124755859 5.870598793029785 35.2298698425293 C 6.195758819580078 36.81644058227539 6.680149078369141 38.3773193359375 7.310268878936768 39.86906051635742 C 7.928789138793945 41.33137893676758 8.695348739624023 42.74357986450195 9.588628768920898 44.06636047363281 C 10.47337913513184 45.37535095214844 11.48863887786865 46.60570907592773 12.60619926452637 47.72328948974609 C 13.72343921661377 48.84051895141602 14.95415878295898 49.85612869262695 16.26406860351562 50.7418212890625 C 17.58425903320312 51.63335037231445 18.9964599609375 52.39957809448242 20.46149826049805 53.01924896240234 C 21.95033836364746 53.64957046508789 23.51082992553711 54.13428115844727 25.09957885742188 54.45989990234375 C 26.72487831115723 54.79259872436523 28.40070915222168 54.96128845214844 30.08049964904785 54.96128845214844 M 29.98610877990723 9.64109992980957 C 31.3890495300293 9.64109992980957 32.79299926757812 9.782119750976562 34.15893936157227 10.06023979187012 C 35.48983001708984 10.33113956451416 36.79776000976562 10.73493003845215 38.04636001586914 11.26039028167725 C 39.2703971862793 11.77534008026123 40.45413970947266 12.41460990905762 41.56480026245117 13.16053009033203 C 42.66027069091797 13.89733028411865 43.69120025634766 14.74378967285156 44.62894821166992 15.67640972137451 C 45.56399917602539 16.60634994506836 46.41498947143555 17.63249015808105 47.15837860107422 18.72650909423828 C 47.90641021728516 19.82954978942871 48.54882049560547 21.00748062133789 49.06776809692383 22.22757911682129 C 49.59658813476562 23.4707202911377 50.00251770019531 24.77228927612305 50.27423858642578 26.09598922729492 C 50.55376815795898 27.45272064208984 50.69549942016602 28.8503303527832 50.69549942016602 30.25 C 50.69549942016602 31.64900016784668 50.55376815795898 33.04626846313477 50.27425765991211 34.40285873413086 C 50.00251007080078 35.72671890258789 49.59658813476562 37.02828979492188 49.06776809692383 38.27138900756836 C 48.5471305847168 39.49549102783203 47.90468978881836 40.67346954345703 47.15831756591797 41.77256011962891 C 46.41713714599609 42.86436080932617 45.56612777709961 43.89052963256836 44.6290283203125 44.82249069213867 C 43.69441986083984 45.75300979614258 42.66345977783203 46.59951019287109 41.56468963623047 47.33853149414062 C 40.45420074462891 48.0843391418457 39.27045822143555 48.7236213684082 38.04637908935547 49.23859024047852 C 36.79937744140625 49.76337814331055 35.49150085449219 50.16749954223633 34.15895080566406 50.43975830078125 C 31.43297386169434 50.99479293823242 28.53707122802734 50.99455261230469 25.81211853027344 50.43973159790039 C 24.47969818115234 50.16749954223633 23.17181968688965 49.76337814331055 21.92478942871094 49.23857879638672 C 20.69899940490723 48.72245025634766 19.51527976989746 48.08317947387695 18.40640830993652 47.33845138549805 C 17.30772972106934 46.59949111938477 16.27676963806152 45.75299835205078 15.34224891662598 44.82257080078125 C 14.40504932403564 43.8904914855957 13.55403900146484 42.86433029174805 12.812819480896 41.77248001098633 C 12.06477928161621 40.66941070556641 11.4223690032959 39.49147033691406 10.90342903137207 38.27140045166016 C 10.37458896636963 37.02822113037109 9.968668937683105 35.72666168212891 9.696969032287598 34.40299987792969 C 9.417439460754395 33.04632186889648 9.27570915222168 31.64904975891113 9.27570915222168 30.25 C 9.27570915222168 28.85028076171875 9.417439460754395 27.45266914367676 9.696939468383789 26.09613990783691 C 9.968668937683105 24.7723503112793 10.37458896636963 23.47077941894531 10.90342903137207 22.22759056091309 C 11.42238903045654 21.00748062133789 12.06479930877686 19.82954978942871 12.81292915344238 18.72635078430176 C 13.55618858337402 17.63253021240234 14.40717887878418 16.60638046264648 15.34224891662598 15.67640972137451 C 16.27998924255371 14.74380970001221 17.3109188079834 13.89733982086182 18.40651893615723 13.16044998168945 C 19.51533889770508 12.41578006744385 20.69904899597168 11.77651023864746 21.92481994628906 11.26039981842041 C 23.17343902587891 10.73493003845215 24.48135948181152 10.33113956451416 25.81225967407227 10.06023979187012 C 27.17820930480957 9.782119750976562 28.58249855041504 9.64109992980957 29.98610877990723 9.64109992980957 M 30.08049964904785 49.4256706237793 C 31.38478851318359 49.4256706237793 32.6849479675293 49.29455184936523 33.9449577331543 49.03593063354492 C 35.17536926269531 48.78403091430664 36.38655853271484 48.40822982788086 37.54470062255859 47.91907119750977 C 38.68206024169922 47.43737030029297 39.77771759033203 46.84255981445312 40.8012580871582 46.15116119384766 C 41.8182373046875 45.46411895751953 42.77335739135742 44.67630004882812 43.64008712768555 43.80958938598633 C 44.50675964355469 42.94292068481445 45.29457855224609 41.98780059814453 45.98165893554688 40.97077178955078 C 46.67308044433594 39.94717025756836 47.26788711547852 38.85150909423828 47.74948883056641 37.71437835693359 C 48.23871994018555 36.55611038208008 48.61451721191406 35.34492111206055 48.86644744873047 34.1143913269043 C 49.12504959106445 32.85345077514648 49.25616836547852 31.55327987670898 49.25616836547852 30.25 C 49.25616836547852 28.94570922851562 49.12504959106445 27.64554977416992 48.86642837524414 26.38554000854492 C 48.61412048339844 25.15313911437988 48.23833084106445 23.94197082519531 47.74956893920898 22.78580093383789 C 47.26828002929688 21.64938926696777 46.6734504699707 20.55335998535156 45.98165893554688 19.52823066711426 C 45.29809951782227 18.51638984680176 44.51025009155273 17.56159019470215 43.64008712768555 16.69042015075684 C 42.77336883544922 15.82371044158936 41.8182487487793 15.03588008880615 40.8011589050293 14.34877014160156 C 39.77762985229492 13.65637969970703 38.68203735351562 13.06161975860596 37.54487991333008 12.58102035522461 C 36.38198089599609 12.08983993530273 35.17084884643555 11.71405029296875 33.94485855102539 11.46405982971191 C 32.68491744995117 11.2054500579834 31.3847599029541 11.07433032989502 30.08049964904785 11.07433032989502 C 28.7762393951416 11.07433032989502 27.4760799407959 11.2054500579834 26.21588897705078 11.46411037445068 C 24.98820877075195 11.71444988250732 23.7770881652832 12.09022998809814 22.61615943908691 12.58100032806396 C 21.47983932495117 13.06124973297119 20.38388824462891 13.65602970123291 19.35880851745605 14.34877967834473 C 18.34173965454102 15.03656005859375 17.38693809509277 15.8244104385376 16.52091979980469 16.69042015075684 C 15.65283870697021 17.55849075317383 14.86501884460449 18.51326942443848 14.17939949035645 19.52813911437988 C 13.48485946655273 20.55735969543457 12.89004898071289 21.65335083007812 12.4114990234375 22.78568077087402 C 11.92072868347168 23.94659042358398 11.54494857788086 25.1577091217041 11.29455947875977 26.38563919067383 C 11.03594875335693 27.64558029174805 10.90482902526855 28.94573974609375 10.90482902526855 30.25 C 10.90482902526855 31.55324935913086 11.03594875335693 32.85342025756836 11.29460906982422 34.11460876464844 C 11.54455947875977 35.34035110473633 11.92033863067627 36.55149078369141 12.4114990234375 37.71434020996094 C 12.8904390335083 38.84756088256836 13.48522853851318 39.94318008422852 14.17934894561768 40.97076034545898 C 14.86642932891846 41.98780059814453 15.65424919128418 42.94292068481445 16.52091979980469 43.80958938598633 C 17.38694953918457 44.67559814453125 18.34174919128418 45.46343994140625 19.35863876342773 46.1511116027832 C 20.38379859924316 46.84291076660156 21.47983932495117 47.43774032592773 22.61616897583008 47.91901016235352 C 23.77251815795898 48.40784072875977 24.98368835449219 48.78363037109375 26.21613883972168 49.03594970703125 C 27.47604942321777 49.29455184936523 28.77620887756348 49.4256706237793 30.08049964904785 49.4256706237793 M 30.00640869140625 14.59006023406982 C 31.07417869567871 14.59006023406982 32.14105987548828 14.69692993164062 33.17744064331055 14.90771007537842 C 34.18775939941406 15.11326026916504 35.18156051635742 15.42041969299316 36.13119888305664 15.82065010070801 C 37.0648307800293 16.21386909484863 37.96442794799805 16.69947052001953 38.80513763427734 17.26403999328613 C 39.64011764526367 17.82585906982422 40.42348861694336 18.46916961669922 41.13338851928711 19.17598915100098 C 41.84499740600586 19.88348007202148 42.49147033691406 20.66312026977539 43.05485916137695 21.49324989318848 C 43.62405776977539 22.33213996887207 44.11246871948242 23.22734069824219 44.50658798217773 24.15415000915527 C 44.90731048583984 25.0984001159668 45.21586990356445 26.08737945556641 45.42374038696289 27.09382057189941 C 45.63591003417969 28.12688064575195 45.74348831176758 29.18877029418945 45.74348831176758 30.25 C 45.74348831176758 31.31056022644043 45.63591003417969 32.37210845947266 45.42369842529297 33.40538024902344 C 45.21600723266602 34.41093063354492 44.9074592590332 35.40021896362305 44.50650024414062 36.3460693359375 C 44.11087799072266 37.27537155151367 43.62245941162109 38.17023849487305 43.05484771728516 39.0057487487793 C 42.49148941040039 39.83583831787109 41.84502029418945 40.615478515625 41.13348770141602 41.32289886474609 C 40.42350006103516 42.02981948852539 39.64012908935547 42.67311859130859 38.80498886108398 43.23503875732422 C 37.96171951293945 43.80133056640625 37.06212997436523 44.28726959228516 36.13106918334961 44.67940139770508 C 35.17981719970703 45.07926940917969 34.18607711791992 45.38607025146484 33.17742919921875 45.59128952026367 C 31.10476684570312 46.01281356811523 28.90810966491699 46.01282119750977 26.83532905578613 45.59128189086914 C 25.8277587890625 45.38607025146484 24.83405876159668 45.07928085327148 23.88161849975586 44.67935180664062 C 22.94970893859863 44.28684997558594 22.05042839050293 43.80089950561523 21.20878982543945 43.23500061035156 C 20.37379837036133 42.67387008666992 19.59005928039551 42.03054809570312 18.87932968139648 41.32289886474609 C 18.16879844665527 40.61544036865234 17.52238845825195 39.83589172363281 16.95803833007812 39.00582885742188 C 16.39219856262207 38.17293930053711 15.90410900115967 37.27806854248047 15.50727939605713 36.3459587097168 C 15.10536861419678 35.4002799987793 14.79677867889404 34.41085815429688 14.59008884429932 33.40517044067383 C 14.37792873382568 32.37213897705078 14.27034854888916 31.31059074401855 14.27034854888916 30.25 C 14.27034854888916 29.18873977661133 14.37792873382568 28.12685012817383 14.59008884429932 27.09379959106445 C 14.79691886901855 26.08745002746582 15.10551929473877 25.09835052490234 15.50729942321777 24.15401077270508 C 15.90078926086426 23.22868919372559 16.38883972167969 22.33353042602539 16.95807838439941 21.49309921264648 C 17.52241897583008 20.66307067871094 18.16881942749023 19.88352012634277 18.87942886352539 19.17598915100098 C 19.5932788848877 18.46626091003418 20.37698936462402 17.82295989990234 21.20874977111816 17.26400947570801 C 22.0477294921875 16.69989967346191 22.94701957702637 16.21427917480469 23.88164901733398 15.82063961029053 C 24.83231925964355 15.42041015625 25.82607841491699 15.11326026916504 26.83541870117188 14.90769004821777 C 27.87278938293457 14.69692993164062 28.93966865539551 14.59006023406982 30.00640869140625 14.59006023406982 M 30.08049964904785 44.4827995300293 C 32.00241088867188 44.4827995300293 33.86628723144531 44.10633850097656 35.62051773071289 43.36383056640625 C 36.46489715576172 43.00724029541016 37.27840042114258 42.56579971313477 38.03862762451172 42.05165100097656 C 38.7928581237793 41.54281997680664 39.50135040283203 40.9582405090332 40.14455032348633 40.31404876708984 C 40.78837966918945 39.67021942138672 41.37336730957031 38.96128845214844 41.8831901550293 38.20706939697266 C 42.39703750610352 37.44581985473633 42.83853912353516 36.63254165649414 43.19535827636719 35.78995895385742 C 43.93716812133789 34.03504943847656 44.31329727172852 32.17113876342773 44.31329727172852 30.25 C 44.31329727172852 28.32885932922363 43.93716812133789 26.46495056152344 43.19540786743164 24.71015930175781 C 42.8377799987793 23.86565971374512 42.39627838134766 23.05204010009766 41.88325881958008 22.29202079772949 C 41.37271881103516 21.53672027587891 40.78775787353516 20.82817077636719 40.14443969726562 20.18584060668945 C 39.50235748291016 19.54277038574219 38.79380798339844 18.95780944824219 38.03857803344727 18.44730949401855 C 37.27845764160156 17.93421936035156 36.46483993530273 17.49271965026855 35.62046051025391 17.13513946533203 C 33.86557006835938 16.39333915710449 32.00165939331055 16.01721000671387 30.08049964904785 16.01721000671387 C 28.15934944152832 16.01721000671387 26.29543876647949 16.39333915710449 24.54065895080566 17.13508987426758 C 23.69615936279297 17.49271965026855 22.88253974914551 17.93421936035156 22.12251853942871 18.44724082946777 C 21.36717987060547 18.95782089233398 20.65863990783691 19.54277038574219 20.01634979248047 20.18605995178223 C 19.37325859069824 20.82815933227539 18.78829956054688 21.53671073913574 18.27780914306641 22.29191970825195 C 17.76474952697754 23.05200004577637 17.32324981689453 23.86561965942383 16.96563911437988 24.71003913879395 C 16.22383880615234 26.46492958068848 15.8477087020874 28.3288402557373 15.8477087020874 30.25 C 15.8477087020874 32.17116165161133 16.22383880615234 34.03506851196289 16.96558952331543 35.78984069824219 C 17.32248878479004 36.6325798034668 17.76397895812988 37.44586181640625 18.27772903442383 38.20695877075195 C 18.78764915466309 38.96129989624023 19.37263870239258 39.67023086547852 20.01656913757324 40.31415939331055 C 20.65963935852051 40.95822906494141 21.36812973022461 41.54280853271484 22.12255859375 42.05178070068359 C 22.88259887695312 42.56579971313477 23.69609832763672 43.00724029541016 24.54062843322754 43.3638916015625 C 26.29471969604492 44.10633850097656 28.15859985351562 44.4827995300293 30.08049964904785 44.4827995300293 M 30.02467918395996 19.69939041137695 C 31.45728874206543 19.69939041137695 32.84558868408203 19.97820091247559 34.15102005004883 20.5280704498291 C 35.41479873657227 21.06051063537598 36.54869079589844 21.82095909118652 37.52124786376953 22.78836059570312 C 38.49480056762695 23.75777053833008 39.25914764404297 24.88622093200684 39.79303741455078 26.14232063293457 C 40.34645080566406 27.44359970092773 40.62704849243164 28.82563018798828 40.62704849243164 30.25 C 40.62704849243164 31.67473983764648 40.34643936157227 33.05643081665039 39.7930793762207 34.35657119750977 C 39.25914764404297 35.6137809753418 38.49477005004883 36.74227905273438 37.52124786376953 37.71062850952148 C 36.54858016967773 38.67916870117188 35.41464996337891 39.43997955322266 34.15087890625 39.97198867797852 C 32.84309768676758 40.52182006835938 31.4548397064209 40.80060958862305 30.02467918395996 40.80060958862305 C 28.59451866149902 40.80060958862305 27.20625877380371 40.52182006835938 25.89838981628418 39.97195053100586 C 24.63470840454102 39.43999099731445 23.50078964233398 38.67916870117188 22.52818870544434 37.71070861816406 C 21.55520820617676 36.74290084838867 20.79050827026367 35.61444854736328 20.25527954101562 34.35659027099609 C 19.70255851745605 33.05554962158203 19.42230987548828 31.67388916015625 19.42230987548828 30.25 C 19.42230987548828 28.82646942138672 19.70254898071289 27.44449043273926 20.25534820556641 26.1422290802002 C 20.79051971435547 24.88554954528809 21.55517959594727 23.75715065002441 22.52818870544434 22.78828048706055 C 23.50143814086914 21.82019996643066 24.63533973693848 21.05974960327148 25.89834976196289 20.52806091308594 C 27.20376968383789 19.97820091247559 28.59206962585449 19.69939041137695 30.02467918395996 19.69939041137695 M 30.08049964904785 39.35012054443359 C 31.30956840515137 39.35012054443359 32.50141906738281 39.10956954956055 33.62289047241211 38.63518142700195 C 34.70821762084961 38.17557907104492 35.68124771118164 37.51930999755859 36.51511764526367 36.68444061279297 C 37.35176849365234 35.84878921508789 38.00801086425781 34.87548828125 38.46567916870117 33.7913818359375 C 38.94007873535156 32.67087936401367 39.18061828613281 31.47938919067383 39.18061828613281 30.25 C 39.18061828613281 29.02092933654785 38.94006729125977 27.82908058166504 38.46567916870117 26.70760917663574 C 38.00606918334961 25.62227058410645 37.34980773925781 24.64925003051758 36.51495742797852 23.81538963317871 C 35.67950057983398 22.97895050048828 34.70652008056641 22.32270050048828 33.62295913696289 21.86486053466797 C 32.50143051147461 21.39043045043945 31.30956840515137 21.14987945556641 30.08049964904785 21.14987945556641 C 28.85141944885254 21.14987945556641 27.65956878662109 21.39043045043945 26.5379695892334 21.86488914489746 C 25.45446968078613 22.32271003723145 24.48148918151855 22.97895050048828 23.64588928222656 23.81555938720703 C 22.8094482421875 24.6509895324707 22.1532096862793 25.62397003173828 21.69535827636719 26.70754051208496 C 21.22092819213867 27.82906913757324 20.98037910461426 29.02092933654785 20.98037910461426 30.25 C 20.98037910461426 31.47938919067383 21.22091865539551 32.67089080810547 21.69540977478027 33.79158020019531 C 22.15298843383789 34.87546920776367 22.80921936035156 35.84878158569336 23.64605903625488 36.68460845947266 C 24.47973823547363 37.51930999755859 25.45276832580566 38.17557144165039 26.53804969787598 38.63515090942383 C 27.65957832336426 39.10956954956055 28.8514289855957 39.35012054443359 30.08049964904785 39.35012054443359 M 30.08049964904785 24.68490028381348 C 30.83357810974121 24.68490028381348 31.56226921081543 24.83194923400879 32.24607086181641 25.12186050415039 C 32.90691757202148 25.40088081359863 33.5023078918457 25.80213928222656 34.0158576965332 26.31464004516602 C 34.52610015869141 26.82488059997559 34.92704772949219 27.41994094848633 35.20755767822266 28.0832405090332 C 35.49821853637695 28.7698802947998 35.64559936523438 29.49888038635254 35.64559936523438 30.25 C 35.64559936523438 31.00149917602539 35.49821090698242 31.73019027709961 35.2076301574707 32.41556930541992 C 34.92811965942383 33.07757186889648 34.52719879150391 33.67295837402344 34.01570892333984 34.18550872802734 C 33.50345993041992 34.69670104980469 32.9080696105957 35.09761810302734 32.2463493347168 35.37701034545898 C 31.56068992614746 35.66770935058594 30.83199882507324 35.81510162353516 30.08049964904785 35.81510162353516 C 29.32937812805176 35.81510162353516 28.60037994384766 35.66772079467773 27.91379928588867 35.37709045410156 C 27.25044822692871 35.09656143188477 26.6553897857666 34.69561004638672 26.14499855041504 34.18521118164062 C 25.63262939453125 33.67177963256836 25.23136901855469 33.07638931274414 24.95236968994141 32.41561126708984 C 24.66241836547852 31.72919082641602 24.51539993286133 31.00057983398438 24.51539993286133 30.25 C 24.51539993286133 29.49979972839355 24.66239929199219 28.7708797454834 24.9523983001709 28.08329963684082 C 25.2324390411377 27.42111015319824 25.63373947143555 26.8260498046875 26.14528846740723 26.31448936462402 C 26.65841865539551 25.80241012573242 27.25343894958496 25.40117073059082 27.91373825073242 25.12192916870117 C 28.59879875183105 24.83193969726562 29.32779884338379 24.68490028381348 30.08049964904785 24.68490028381348 M 30.31698989868164 60.5 L 1.248409032821655 60.5 L 1.248409032821655 54.52693176269531 L 12.1856689453125 54.52693176269531 C 8.485109329223633 51.76826858520508 5.419909000396729 48.14382171630859 3.318938970565796 44.04843902587891 C 1.116459012031555 39.75413131713867 -9.851074764810619e-07 35.11167907714844 -9.851074764810619e-07 30.25 C -9.851074764810619e-07 26.16679954528809 0.7987790107727051 22.20438003540039 2.373999118804932 18.47540092468262 C 3.896449089050293 14.87329006195068 6.074559211730957 11.63860034942627 8.849469184875488 8.860639572143555 C 11.62438869476318 6.081669807434082 14.85501861572266 3.90051007270813 18.45306968688965 2.377049922943115 C 22.1779899597168 0.7997900247573853 26.13533973693848 -3.552713678800501e-15 30.21345901489258 -3.552713678800501e-15 C 30.37788963317871 -3.552713678800501e-15 30.55549812316895 0.00203000009059906 30.7564697265625 0.005080000031739473 L 30.75950813293457 -3.552713678800501e-15 L 47.56021881103516 -3.552713678800501e-15 C 48.03318786621094 0.0710500031709671 50.9278678894043 1.673679947853088 54.81213760375977 5.97307014465332 L 48.24126052856445 5.97307014465332 C 51.94181823730469 8.73173999786377 55.00700759887695 12.35618019104004 57.10799789428711 16.45155906677246 C 59.31047058105469 20.74587059020996 60.42691802978516 25.38832092285156 60.42691802978516 30.25 C 60.42691802978516 34.32508087158203 59.63119888305664 38.27938079833984 58.06205749511719 42.00226974487305 C 56.54671859741211 45.59828948974609 54.37570953369141 48.82891845703125 51.6109504699707 51.60586929321289 C 48.84719848632812 54.38280868530273 45.626708984375 56.56497955322266 42.04084777832031 58.09453964233398 C 38.32912063598633 59.6768684387207 34.38496780395508 60.48680877685547 30.31698989868164 60.5 Z M 30.09165954589844 4.225299835205078 C 15.84359931945801 4.225299835205078 4.251688957214355 15.90042972564697 4.251688957214355 30.25 C 4.251688957214355 44.59957122802734 15.84359931945801 56.27471160888672 30.09165954589844 56.27471160888672 C 44.33974075317383 56.27471160888672 55.93164825439453 44.59957122802734 55.93164825439453 30.25 C 55.93164825439453 15.90042972564697 44.33974075317383 4.225299835205078 30.09165954589844 4.225299835205078 Z M 30.08049964904785 55.16128921508789 C 28.39057922363281 55.16128921508789 26.70066833496094 54.99179077148438 25.05946922302246 54.65584182739258 C 23.45988845825195 54.32799911499023 21.88668823242188 53.83980941772461 20.38352966308594 53.20341873168945 C 18.90776824951172 52.57921981811523 17.48377990722656 51.80683135986328 16.15213966369629 50.90756988525391 C 14.83268928527832 50.01541900634766 13.59240913391113 48.99232864379883 12.46477890014648 47.86471176147461 C 11.33816909790039 46.73809051513672 10.31406879425049 45.49679946899414 9.422928810119629 44.17835998535156 C 8.523669242858887 42.84672164916992 7.750268936157227 41.4227294921875 7.126069068908691 39.94697189331055 C 6.49069881439209 38.44279861450195 6.002499103546143 36.86959838867188 5.674668788909912 35.27001953125 C 5.338708877563477 33.62881088256836 5.168199062347412 31.93992042541504 5.168199062347412 30.25 C 5.168199062347412 28.56007957458496 5.338708877563477 26.87017059326172 5.674668788909912 25.22896957397461 C 6.002499103546143 23.63039970397949 6.49069881439209 22.05721092224121 7.126069068908691 20.55303001403809 C 7.750268936157227 19.0772705078125 8.523669242858887 17.65328025817871 9.422928810119629 16.32164001464844 C 10.31406879425049 15.00218963623047 11.33816909790039 13.76189994812012 12.46477890014648 12.63428020477295 C 13.59240913391113 11.50767040252686 14.83268928527832 10.48357009887695 16.15213966369629 9.592430114746094 C 17.48377990722656 8.693169593811035 18.90776824951172 7.919769763946533 20.38352966308594 7.295569896697998 C 21.88668823242188 6.660200119018555 23.45988845825195 6.171999931335449 25.05946922302246 5.844170093536377 C 26.70066833496094 5.508210182189941 28.39057922363281 5.337699890136719 30.08049964904785 5.337699890136719 C 31.77041816711426 5.337699890136719 33.4603385925293 5.508210182189941 35.10152816772461 5.844170093536377 C 36.70111846923828 6.171999931335449 38.27430725097656 6.660200119018555 39.77746963500977 7.295569896697998 C 41.25322723388672 7.920780181884766 42.67723083496094 8.693169593811035 44.00885772705078 9.592430114746094 C 45.32830810546875 10.48357009887695 46.56859970092773 11.50767040252686 47.69520950317383 12.63428020477295 C 48.82283782958984 13.76189994812012 49.84592056274414 15.00218963623047 50.73806762695312 16.32164001464844 C 51.6373291015625 17.65328025817871 52.40971755981445 19.0772705078125 53.03493881225586 20.55303001403809 C 53.67030715942383 22.05721092224121 54.15850067138672 23.63039970397949 54.4863395690918 25.22896957397461 C 54.82228851318359 26.87017059326172 54.99179077148438 28.56007957458496 54.99179077148438 30.25 C 54.99179077148438 31.93992042541504 54.82228851318359 33.62881088256836 54.4863395690918 35.27001953125 C 54.15850067138672 36.86959838867188 53.67030715942383 38.44279861450195 53.03493881225586 39.94697189331055 C 52.40971755981445 41.4227294921875 51.6373291015625 42.84672164916992 50.73806762695312 44.17835998535156 C 49.84692764282227 45.49679946899414 48.82283782958984 46.73809051513672 47.69520950317383 47.86471176147461 C 46.56859970092773 48.99232864379883 45.32830810546875 50.01541900634766 44.00885772705078 50.90756988525391 C 42.67723083496094 51.80683135986328 41.25322723388672 52.57921981811523 39.77746963500977 53.20341873168945 C 38.27430725097656 53.83980941772461 36.70111846923828 54.32799911499023 35.10152816772461 54.65584182739258 C 33.4603385925293 54.99179077148438 31.77041816711426 55.16128921508789 30.08049964904785 55.16128921508789 Z M 29.98610877990723 9.841099739074707 C 28.59357833862305 9.841099739074707 27.20307922363281 9.981160163879395 25.85215950012207 10.2562198638916 C 24.5357494354248 10.524169921875 23.23963928222656 10.92405986785889 22.00239944458008 11.44474029541016 C 20.78748893737793 11.95627975463867 19.61520957946777 12.58961963653564 18.51802825927734 13.3264799118042 C 17.43302917480469 14.05624008178711 16.41095924377441 14.89562034606934 15.48327922821045 15.8182201385498 C 14.55458927154541 16.74184036254883 13.71216869354248 17.75882911682129 12.97834873199463 18.83876037597656 C 12.23843860626221 19.92984008789062 11.60205936431885 21.09604072570801 11.08746910095215 22.30587005615234 C 10.56374931335449 23.53702926635742 10.16181945800781 24.82603073120117 9.89285945892334 26.13635063171387 C 9.615769386291504 27.48118019104004 9.475708961486816 28.86457061767578 9.475708961486816 30.25 C 9.475708961486816 31.6344108581543 9.615769386291504 33.0178108215332 9.89285945892334 34.36264038085938 C 10.16181945800781 35.67295074462891 10.56374931335449 36.96195983886719 11.08746910095215 38.19311141967773 C 11.60205936431885 39.40295028686523 12.23843860626221 40.56914138793945 12.97834873199463 41.66022872924805 C 13.71216869354248 42.74116897583008 14.55458927154541 43.75714874267578 15.48327922821045 44.68075942993164 C 16.41095924377441 45.6043815612793 17.43302917480469 46.44274139404297 18.51802825927734 47.17250061035156 C 19.61520957946777 47.90937042236328 20.78748893737793 48.54270172119141 22.00239944458008 49.05424880981445 C 23.23963928222656 49.57492828369141 24.5357494354248 49.97481918334961 25.85215950012207 50.24377822875977 C 28.55301856994629 50.79370498657227 31.41622352600098 50.79410171508789 34.11904907226562 50.24377822875977 C 35.43545913696289 49.97481918334961 36.73155975341797 49.57492828369141 37.96879959106445 49.05424880981445 C 39.18473815917969 48.54270172119141 40.35599899291992 47.90937042236328 41.45317840576172 47.17250061035156 C 42.53817749023438 46.44274139404297 43.56023788452148 45.6043815612793 44.48791885375977 44.68075942993164 C 45.41661834716797 43.75714874267578 46.25902938842773 42.74116897583008 46.99284744262695 41.66022872924805 C 47.73377990722656 40.56914138793945 48.36914825439453 39.40295028686523 48.88372802734375 38.19311141967773 C 49.4074592590332 36.96195983886719 49.80937957763672 35.67295074462891 50.07835006713867 34.36264038085938 C 50.35543060302734 33.0178108215332 50.49549865722656 31.6344108581543 50.49549865722656 30.25 C 50.49549865722656 28.86457061767578 50.35543060302734 27.48118019104004 50.07835006713867 26.13635063171387 C 49.80937957763672 24.82603073120117 49.4074592590332 23.53702926635742 48.88372802734375 22.30587005615234 C 48.36914825439453 21.09604072570801 47.73276901245117 19.92984008789062 46.99284744262695 18.83876037597656 C 46.25902938842773 17.75882911682129 45.41661834716797 16.74184036254883 44.48791885375977 15.8182201385498 C 43.56023788452148 14.89562034606934 42.53817749023438 14.05624008178711 41.45317840576172 13.3264799118042 C 40.35599899291992 12.58961963653564 39.18473815917969 11.95627975463867 37.96879959106445 11.44474029541016 C 36.73155975341797 10.92405986785889 35.43545913696289 10.524169921875 34.11904907226562 10.2562198638916 C 32.76812744140625 9.981160163879395 31.37762832641602 9.841099739074707 29.98610877990723 9.841099739074707 Z M 30.08049964904785 49.62567138671875 C 28.7661190032959 49.62567138671875 27.45173835754395 49.49372863769531 26.17592811584473 49.23186874389648 C 24.93158912658691 48.97711181640625 23.70753860473633 48.59751129150391 22.53829956054688 48.10322952270508 C 21.39037895202637 47.61705017089844 20.28304862976074 47.01620101928711 19.24676895141602 46.31689071655273 C 18.22165870666504 45.6236686706543 17.25642967224121 44.82793045043945 16.3794994354248 43.95101165771484 C 15.5025691986084 43.07408142089844 14.70683860778809 42.10884094238281 14.0136194229126 41.08272171020508 C 13.31430912017822 40.04745101928711 12.71242904663086 38.94012069702148 12.22727870941162 37.79219818115234 C 11.73298931121826 36.6219482421875 11.35237884521484 35.39891052246094 11.09863948822021 34.15457153320312 C 10.83677864074707 32.87773895263672 10.70482921600342 31.56438064575195 10.70482921600342 30.25 C 10.70482921600342 28.93460083007812 10.83677864074707 27.62124061584473 11.09863948822021 26.34543037414551 C 11.35237884521484 25.10108947753906 11.73298931121826 23.87704086303711 12.22727870941162 22.70779991149902 C 12.71242904663086 21.55986976623535 13.31430912017822 20.45255088806152 14.0136194229126 19.41626930236816 C 14.70683860778809 18.39014053344727 15.5025691986084 17.4259204864502 16.3794994354248 16.54899978637695 C 17.25642967224121 15.67206954956055 18.22165870666504 14.87633037567139 19.24676895141602 14.18311023712158 C 20.28304862976074 13.48278999328613 21.39037895202637 12.88193035125732 22.53829956054688 12.39678001403809 C 23.70753860473633 11.90248966217041 24.93158912658691 11.52188014984131 26.17592811584473 11.26813983917236 C 28.72754669189453 10.74442005157471 31.43344879150391 10.74442005157471 33.98506927490234 11.26813983917236 C 35.22941970825195 11.52188014984131 36.45244979858398 11.90248966217041 37.62269973754883 12.39678001403809 C 38.7706298828125 12.88193035125732 39.87796020507812 13.48278999328613 40.9132194519043 14.18311023712158 C 41.93935012817383 14.87633037567139 42.90457916259766 15.67206954956055 43.78150939941406 16.54899978637695 C 44.65741729736328 17.4259204864502 45.45417022705078 18.39014053344727 46.14738845825195 19.41626930236816 C 46.84669876098633 20.45255088806152 47.44755935668945 21.55986976623535 47.9337272644043 22.70779991149902 C 48.42802047729492 23.87704086303711 48.80760955810547 25.10108947753906 49.06237030029297 26.34543037414551 C 49.3242301940918 27.62124061584473 49.45616912841797 28.93460083007812 49.45616912841797 30.25 C 49.45616912841797 31.56438064575195 49.3242301940918 32.87773895263672 49.06237030029297 34.15457153320312 C 48.80760955810547 35.39891052246094 48.42802047729492 36.6219482421875 47.9337272644043 37.79219818115234 C 47.44755935668945 38.94012069702148 46.84669876098633 40.04745101928711 46.14738845825195 41.08272171020508 C 45.45417022705078 42.10884094238281 44.65843963623047 43.07408142089844 43.78150939941406 43.95101165771484 C 42.90457916259766 44.82793045043945 41.93935012817383 45.6236686706543 40.9132194519043 46.31689071655273 C 39.87796020507812 47.01620101928711 38.7706298828125 47.61705017089844 37.62269973754883 48.10322952270508 C 36.45244979858398 48.59751129150391 35.22941970825195 48.97711181640625 33.98506927490234 49.23186874389648 C 32.70925903320312 49.49372863769531 31.39487838745117 49.62567138671875 30.08049964904785 49.62567138671875 Z M 30.00640869140625 14.79006004333496 C 28.9528694152832 14.79006004333496 27.89933967590332 14.89562034606934 26.8752384185791 15.1036901473999 C 25.87854957580566 15.30667972564697 24.89707946777344 15.61015033721924 23.95924949645996 16.00497055053711 C 23.0386791229248 16.39269065856934 22.15057945251465 16.87174987792969 21.32033920288086 17.42997932434082 C 20.4972095489502 17.98314094543457 19.72380828857422 18.61850929260254 19.02043914794922 19.31781959533691 C 18.31807899475098 20.01712989807129 17.67966842651367 20.78749084472656 17.12346839904785 21.60555076599121 C 16.56319808959961 22.4327392578125 16.08109855651855 23.31575965881348 15.69134902954102 24.23228073120117 C 15.29449939727783 25.16502952575684 14.99000930786133 26.14142036437988 14.7859992980957 27.13405990600586 C 14.57691860198975 28.15206909179688 14.47034931182861 29.20052909851074 14.47034931182861 30.25 C 14.47034931182861 31.29846000671387 14.57691860198975 32.34692001342773 14.7859992980957 33.36492919921875 C 14.99000930786133 34.35755920410156 15.29449939727783 35.33396148681641 15.69134902954102 36.26773071289062 C 16.08109855651855 37.18321990966797 16.56218910217285 38.0672607421875 17.12346839904785 38.89344024658203 C 17.67966842651367 39.71149826049805 18.31807899475098 40.48184967041016 19.02043914794922 41.18117141723633 C 19.72380828857422 41.88148880004883 20.4972095489502 42.51583862304688 21.32033920288086 43.06900024414062 C 22.15057945251465 43.62723159790039 23.0386791229248 44.1073112487793 23.95924949645996 44.49502944946289 C 24.89707946777344 44.88882827758789 25.87854957580566 45.19231033325195 26.8752384185791 45.39530181884766 C 28.92141914367676 45.81143951416016 31.09141159057617 45.81143951416016 33.13756942749023 45.39530181884766 C 34.13528823852539 45.19231033325195 35.11676025390625 44.88882827758789 36.05356979370117 44.49502944946289 C 36.97414016723633 44.1073112487793 37.86222839355469 43.62723159790039 38.69348907470703 43.06900024414062 C 39.51560974121094 42.51583862304688 40.28900909423828 41.88148880004883 40.99237823486328 41.18117141723633 C 41.69575881958008 40.48184967041016 42.33416748046875 39.71149826049805 42.88935852050781 38.89344024658203 C 43.45063018798828 38.0672607421875 43.9327392578125 37.18321990966797 44.32247924804688 36.26773071289062 C 44.71831893920898 35.33396148681641 45.02280807495117 34.35755920410156 45.22782897949219 33.36492919921875 C 45.43690872192383 32.34692001342773 45.54348754882812 31.29846000671387 45.54348754882812 30.25 C 45.54348754882812 29.20052909851074 45.43690872192383 28.15206909179688 45.22782897949219 27.13405990600586 C 45.02280807495117 26.14142036437988 44.71831893920898 25.16502952575684 44.32247924804688 24.23228073120117 C 43.9327392578125 23.31575965881348 43.45063018798828 22.4327392578125 42.88935852050781 21.60555076599121 C 42.33416748046875 20.78749084472656 41.69575881958008 20.01712989807129 40.99237823486328 19.31781959533691 C 40.2900276184082 18.61850929260254 39.51560974121094 17.98314094543457 38.69348907470703 17.42997932434082 C 37.86222839355469 16.87174987792969 36.97414016723633 16.39269065856934 36.05356979370117 16.00497055053711 C 35.11676025390625 15.61015033721924 34.13528823852539 15.30667972564697 33.13756942749023 15.1036901473999 C 32.1144905090332 14.89562034606934 31.06095886230469 14.79006004333496 30.00640869140625 14.79006004333496 Z M 30.08049964904785 44.68280029296875 C 28.13176918029785 44.68280029296875 26.24190902709961 44.30117034912109 24.46266937255859 43.54806900024414 C 23.60705947875977 43.18674087524414 22.78188896179199 42.73913955688477 22.01051902770996 42.21744918823242 C 21.24624824523926 41.70183944702148 20.52764892578125 41.10910034179688 19.87503814697266 40.45547103881836 C 19.22139930725098 39.80183029174805 18.62865829467773 39.08322906494141 18.11203956604004 38.3189697265625 C 17.59135818481445 37.54759979248047 17.14376831054688 36.72343826293945 16.78141975402832 35.86782836914062 C 16.02932929992676 34.08860015869141 15.64770889282227 32.19873046875 15.64770889282227 30.25 C 15.64770889282227 28.30126953125 16.02932929992676 26.41139984130859 16.78141975402832 24.63216972351074 C 17.14376831054688 23.77655982971191 17.59135818481445 22.95138931274414 18.11203956604004 22.18001937866211 C 18.62865829467773 21.41575050354004 19.22139930725098 20.6971607208252 19.87503814697266 20.04453086853027 C 20.52764892578125 19.39089965820312 21.24624824523926 18.79816055297852 22.01051902770996 18.28153991699219 C 22.78188896179199 17.76086044311523 23.60705947875977 17.31325912475586 24.46266937255859 16.95092010498047 C 26.24190902709961 16.19882965087891 28.13176918029785 15.81721019744873 30.08049964904785 15.81721019744873 C 32.02922821044922 15.81721019744873 33.91909790039062 16.19882965087891 35.69832992553711 16.95092010498047 C 36.55393981933594 17.31325912475586 37.37910842895508 17.76086044311523 38.15047836303711 18.28153991699219 C 38.91474914550781 18.79816055297852 39.63335037231445 19.39089965820312 40.28596878051758 20.04453086853027 C 40.93960952758789 20.6971607208252 41.5323486328125 21.41575050354004 42.04895782470703 22.18001937866211 C 42.56963729858398 22.95138931274414 43.01723861694336 23.77655982971191 43.37957763671875 24.63216972351074 C 44.13166809082031 26.41139984130859 44.51329803466797 28.30126953125 44.51329803466797 30.25 C 44.51329803466797 32.19873046875 44.13166809082031 34.08860015869141 43.37957763671875 35.86782836914062 C 43.01723861694336 36.72343826293945 42.56963729858398 37.54759979248047 42.04895782470703 38.3189697265625 C 41.5323486328125 39.08322906494141 40.93960952758789 39.80183029174805 40.28596878051758 40.45547103881836 C 39.63335037231445 41.10910034179688 38.91474914550781 41.70183944702148 38.15047836303711 42.21744918823242 C 37.37910842895508 42.73913955688477 36.55393981933594 43.18674087524414 35.69832992553711 43.54806900024414 C 33.91909790039062 44.30117034912109 32.02922821044922 44.68280029296875 30.08049964904785 44.68280029296875 Z M 30.02467918395996 19.89938926696777 C 28.61996841430664 19.89938926696777 27.25788879394531 20.17242050170898 25.97598838806152 20.71237945556641 C 24.73670959472656 21.23406982421875 23.62430953979492 21.98007011413574 22.66922950744629 22.93008041381836 C 21.71414947509766 23.88109970092773 20.96408843994141 24.9884204864502 20.43935966491699 26.22059059143066 C 19.89735984802246 27.4974193572998 19.6223087310791 28.85239028930664 19.6223087310791 30.25 C 19.6223087310791 31.64760971069336 19.89735984802246 33.00257873535156 20.43935966491699 34.27838897705078 C 20.96408843994141 35.51156997680664 21.71414947509766 36.61890029907227 22.66922950744629 37.56890869140625 C 23.62430953979492 38.51993179321289 24.73670959472656 39.26593017578125 25.97598838806152 39.78762054443359 C 27.25788879394531 40.32656860351562 28.61996841430664 40.60060882568359 30.02467918395996 40.60060882568359 C 31.42837905883789 40.60060882568359 32.79146957397461 40.32656860351562 34.07336807250977 39.78762054443359 C 35.31263732910156 39.26593017578125 36.425048828125 38.51993179321289 37.38013076782227 37.56890869140625 C 38.33520889282227 36.61890029907227 39.08526992797852 35.51156997680664 39.60898971557617 34.27838897705078 C 40.15200042724609 33.00257873535156 40.42704772949219 31.64760971069336 40.42704772949219 30.25 C 40.42704772949219 28.85239028930664 40.15200042724609 27.4974193572998 39.60898971557617 26.22059059143066 C 39.08526992797852 24.9884204864502 38.33520889282227 23.88109970092773 37.38013076782227 22.93008041381836 C 36.425048828125 21.98007011413574 35.31163024902344 21.23406982421875 34.07336807250977 20.71237945556641 C 32.79146957397461 20.17242050170898 31.42837905883789 19.89938926696777 30.02467918395996 19.89938926696777 Z M 30.08049964904785 39.55012130737305 C 28.82498931884766 39.55012130737305 27.60702896118164 39.30450057983398 26.46012878417969 38.81935119628906 C 25.35279846191406 38.35042953491211 24.35812950134277 37.68056106567383 23.50454902648926 36.82595062255859 C 22.64994812011719 35.97237014770508 21.97904968261719 34.97769927978516 21.51115989685059 33.86936187744141 C 21.02599906921387 32.72346878051758 20.7803783416748 31.5055103302002 20.7803783416748 30.25 C 20.7803783416748 28.9944896697998 21.02599906921387 27.77652931213379 21.51115989685059 26.62961959838867 C 21.97904968261719 25.52230072021484 22.64994812011719 24.52762985229492 23.50454902648926 23.67404937744141 C 24.35812950134277 22.81945037841797 25.35279846191406 22.14855003356934 26.46012878417969 21.68066024780273 C 27.60702896118164 21.19549942016602 28.82498931884766 20.94988059997559 30.08049964904785 20.94988059997559 C 31.33600807189941 20.94988059997559 32.55397033691406 21.19549942016602 33.70087814331055 21.68066024780273 C 34.80820846557617 22.14855003356934 35.8028678894043 22.81945037841797 36.65645980834961 23.67404937744141 C 37.51105880737305 24.52762985229492 38.18092727661133 25.52230072021484 38.64984893798828 26.62961959838867 C 39.1349983215332 27.77652931213379 39.38061904907227 28.9944896697998 39.38061904907227 30.25 C 39.38061904907227 31.5055103302002 39.1349983215332 32.72346878051758 38.64984893798828 33.86936187744141 C 38.18194961547852 34.97769927978516 37.51105880737305 35.97237014770508 36.65645980834961 36.82595062255859 C 35.8028678894043 37.68056106567383 34.80820846557617 38.35042953491211 33.70087814331055 38.81935119628906 C 32.55397033691406 39.30450057983398 31.33600807189941 39.55012130737305 30.08049964904785 39.55012130737305 Z M 30.08049964904785 24.8848991394043 C 29.35581970214844 24.8848991394043 28.6534595489502 25.02597999572754 27.99169921875 25.30611038208008 C 27.3532886505127 25.57608985900879 26.77983856201172 25.96380043029785 26.28656959533691 26.4560604095459 C 25.79430961608887 26.94832038879395 25.40658950805664 27.52279090881348 25.1366081237793 28.16119956970215 C 24.85749816894531 28.82295989990234 24.71539878845215 29.52531051635742 24.71539878845215 30.25 C 24.71539878845215 30.97366905212402 24.85749816894531 31.67704010009766 25.1366081237793 32.3377799987793 C 25.40658950805664 32.97721099853516 25.79430961608887 33.5506591796875 26.28656959533691 34.04394149780273 C 26.77881813049316 34.53619003295898 27.3532886505127 34.92290115356445 27.99169921875 35.19287872314453 C 28.6534595489502 35.4730110168457 29.35581970214844 35.6151008605957 30.08049964904785 35.6151008605957 C 30.80518913269043 35.6151008605957 31.50753974914551 35.4730110168457 32.16827774047852 35.19287872314453 C 32.80770874023438 34.92290115356445 33.38116836547852 34.53619003295898 33.87443923950195 34.04394149780273 C 34.36669921875 33.5506591796875 34.75339889526367 32.97721099853516 35.02338027954102 32.3377799987793 C 35.30350875854492 31.67704010009766 35.44559860229492 30.97366905212402 35.44559860229492 30.25 C 35.44559860229492 29.52531051635742 35.30350875854492 28.82295989990234 35.02338027954102 28.16119956970215 C 34.75339889526367 27.52279090881348 34.36669921875 26.94832038879395 33.87443923950195 26.4560604095459 C 33.38116836547852 25.96380043029785 32.80770874023438 25.57608985900879 32.16827774047852 25.30611038208008 C 31.50753974914551 25.02597999572754 30.80416870117188 24.8848991394043 30.08049964904785 24.8848991394043 Z" stroke="none" fill="#fe0843"/>
      </g>
    </g>
    <g id="Group_31309" data-name="Group 31309" transform="translate(0 -2.871)">
      <g id="Group_3" data-name="Group 3" transform="translate(173.132 21.405)">
        <path id="Path_33010" data-name="Path 33010" d="M9.58-37.905c1.435.628,2.213,1.166,2.213,2.422,0,2.034-1.435,3.17-3.5,3.17a6.01,6.01,0,0,1-4.755-2.721L1.3-32.223a7.517,7.517,0,0,0,6.28,3.2c4.875,0,8.134-3.05,8.134-7.327a4.5,4.5,0,0,0-3.11-4.426L9.61-42.182c-.867-.419-1.854-.927-1.854-2.243,0-1.675,1.5-2.632,3.349-2.632a5.627,5.627,0,0,1,4.007,2.063l2.213-2.781a7.286,7.286,0,0,0-5.951-2.482c-3.918,0-7.506,2.871-7.506,6.729a4.362,4.362,0,0,0,2.841,4.336C7.7-38.772,8.623-38.324,9.58-37.905Zm14.444,5.652c-1.286,0-1.555-.568-1.2-2.751l.927-5.861h3.17l.478-2.961h-3.17l.12-.748a12.97,12.97,0,0,0,.239-3.379H20.854a8.384,8.384,0,0,1-.09,2.6l-.239,1.525H18.462l-.478,2.961h2.063L19-34.167c-.6,3.738.3,5.114,3.2,5.114a9.257,9.257,0,0,0,2.9-.478l.269-2.961A4.244,4.244,0,0,1,24.024-32.253Zm11.334-2.9c4.007,0,6.639-2.273,6.639-5.114,0-2.063-1.764-3.858-5.114-3.858A9.043,9.043,0,0,0,27.7-35.154c0,3.708,2.363,6.1,6.041,6.1a11.356,11.356,0,0,0,6.848-2.392l-1.136-2.063a9.456,9.456,0,0,1-4.665,1.435,3.057,3.057,0,0,1-3.23-3.29A29.341,29.341,0,0,0,35.358-35.154Zm1.256-6.25c1.2,0,2,.6,2,1.525,0,1.406-1.615,2.093-5.114,2.093a15.908,15.908,0,0,1-1.615-.09A4.938,4.938,0,0,1,36.614-41.4Zm14.654,6.25c4.007,0,6.639-2.273,6.639-5.114,0-2.063-1.764-3.858-5.114-3.858a9.043,9.043,0,0,0-9.181,8.972c0,3.708,2.363,6.1,6.041,6.1A11.356,11.356,0,0,0,56.5-31.446l-1.136-2.063A9.456,9.456,0,0,1,50.7-32.074a3.057,3.057,0,0,1-3.23-3.29A29.341,29.341,0,0,0,51.268-35.154Zm1.256-6.25c1.2,0,2,.6,2,1.525,0,1.406-1.615,2.093-5.114,2.093a15.908,15.908,0,0,1-1.615-.09A4.938,4.938,0,0,1,52.524-41.4ZM59.91-29.382h3.738a10.1,10.1,0,0,1,.179-3.14l2.243-14.145a12.97,12.97,0,0,0,.239-3.379H62.572a8.375,8.375,0,0,1-.12,2.6L60.209-33.15A13.7,13.7,0,0,0,59.91-29.382Z" transform="translate(-1.296 50.256)" fill="#fe0843"/>
        <path id="Path_33011" data-name="Path 33011" d="M18.407-48.99H6.936L3.692-28.642H15.429l.383-2.477H6.877L8-38.108h8.2l.413-2.448H8.381l.944-5.986h8.7Zm14.155,6.311h-3.1l-4.188,5.013-2.625-5.013h-3.1l3.834,6.665-6.665,7.372h3.155L24.748-34.3l3.067,5.662H30.97l-4.335-7.372Zm2.949,17.458.914-5.574a4.335,4.335,0,0,0,4.247,2.477c4.9,0,7.874-4.364,7.874-8.817,0-3.362-2.035-5.78-5.515-5.78a6.645,6.645,0,0,0-5.161,2.477h-.029a7.523,7.523,0,0,0,.118-1.3,3.965,3.965,0,0,0-.088-.944H35.217a4.422,4.422,0,0,1,.088.973,8.459,8.459,0,0,1-.088,1.121L32.828-25.428A7.836,7.836,0,0,0,32.71-24.1a3.965,3.965,0,0,0,.088.944h2.743a4.421,4.421,0,0,1-.088-.973A7.141,7.141,0,0,1,35.512-25.221ZM45.686-36.752c0,2.949-1.946,5.986-5.131,5.986-2.33,0-3.568-1.622-3.568-3.834,0-2.949,1.917-5.986,5.131-5.986C44.418-40.585,45.686-38.963,45.686-36.752Zm14.067-3.273.59-2.654a3.127,3.127,0,0,0-1.386-.236A4.374,4.374,0,0,0,55.211-40.5h-.03a6.687,6.687,0,0,0,.118-1.239,3.965,3.965,0,0,0-.088-.944H52.439a4.422,4.422,0,0,1,.088.973,7.142,7.142,0,0,1-.059,1.091L50.581-28.642h2.743l1.121-7.019c.324-1.946,1.327-4.63,3.745-4.63a2.958,2.958,0,0,1,1.416.265Zm14.509.855c0-2.212-1.917-3.775-4.777-3.775a8.854,8.854,0,0,0-8.906,8.788,5.428,5.428,0,0,0,5.81,5.839,9.723,9.723,0,0,0,6.34-2.212l-.885-1.681a8.77,8.77,0,0,1-4.777,1.622,3.456,3.456,0,0,1-3.716-3.775,4.769,4.769,0,0,1,.029-.531,23.919,23.919,0,0,0,3.332.265C73.141-34.628,74.261-38.167,74.261-39.17Zm-2.625,0c0,1.769-2.861,2.448-5.574,2.448a14.384,14.384,0,0,1-2.33-.177,5.6,5.6,0,0,1,5.4-4.011C70.723-40.91,71.637-40.084,71.637-39.17Zm13.772-.206,1.474-1.592a5.126,5.126,0,0,0-4.335-1.946c-2.8,0-5.22,1.858-5.22,4.689,0,3.8,6.075,2.919,6.075,5.456,0,1.592-1.533,2.241-2.89,2.241a4.479,4.479,0,0,1-3.686-1.946l-1.563,1.622a5.588,5.588,0,0,0,4.9,2.536c3.037,0,5.868-1.887,5.868-5.043,0-3.952-6.134-3.3-6.134-5.515,0-1.386,1.268-1.946,2.477-1.946A4.046,4.046,0,0,1,85.409-39.376Zm11.914,0L98.8-40.969a5.126,5.126,0,0,0-4.335-1.946c-2.8,0-5.22,1.858-5.22,4.689,0,3.8,6.075,2.919,6.075,5.456,0,1.592-1.533,2.241-2.89,2.241a4.479,4.479,0,0,1-3.686-1.946l-1.563,1.622a5.588,5.588,0,0,0,4.9,2.536c3.037,0,5.868-1.887,5.868-5.043,0-3.952-6.134-3.3-6.134-5.515,0-1.386,1.268-1.946,2.477-1.946A4.046,4.046,0,0,1,97.323-39.376Z" transform="translate(74.558 49.516)" fill="#222"/>
      </g>
      <text id="Simplifying_Steel_Sourcing" data-name="Simplifying Steel Sourcing" transform="translate(173.132 69.051)" fill="#777" stroke="rgba(255,255,255,0)" stroke-width="1" font-size="16" font-family="Overpass-SemiBold, Overpass" font-weight="600" letter-spacing="0.016em"><tspan x="0" y="0">Simplifying Steel Sourcing</tspan></text>
    </g>
  </g>
</svg>
