<svg id="ic_mail" xmlns="http://www.w3.org/2000/svg" width="18" height="18" viewBox="0 0 18 18">
  <g id="Content">
    <g id="_-Round-_-Content-_-mail" data-name="-Round-/-Content-/-mail">
      <g id="Group_28023" data-name="Group 28023">
        <path id="Path" d="M0,0H18V18H0Z" fill="none" fill-rule="evenodd"/>
        <path id="_Icon-Color" data-name="🔹Icon-Color" d="M15.5,4H3.5A1.5,1.5,0,0,0,2,5.5v9A1.5,1.5,0,0,0,3.5,16h12A1.5,1.5,0,0,0,17,14.5v-9A1.5,1.5,0,0,0,15.5,4Zm-.3,3.188L10.3,10.255a1.486,1.486,0,0,1-1.59,0L3.8,7.188a.637.637,0,1,1,.675-1.08L9.5,9.25l5.025-3.143a.637.637,0,1,1,.675,1.08Z" transform="translate(-0.5 -1)" fill="#ff3e6c" fill-rule="evenodd"/>
      </g>
    </g>
  </g>
</svg>
