<svg xmlns="http://www.w3.org/2000/svg" width="36" height="36" viewBox="0 0 36 36">
  <g id="notification_icon" transform="translate(-341 -226)">
    <rect id="Rectangle_4972" data-name="Rectangle 4972" width="36" height="36" rx="7" transform="translate(341 226)" fill="#f7f7f7"/>
    <path id="Union_36" data-name="Union 36" d="M4.107,17.287c0-1.178,2.277-1.236,2.736-1.236s2.732.058,2.732,1.236S7.3,18.522,6.844,18.522,4.107,18.464,4.107,17.287Zm.566-2.652c-.439-.042-.885-.091-1.32-.157A3.872,3.872,0,0,1,.793,13.039L.762,13A4.141,4.141,0,0,1,0,10.494L0,10.3A4.279,4.279,0,0,1,.543,8.4l.031-.058.039-.054a3.434,3.434,0,0,0,.652-1.437c.012-.228.012-.459.012-.7,0-.285,0-.582.023-.888V5.243A5.82,5.82,0,0,1,3.178,1.455,5.465,5.465,0,0,1,6.8,0h.063A5.512,5.512,0,0,1,10.49,1.45a5.8,5.8,0,0,1,1.893,3.792l0,.017c.02.3.02.6.02.885,0,.248,0,.483.016.707a3.349,3.349,0,0,0,.635,1.441l.045.058.02.037a4.175,4.175,0,0,1,.559,1.91l.006.045v.166a4.151,4.151,0,0,1-.818,2.508l-.016.02a3.886,3.886,0,0,1-2.537,1.442c-.412.058-.832.112-1.25.149-.246.025-1.465.054-2.6.054C5.869,14.68,5.08,14.671,4.674,14.634Z" transform="translate(352.157 234.739)" fill="#ff3e6c"/>
  </g>
</svg>
