<svg xmlns="http://www.w3.org/2000/svg" xmlns:xlink="http://www.w3.org/1999/xlink" width="1366" height="200" viewBox="0 0 1366 200">
  <defs>
    <clipPath id="clip-path">
      <rect id="Rectangle_5498" data-name="Rectangle 5498" width="1366" height="200" transform="translate(0 196)" fill="#fff"/>
    </clipPath>
    <clipPath id="clip-path-2">
      <rect width="127" height="25" fill="none"/>
    </clipPath>
    <clipPath id="clip-path-3">
      <rect width="160" height="35" fill="none"/>
    </clipPath>
    <clipPath id="clip-path-4">
      <rect width="1366" height="199.5" fill="none"/>
    </clipPath>
  </defs>
  <g id="profile_banner_bg" transform="translate(0 -196)" clip-path="url(#clip-path)">
    <g id="Group_31215" data-name="Group 31215">
      <rect id="Rectangle_5496" data-name="Rectangle 5496" width="1366" height="200" transform="translate(0 196)" fill="#fde7ec"/>
      <g id="Repeat_Grid_6" data-name="Repeat Grid 6" transform="translate(14 207)" opacity="0.148" clip-path="url(#clip-path-2)">
        <g transform="translate(-366 -504)">
          <circle id="Ellipse_1488" data-name="Ellipse 1488" cx="2" cy="2" r="2" transform="translate(366 504)" fill="#fe0843"/>
        </g>
        <g transform="translate(-355 -504)">
          <circle id="Ellipse_1488-2" data-name="Ellipse 1488" cx="2" cy="2" r="2" transform="translate(366 504)" fill="#fe0843"/>
        </g>
        <g transform="translate(-344 -504)">
          <circle id="Ellipse_1488-3" data-name="Ellipse 1488" cx="2" cy="2" r="2" transform="translate(366 504)" fill="#fe0843"/>
        </g>
        <g transform="translate(-333 -504)">
          <circle id="Ellipse_1488-4" data-name="Ellipse 1488" cx="2" cy="2" r="2" transform="translate(366 504)" fill="#fe0843"/>
        </g>
        <g transform="translate(-322 -504)">
          <circle id="Ellipse_1488-5" data-name="Ellipse 1488" cx="2" cy="2" r="2" transform="translate(366 504)" fill="#fe0843"/>
        </g>
        <g transform="translate(-311 -504)">
          <circle id="Ellipse_1488-6" data-name="Ellipse 1488" cx="2" cy="2" r="2" transform="translate(366 504)" fill="#fe0843"/>
        </g>
        <g transform="translate(-300 -504)">
          <circle id="Ellipse_1488-7" data-name="Ellipse 1488" cx="2" cy="2" r="2" transform="translate(366 504)" fill="#fe0843"/>
        </g>
        <g transform="translate(-289 -504)">
          <circle id="Ellipse_1488-8" data-name="Ellipse 1488" cx="2" cy="2" r="2" transform="translate(366 504)" fill="#fe0843"/>
        </g>
        <g transform="translate(-278 -504)">
          <circle id="Ellipse_1488-9" data-name="Ellipse 1488" cx="2" cy="2" r="2" transform="translate(366 504)" fill="#fe0843"/>
        </g>
        <g transform="translate(-267 -504)">
          <circle id="Ellipse_1488-10" data-name="Ellipse 1488" cx="2" cy="2" r="2" transform="translate(366 504)" fill="#fe0843"/>
        </g>
        <g transform="translate(-256 -504)">
          <circle id="Ellipse_1488-11" data-name="Ellipse 1488" cx="2" cy="2" r="2" transform="translate(366 504)" fill="#fe0843"/>
        </g>
        <g transform="translate(-245 -504)">
          <circle id="Ellipse_1488-12" data-name="Ellipse 1488" cx="2" cy="2" r="2" transform="translate(366 504)" fill="#fe0843"/>
        </g>
        <g transform="translate(-366 -495)">
          <circle id="Ellipse_1488-13" data-name="Ellipse 1488" cx="2" cy="2" r="2" transform="translate(366 504)" fill="#fe0843"/>
        </g>
        <g transform="translate(-355 -495)">
          <circle id="Ellipse_1488-14" data-name="Ellipse 1488" cx="2" cy="2" r="2" transform="translate(366 504)" fill="#fe0843"/>
        </g>
        <g transform="translate(-344 -495)">
          <circle id="Ellipse_1488-15" data-name="Ellipse 1488" cx="2" cy="2" r="2" transform="translate(366 504)" fill="#fe0843"/>
        </g>
        <g transform="translate(-333 -495)">
          <circle id="Ellipse_1488-16" data-name="Ellipse 1488" cx="2" cy="2" r="2" transform="translate(366 504)" fill="#fe0843"/>
        </g>
        <g transform="translate(-322 -495)">
          <circle id="Ellipse_1488-17" data-name="Ellipse 1488" cx="2" cy="2" r="2" transform="translate(366 504)" fill="#fe0843"/>
        </g>
        <g transform="translate(-311 -495)">
          <circle id="Ellipse_1488-18" data-name="Ellipse 1488" cx="2" cy="2" r="2" transform="translate(366 504)" fill="#fe0843"/>
        </g>
        <g transform="translate(-300 -495)">
          <circle id="Ellipse_1488-19" data-name="Ellipse 1488" cx="2" cy="2" r="2" transform="translate(366 504)" fill="#fe0843"/>
        </g>
        <g transform="translate(-289 -495)">
          <circle id="Ellipse_1488-20" data-name="Ellipse 1488" cx="2" cy="2" r="2" transform="translate(366 504)" fill="#fe0843"/>
        </g>
        <g transform="translate(-278 -495)">
          <circle id="Ellipse_1488-21" data-name="Ellipse 1488" cx="2" cy="2" r="2" transform="translate(366 504)" fill="#fe0843"/>
        </g>
        <g transform="translate(-267 -495)">
          <circle id="Ellipse_1488-22" data-name="Ellipse 1488" cx="2" cy="2" r="2" transform="translate(366 504)" fill="#fe0843"/>
        </g>
        <g transform="translate(-256 -495)">
          <circle id="Ellipse_1488-23" data-name="Ellipse 1488" cx="2" cy="2" r="2" transform="translate(366 504)" fill="#fe0843"/>
        </g>
        <g transform="translate(-245 -495)">
          <circle id="Ellipse_1488-24" data-name="Ellipse 1488" cx="2" cy="2" r="2" transform="translate(366 504)" fill="#fe0843"/>
        </g>
        <g transform="translate(-366 -486)">
          <circle id="Ellipse_1488-25" data-name="Ellipse 1488" cx="2" cy="2" r="2" transform="translate(366 504)" fill="#fe0843"/>
        </g>
        <g transform="translate(-355 -486)">
          <circle id="Ellipse_1488-26" data-name="Ellipse 1488" cx="2" cy="2" r="2" transform="translate(366 504)" fill="#fe0843"/>
        </g>
        <g transform="translate(-344 -486)">
          <circle id="Ellipse_1488-27" data-name="Ellipse 1488" cx="2" cy="2" r="2" transform="translate(366 504)" fill="#fe0843"/>
        </g>
        <g transform="translate(-333 -486)">
          <circle id="Ellipse_1488-28" data-name="Ellipse 1488" cx="2" cy="2" r="2" transform="translate(366 504)" fill="#fe0843"/>
        </g>
        <g transform="translate(-322 -486)">
          <circle id="Ellipse_1488-29" data-name="Ellipse 1488" cx="2" cy="2" r="2" transform="translate(366 504)" fill="#fe0843"/>
        </g>
        <g transform="translate(-311 -486)">
          <circle id="Ellipse_1488-30" data-name="Ellipse 1488" cx="2" cy="2" r="2" transform="translate(366 504)" fill="#fe0843"/>
        </g>
        <g transform="translate(-300 -486)">
          <circle id="Ellipse_1488-31" data-name="Ellipse 1488" cx="2" cy="2" r="2" transform="translate(366 504)" fill="#fe0843"/>
        </g>
        <g transform="translate(-289 -486)">
          <circle id="Ellipse_1488-32" data-name="Ellipse 1488" cx="2" cy="2" r="2" transform="translate(366 504)" fill="#fe0843"/>
        </g>
        <g transform="translate(-278 -486)">
          <circle id="Ellipse_1488-33" data-name="Ellipse 1488" cx="2" cy="2" r="2" transform="translate(366 504)" fill="#fe0843"/>
        </g>
        <g transform="translate(-267 -486)">
          <circle id="Ellipse_1488-34" data-name="Ellipse 1488" cx="2" cy="2" r="2" transform="translate(366 504)" fill="#fe0843"/>
        </g>
        <g transform="translate(-256 -486)">
          <circle id="Ellipse_1488-35" data-name="Ellipse 1488" cx="2" cy="2" r="2" transform="translate(366 504)" fill="#fe0843"/>
        </g>
        <g transform="translate(-245 -486)">
          <circle id="Ellipse_1488-36" data-name="Ellipse 1488" cx="2" cy="2" r="2" transform="translate(366 504)" fill="#fe0843"/>
        </g>
      </g>
      <g id="Repeat_Grid_7" data-name="Repeat Grid 7" transform="translate(1187 349)" opacity="0.148" clip-path="url(#clip-path-3)">
        <g transform="translate(-366 -504)">
          <circle id="Ellipse_1488-37" data-name="Ellipse 1488" cx="2" cy="2" r="2" transform="translate(366 504)" fill="#fe0843"/>
        </g>
        <g transform="translate(-355 -504)">
          <circle id="Ellipse_1488-38" data-name="Ellipse 1488" cx="2" cy="2" r="2" transform="translate(366 504)" fill="#fe0843"/>
        </g>
        <g transform="translate(-344 -504)">
          <circle id="Ellipse_1488-39" data-name="Ellipse 1488" cx="2" cy="2" r="2" transform="translate(366 504)" fill="#fe0843"/>
        </g>
        <g transform="translate(-333 -504)">
          <circle id="Ellipse_1488-40" data-name="Ellipse 1488" cx="2" cy="2" r="2" transform="translate(366 504)" fill="#fe0843"/>
        </g>
        <g transform="translate(-322 -504)">
          <circle id="Ellipse_1488-41" data-name="Ellipse 1488" cx="2" cy="2" r="2" transform="translate(366 504)" fill="#fe0843"/>
        </g>
        <g transform="translate(-311 -504)">
          <circle id="Ellipse_1488-42" data-name="Ellipse 1488" cx="2" cy="2" r="2" transform="translate(366 504)" fill="#fe0843"/>
        </g>
        <g transform="translate(-300 -504)">
          <circle id="Ellipse_1488-43" data-name="Ellipse 1488" cx="2" cy="2" r="2" transform="translate(366 504)" fill="#fe0843"/>
        </g>
        <g transform="translate(-289 -504)">
          <circle id="Ellipse_1488-44" data-name="Ellipse 1488" cx="2" cy="2" r="2" transform="translate(366 504)" fill="#fe0843"/>
        </g>
        <g transform="translate(-278 -504)">
          <circle id="Ellipse_1488-45" data-name="Ellipse 1488" cx="2" cy="2" r="2" transform="translate(366 504)" fill="#fe0843"/>
        </g>
        <g transform="translate(-267 -504)">
          <circle id="Ellipse_1488-46" data-name="Ellipse 1488" cx="2" cy="2" r="2" transform="translate(366 504)" fill="#fe0843"/>
        </g>
        <g transform="translate(-256 -504)">
          <circle id="Ellipse_1488-47" data-name="Ellipse 1488" cx="2" cy="2" r="2" transform="translate(366 504)" fill="#fe0843"/>
        </g>
        <g transform="translate(-245 -504)">
          <circle id="Ellipse_1488-48" data-name="Ellipse 1488" cx="2" cy="2" r="2" transform="translate(366 504)" fill="#fe0843"/>
        </g>
        <g transform="translate(-234 -504)">
          <circle id="Ellipse_1488-49" data-name="Ellipse 1488" cx="2" cy="2" r="2" transform="translate(366 504)" fill="#fe0843"/>
        </g>
        <g transform="translate(-223 -504)">
          <circle id="Ellipse_1488-50" data-name="Ellipse 1488" cx="2" cy="2" r="2" transform="translate(366 504)" fill="#fe0843"/>
        </g>
        <g transform="translate(-212 -504)">
          <circle id="Ellipse_1488-51" data-name="Ellipse 1488" cx="2" cy="2" r="2" transform="translate(366 504)" fill="#fe0843"/>
        </g>
        <g transform="translate(-366 -495)">
          <circle id="Ellipse_1488-52" data-name="Ellipse 1488" cx="2" cy="2" r="2" transform="translate(366 504)" fill="#fe0843"/>
        </g>
        <g transform="translate(-355 -495)">
          <circle id="Ellipse_1488-53" data-name="Ellipse 1488" cx="2" cy="2" r="2" transform="translate(366 504)" fill="#fe0843"/>
        </g>
        <g transform="translate(-344 -495)">
          <circle id="Ellipse_1488-54" data-name="Ellipse 1488" cx="2" cy="2" r="2" transform="translate(366 504)" fill="#fe0843"/>
        </g>
        <g transform="translate(-333 -495)">
          <circle id="Ellipse_1488-55" data-name="Ellipse 1488" cx="2" cy="2" r="2" transform="translate(366 504)" fill="#fe0843"/>
        </g>
        <g transform="translate(-322 -495)">
          <circle id="Ellipse_1488-56" data-name="Ellipse 1488" cx="2" cy="2" r="2" transform="translate(366 504)" fill="#fe0843"/>
        </g>
        <g transform="translate(-311 -495)">
          <circle id="Ellipse_1488-57" data-name="Ellipse 1488" cx="2" cy="2" r="2" transform="translate(366 504)" fill="#fe0843"/>
        </g>
        <g transform="translate(-300 -495)">
          <circle id="Ellipse_1488-58" data-name="Ellipse 1488" cx="2" cy="2" r="2" transform="translate(366 504)" fill="#fe0843"/>
        </g>
        <g transform="translate(-289 -495)">
          <circle id="Ellipse_1488-59" data-name="Ellipse 1488" cx="2" cy="2" r="2" transform="translate(366 504)" fill="#fe0843"/>
        </g>
        <g transform="translate(-278 -495)">
          <circle id="Ellipse_1488-60" data-name="Ellipse 1488" cx="2" cy="2" r="2" transform="translate(366 504)" fill="#fe0843"/>
        </g>
        <g transform="translate(-267 -495)">
          <circle id="Ellipse_1488-61" data-name="Ellipse 1488" cx="2" cy="2" r="2" transform="translate(366 504)" fill="#fe0843"/>
        </g>
        <g transform="translate(-256 -495)">
          <circle id="Ellipse_1488-62" data-name="Ellipse 1488" cx="2" cy="2" r="2" transform="translate(366 504)" fill="#fe0843"/>
        </g>
        <g transform="translate(-245 -495)">
          <circle id="Ellipse_1488-63" data-name="Ellipse 1488" cx="2" cy="2" r="2" transform="translate(366 504)" fill="#fe0843"/>
        </g>
        <g transform="translate(-234 -495)">
          <circle id="Ellipse_1488-64" data-name="Ellipse 1488" cx="2" cy="2" r="2" transform="translate(366 504)" fill="#fe0843"/>
        </g>
        <g transform="translate(-223 -495)">
          <circle id="Ellipse_1488-65" data-name="Ellipse 1488" cx="2" cy="2" r="2" transform="translate(366 504)" fill="#fe0843"/>
        </g>
        <g transform="translate(-212 -495)">
          <circle id="Ellipse_1488-66" data-name="Ellipse 1488" cx="2" cy="2" r="2" transform="translate(366 504)" fill="#fe0843"/>
        </g>
        <g transform="translate(-366 -486)">
          <circle id="Ellipse_1488-67" data-name="Ellipse 1488" cx="2" cy="2" r="2" transform="translate(366 504)" fill="#fe0843"/>
        </g>
        <g transform="translate(-355 -486)">
          <circle id="Ellipse_1488-68" data-name="Ellipse 1488" cx="2" cy="2" r="2" transform="translate(366 504)" fill="#fe0843"/>
        </g>
        <g transform="translate(-344 -486)">
          <circle id="Ellipse_1488-69" data-name="Ellipse 1488" cx="2" cy="2" r="2" transform="translate(366 504)" fill="#fe0843"/>
        </g>
        <g transform="translate(-333 -486)">
          <circle id="Ellipse_1488-70" data-name="Ellipse 1488" cx="2" cy="2" r="2" transform="translate(366 504)" fill="#fe0843"/>
        </g>
        <g transform="translate(-322 -486)">
          <circle id="Ellipse_1488-71" data-name="Ellipse 1488" cx="2" cy="2" r="2" transform="translate(366 504)" fill="#fe0843"/>
        </g>
        <g transform="translate(-311 -486)">
          <circle id="Ellipse_1488-72" data-name="Ellipse 1488" cx="2" cy="2" r="2" transform="translate(366 504)" fill="#fe0843"/>
        </g>
        <g transform="translate(-300 -486)">
          <circle id="Ellipse_1488-73" data-name="Ellipse 1488" cx="2" cy="2" r="2" transform="translate(366 504)" fill="#fe0843"/>
        </g>
        <g transform="translate(-289 -486)">
          <circle id="Ellipse_1488-74" data-name="Ellipse 1488" cx="2" cy="2" r="2" transform="translate(366 504)" fill="#fe0843"/>
        </g>
        <g transform="translate(-278 -486)">
          <circle id="Ellipse_1488-75" data-name="Ellipse 1488" cx="2" cy="2" r="2" transform="translate(366 504)" fill="#fe0843"/>
        </g>
        <g transform="translate(-267 -486)">
          <circle id="Ellipse_1488-76" data-name="Ellipse 1488" cx="2" cy="2" r="2" transform="translate(366 504)" fill="#fe0843"/>
        </g>
        <g transform="translate(-256 -486)">
          <circle id="Ellipse_1488-77" data-name="Ellipse 1488" cx="2" cy="2" r="2" transform="translate(366 504)" fill="#fe0843"/>
        </g>
        <g transform="translate(-245 -486)">
          <circle id="Ellipse_1488-78" data-name="Ellipse 1488" cx="2" cy="2" r="2" transform="translate(366 504)" fill="#fe0843"/>
        </g>
        <g transform="translate(-234 -486)">
          <circle id="Ellipse_1488-79" data-name="Ellipse 1488" cx="2" cy="2" r="2" transform="translate(366 504)" fill="#fe0843"/>
        </g>
        <g transform="translate(-223 -486)">
          <circle id="Ellipse_1488-80" data-name="Ellipse 1488" cx="2" cy="2" r="2" transform="translate(366 504)" fill="#fe0843"/>
        </g>
        <g transform="translate(-212 -486)">
          <circle id="Ellipse_1488-81" data-name="Ellipse 1488" cx="2" cy="2" r="2" transform="translate(366 504)" fill="#fe0843"/>
        </g>
        <g transform="translate(-366 -477)">
          <circle id="Ellipse_1488-82" data-name="Ellipse 1488" cx="2" cy="2" r="2" transform="translate(366 504)" fill="#fe0843"/>
        </g>
        <g transform="translate(-355 -477)">
          <circle id="Ellipse_1488-83" data-name="Ellipse 1488" cx="2" cy="2" r="2" transform="translate(366 504)" fill="#fe0843"/>
        </g>
        <g transform="translate(-344 -477)">
          <circle id="Ellipse_1488-84" data-name="Ellipse 1488" cx="2" cy="2" r="2" transform="translate(366 504)" fill="#fe0843"/>
        </g>
        <g transform="translate(-333 -477)">
          <circle id="Ellipse_1488-85" data-name="Ellipse 1488" cx="2" cy="2" r="2" transform="translate(366 504)" fill="#fe0843"/>
        </g>
        <g transform="translate(-322 -477)">
          <circle id="Ellipse_1488-86" data-name="Ellipse 1488" cx="2" cy="2" r="2" transform="translate(366 504)" fill="#fe0843"/>
        </g>
        <g transform="translate(-311 -477)">
          <circle id="Ellipse_1488-87" data-name="Ellipse 1488" cx="2" cy="2" r="2" transform="translate(366 504)" fill="#fe0843"/>
        </g>
        <g transform="translate(-300 -477)">
          <circle id="Ellipse_1488-88" data-name="Ellipse 1488" cx="2" cy="2" r="2" transform="translate(366 504)" fill="#fe0843"/>
        </g>
        <g transform="translate(-289 -477)">
          <circle id="Ellipse_1488-89" data-name="Ellipse 1488" cx="2" cy="2" r="2" transform="translate(366 504)" fill="#fe0843"/>
        </g>
        <g transform="translate(-278 -477)">
          <circle id="Ellipse_1488-90" data-name="Ellipse 1488" cx="2" cy="2" r="2" transform="translate(366 504)" fill="#fe0843"/>
        </g>
        <g transform="translate(-267 -477)">
          <circle id="Ellipse_1488-91" data-name="Ellipse 1488" cx="2" cy="2" r="2" transform="translate(366 504)" fill="#fe0843"/>
        </g>
        <g transform="translate(-256 -477)">
          <circle id="Ellipse_1488-92" data-name="Ellipse 1488" cx="2" cy="2" r="2" transform="translate(366 504)" fill="#fe0843"/>
        </g>
        <g transform="translate(-245 -477)">
          <circle id="Ellipse_1488-93" data-name="Ellipse 1488" cx="2" cy="2" r="2" transform="translate(366 504)" fill="#fe0843"/>
        </g>
        <g transform="translate(-234 -477)">
          <circle id="Ellipse_1488-94" data-name="Ellipse 1488" cx="2" cy="2" r="2" transform="translate(366 504)" fill="#fe0843"/>
        </g>
        <g transform="translate(-223 -477)">
          <circle id="Ellipse_1488-95" data-name="Ellipse 1488" cx="2" cy="2" r="2" transform="translate(366 504)" fill="#fe0843"/>
        </g>
        <g transform="translate(-212 -477)">
          <circle id="Ellipse_1488-96" data-name="Ellipse 1488" cx="2" cy="2" r="2" transform="translate(366 504)" fill="#fe0843"/>
        </g>
      </g>
      <g id="Repeat_Grid_10" data-name="Repeat Grid 10" transform="translate(0 196.5)" clip-path="url(#clip-path-4)">
        <g transform="translate(0 -196.5)">
          <line id="Line_1049" data-name="Line 1049" y2="160" transform="translate(0.5 196.5)" fill="none" stroke="#feedf1" stroke-width="1"/>
        </g>
        <g transform="translate(60 -196.5)">
          <line id="Line_1049-2" data-name="Line 1049" y2="160" transform="translate(0.5 196.5)" fill="none" stroke="#feedf1" stroke-width="1"/>
        </g>
        <g transform="translate(120 -196.5)">
          <line id="Line_1049-3" data-name="Line 1049" y2="160" transform="translate(0.5 196.5)" fill="none" stroke="#feedf1" stroke-width="1"/>
        </g>
        <g transform="translate(180 -196.5)">
          <line id="Line_1049-4" data-name="Line 1049" y2="160" transform="translate(0.5 196.5)" fill="none" stroke="#feedf1" stroke-width="1"/>
        </g>
        <g transform="translate(240 -196.5)">
          <line id="Line_1049-5" data-name="Line 1049" y2="160" transform="translate(0.5 196.5)" fill="none" stroke="#feedf1" stroke-width="1"/>
        </g>
        <g transform="translate(300 -196.5)">
          <line id="Line_1049-6" data-name="Line 1049" y2="160" transform="translate(0.5 196.5)" fill="none" stroke="#feedf1" stroke-width="1"/>
        </g>
        <g transform="translate(360 -196.5)">
          <line id="Line_1049-7" data-name="Line 1049" y2="160" transform="translate(0.5 196.5)" fill="none" stroke="#feedf1" stroke-width="1"/>
        </g>
        <g transform="translate(420 -196.5)">
          <line id="Line_1049-8" data-name="Line 1049" y2="160" transform="translate(0.5 196.5)" fill="none" stroke="#feedf1" stroke-width="1"/>
        </g>
        <g transform="translate(480 -196.5)">
          <line id="Line_1049-9" data-name="Line 1049" y2="160" transform="translate(0.5 196.5)" fill="none" stroke="#feedf1" stroke-width="1"/>
        </g>
        <g transform="translate(540 -196.5)">
          <line id="Line_1049-10" data-name="Line 1049" y2="160" transform="translate(0.5 196.5)" fill="none" stroke="#feedf1" stroke-width="1"/>
        </g>
        <g transform="translate(600 -196.5)">
          <line id="Line_1049-11" data-name="Line 1049" y2="160" transform="translate(0.5 196.5)" fill="none" stroke="#feedf1" stroke-width="1"/>
        </g>
        <g transform="translate(660 -196.5)">
          <line id="Line_1049-12" data-name="Line 1049" y2="160" transform="translate(0.5 196.5)" fill="none" stroke="#feedf1" stroke-width="1"/>
        </g>
        <g transform="translate(720 -196.5)">
          <line id="Line_1049-13" data-name="Line 1049" y2="160" transform="translate(0.5 196.5)" fill="none" stroke="#feedf1" stroke-width="1"/>
        </g>
        <g transform="translate(780 -196.5)">
          <line id="Line_1049-14" data-name="Line 1049" y2="160" transform="translate(0.5 196.5)" fill="none" stroke="#feedf1" stroke-width="1"/>
        </g>
        <g transform="translate(840 -196.5)">
          <line id="Line_1049-15" data-name="Line 1049" y2="160" transform="translate(0.5 196.5)" fill="none" stroke="#feedf1" stroke-width="1"/>
        </g>
        <g transform="translate(900 -196.5)">
          <line id="Line_1049-16" data-name="Line 1049" y2="160" transform="translate(0.5 196.5)" fill="none" stroke="#feedf1" stroke-width="1"/>
        </g>
        <g transform="translate(960 -196.5)">
          <line id="Line_1049-17" data-name="Line 1049" y2="160" transform="translate(0.5 196.5)" fill="none" stroke="#feedf1" stroke-width="1"/>
        </g>
        <g transform="translate(1020 -196.5)">
          <line id="Line_1049-18" data-name="Line 1049" y2="160" transform="translate(0.5 196.5)" fill="none" stroke="#feedf1" stroke-width="1"/>
        </g>
        <g transform="translate(1080 -196.5)">
          <line id="Line_1049-19" data-name="Line 1049" y2="160" transform="translate(0.5 196.5)" fill="none" stroke="#feedf1" stroke-width="1"/>
        </g>
        <g transform="translate(1140 -196.5)">
          <line id="Line_1049-20" data-name="Line 1049" y2="160" transform="translate(0.5 196.5)" fill="none" stroke="#feedf1" stroke-width="1"/>
        </g>
        <g transform="translate(1200 -196.5)">
          <line id="Line_1049-21" data-name="Line 1049" y2="160" transform="translate(0.5 196.5)" fill="none" stroke="#feedf1" stroke-width="1"/>
        </g>
        <g transform="translate(1260 -196.5)">
          <line id="Line_1049-22" data-name="Line 1049" y2="160" transform="translate(0.5 196.5)" fill="none" stroke="#feedf1" stroke-width="1"/>
        </g>
        <g transform="translate(1320 -196.5)">
          <line id="Line_1049-23" data-name="Line 1049" y2="160" transform="translate(0.5 196.5)" fill="none" stroke="#feedf1" stroke-width="1"/>
        </g>
        <g transform="translate(0 -16.5)">
          <line id="Line_1049-24" data-name="Line 1049" y2="160" transform="translate(0.5 196.5)" fill="none" stroke="#feedf1" stroke-width="1"/>
        </g>
        <g transform="translate(60 -16.5)">
          <line id="Line_1049-25" data-name="Line 1049" y2="160" transform="translate(0.5 196.5)" fill="none" stroke="#feedf1" stroke-width="1"/>
        </g>
        <g transform="translate(120 -16.5)">
          <line id="Line_1049-26" data-name="Line 1049" y2="160" transform="translate(0.5 196.5)" fill="none" stroke="#feedf1" stroke-width="1"/>
        </g>
        <g transform="translate(180 -16.5)">
          <line id="Line_1049-27" data-name="Line 1049" y2="160" transform="translate(0.5 196.5)" fill="none" stroke="#feedf1" stroke-width="1"/>
        </g>
        <g transform="translate(240 -16.5)">
          <line id="Line_1049-28" data-name="Line 1049" y2="160" transform="translate(0.5 196.5)" fill="none" stroke="#feedf1" stroke-width="1"/>
        </g>
        <g transform="translate(300 -16.5)">
          <line id="Line_1049-29" data-name="Line 1049" y2="160" transform="translate(0.5 196.5)" fill="none" stroke="#feedf1" stroke-width="1"/>
        </g>
        <g transform="translate(360 -16.5)">
          <line id="Line_1049-30" data-name="Line 1049" y2="160" transform="translate(0.5 196.5)" fill="none" stroke="#feedf1" stroke-width="1"/>
        </g>
        <g transform="translate(420 -16.5)">
          <line id="Line_1049-31" data-name="Line 1049" y2="160" transform="translate(0.5 196.5)" fill="none" stroke="#feedf1" stroke-width="1"/>
        </g>
        <g transform="translate(480 -16.5)">
          <line id="Line_1049-32" data-name="Line 1049" y2="160" transform="translate(0.5 196.5)" fill="none" stroke="#feedf1" stroke-width="1"/>
        </g>
        <g transform="translate(540 -16.5)">
          <line id="Line_1049-33" data-name="Line 1049" y2="160" transform="translate(0.5 196.5)" fill="none" stroke="#feedf1" stroke-width="1"/>
        </g>
        <g transform="translate(600 -16.5)">
          <line id="Line_1049-34" data-name="Line 1049" y2="160" transform="translate(0.5 196.5)" fill="none" stroke="#feedf1" stroke-width="1"/>
        </g>
        <g transform="translate(660 -16.5)">
          <line id="Line_1049-35" data-name="Line 1049" y2="160" transform="translate(0.5 196.5)" fill="none" stroke="#feedf1" stroke-width="1"/>
        </g>
        <g transform="translate(720 -16.5)">
          <line id="Line_1049-36" data-name="Line 1049" y2="160" transform="translate(0.5 196.5)" fill="none" stroke="#feedf1" stroke-width="1"/>
        </g>
        <g transform="translate(780 -16.5)">
          <line id="Line_1049-37" data-name="Line 1049" y2="160" transform="translate(0.5 196.5)" fill="none" stroke="#feedf1" stroke-width="1"/>
        </g>
        <g transform="translate(840 -16.5)">
          <line id="Line_1049-38" data-name="Line 1049" y2="160" transform="translate(0.5 196.5)" fill="none" stroke="#feedf1" stroke-width="1"/>
        </g>
        <g transform="translate(900 -16.5)">
          <line id="Line_1049-39" data-name="Line 1049" y2="160" transform="translate(0.5 196.5)" fill="none" stroke="#feedf1" stroke-width="1"/>
        </g>
        <g transform="translate(960 -16.5)">
          <line id="Line_1049-40" data-name="Line 1049" y2="160" transform="translate(0.5 196.5)" fill="none" stroke="#feedf1" stroke-width="1"/>
        </g>
        <g transform="translate(1020 -16.5)">
          <line id="Line_1049-41" data-name="Line 1049" y2="160" transform="translate(0.5 196.5)" fill="none" stroke="#feedf1" stroke-width="1"/>
        </g>
        <g transform="translate(1080 -16.5)">
          <line id="Line_1049-42" data-name="Line 1049" y2="160" transform="translate(0.5 196.5)" fill="none" stroke="#feedf1" stroke-width="1"/>
        </g>
        <g transform="translate(1140 -16.5)">
          <line id="Line_1049-43" data-name="Line 1049" y2="160" transform="translate(0.5 196.5)" fill="none" stroke="#feedf1" stroke-width="1"/>
        </g>
        <g transform="translate(1200 -16.5)">
          <line id="Line_1049-44" data-name="Line 1049" y2="160" transform="translate(0.5 196.5)" fill="none" stroke="#feedf1" stroke-width="1"/>
        </g>
        <g transform="translate(1260 -16.5)">
          <line id="Line_1049-45" data-name="Line 1049" y2="160" transform="translate(0.5 196.5)" fill="none" stroke="#feedf1" stroke-width="1"/>
        </g>
        <g transform="translate(1320 -16.5)">
          <line id="Line_1049-46" data-name="Line 1049" y2="160" transform="translate(0.5 196.5)" fill="none" stroke="#feedf1" stroke-width="1"/>
        </g>
      </g>
    </g>
  </g>
</svg>
